<svg width="487" height="487" viewBox="0 0 487 487" fill="none" xmlns="http://www.w3.org/2000/svg">
<circle cx="243.5" cy="243.5" r="243.5" fill="white"/>
<path fill-rule="evenodd" clip-rule="evenodd" d="M268.67 329.123C261.872 324.905 252.554 319.121 244.145 319.121C241.16 319.121 236.355 318.879 230.846 318.601C216.991 317.902 198.685 316.979 193.681 319.121C189.683 320.833 184.687 338.588 184.687 348.57C184.687 354.884 191.24 386.629 199.676 388.502C204.944 389.671 207.663 385.069 209.401 382.128C210.63 380.048 211.367 378.8 212.168 381.015C218.663 398.983 234.652 403.476 234.652 403.476C234.652 403.476 257.116 366.189 280.62 354.56C301.639 344.161 340.078 346.075 340.078 346.075C340.078 346.075 346.819 310.35 340.078 289.173C332.247 264.571 299.107 237.263 299.107 237.263C299.107 237.263 326.177 239.243 340.078 248.244C353.328 256.823 366.06 279.19 366.06 279.19C366.06 279.19 394.327 265.194 401.035 248.244C405.696 236.468 404.139 227.79 402.093 216.387C401.745 214.45 401.383 212.433 401.035 210.309C398.215 193.085 385.546 168.382 385.546 168.382C385.546 168.382 410.187 186.062 419.523 202.323C428.923 218.697 429.827 230.956 431.135 248.686C431.256 250.32 431.38 252 431.514 253.734C433.905 284.601 428.82 302.566 419.523 332.099C412.265 355.152 394.04 388.502 394.04 388.502C394.04 388.502 425.639 348.966 436.511 319.121C442.887 301.616 445.054 291.169 447.503 272.701C450.706 248.547 450.956 234.429 447.503 210.309C444.997 192.806 442.97 182.847 436.511 166.385C429.656 148.917 424.005 139.681 413.027 124.458C399.234 105.33 390.48 97.5153 373.055 83.5273C358.542 71.8772 349.857 65.6427 333.083 57.573C319.625 51.0986 313.105 48.7377 297.108 44.5945C278.16 39.6868 263.71 37.4728 244.145 38.1057C242.249 38.1671 240.464 38.2175 238.763 38.2656C227.963 38.5708 220.488 38.782 208.67 41.1014C188.326 45.0943 158.205 57.573 158.205 57.573C158.205 57.573 120.006 76.4071 100.746 95.0083C83.9948 111.185 76.6992 122.644 65.2704 142.926C54.285 162.421 48.8139 174.155 43.2857 195.834C37.6684 217.863 36.3162 231.023 37.2899 253.734C38.4084 279.822 41.9306 294.737 51.2801 319.121C59.6522 340.957 65.9435 353.033 80.2599 371.531C89.6308 383.639 95.7183 389.895 107.241 399.982C120.514 411.601 128.579 417.762 144.215 425.937C164.389 436.484 199.676 443.906 199.676 443.906C199.676 443.906 173.354 432.591 158.205 422.443C138.245 409.072 127.957 399.595 112.737 381.015C99.7437 365.151 92.591 355.535 84.7567 336.591C77.1117 318.105 75.6319 306.539 73.2648 286.677C70.658 264.805 70.7076 252.153 73.2648 230.275C76.256 204.682 79.4121 189.99 89.7532 166.385C100.819 141.126 109.633 127.397 128.726 107.487C150.068 85.2308 164.974 73.8561 193.681 62.5644C215.899 53.8248 229.76 50.5228 253.639 50.5851C271.604 50.6319 299.107 57.573 299.107 57.573C299.107 57.573 270.995 73.1962 261.133 90.017C257.378 96.4218 255.509 100.303 253.639 107.487C250.494 119.56 253.639 139.432 253.639 139.432L240.148 131.445L244.145 156.901C244.145 156.901 232.583 160.634 228.156 166.385C223.598 172.308 223.16 184.853 223.16 184.853L240.148 178.863L180.69 230.275C180.69 230.275 187.919 237.263 193.681 237.263C196.117 237.263 199.425 235.48 203.314 233.385C208.992 230.325 215.909 226.598 223.16 226.781C231.68 226.996 245.644 232.271 245.644 232.271C245.644 232.271 206.172 253.235 202.674 267.211C200.598 275.506 205.669 282.684 208.67 286.677C212.599 291.907 215.988 294.39 220.746 297.876C221.512 298.438 222.314 299.026 223.16 299.655C230.439 305.074 240.014 307.135 249.01 309.071C258.802 311.178 267.908 313.138 272.625 319.121C277.376 325.149 280.62 330.102 278.121 333.097C277.081 334.344 273.516 332.131 268.67 329.123ZM324.589 436.419C342.09 428.75 351.517 422.85 366.06 410.464L375.054 364.044C375.054 364.044 355.861 390.258 340.078 403.476C319.731 420.517 305.427 426.962 280.62 436.419C263.24 443.044 234.652 448.897 234.652 448.897C234.652 448.897 262.841 451.378 280.62 448.897C298.299 446.43 308.242 443.582 324.589 436.419ZM193.165 258.619C193.165 258.619 186.109 254.128 182.672 250.134C178.235 244.977 174.678 234.66 174.678 234.66C174.678 234.66 170.484 241.976 169.182 247.139C167.274 254.7 167.707 259.448 169.182 267.104C170.919 276.127 174.089 281.069 178.725 288.298C179.193 289.028 179.676 289.781 180.174 290.564C183.166 295.27 188.668 302.044 188.668 302.044L202.158 290.564C202.158 290.564 198.334 284.391 196.662 280.082C193.59 272.164 193.165 258.619 193.165 258.619Z" fill="url(#paint0_linear_4729_1849)"/>
<path d="M282.328 171.338L292.821 182.319L269.837 201.785C269.837 201.785 303.169 190.204 325.798 184.815C339.685 181.507 361.773 178.326 361.773 178.326C361.773 178.326 346.222 165.922 334.292 162.853C322.765 159.886 315.443 160.322 303.813 162.853C294.998 164.771 282.328 171.338 282.328 171.338Z" fill="white"/>
<defs>
<linearGradient id="paint0_linear_4729_1849" x1="339.288" y1="51.9759" x2="207.137" y2="589.61" gradientUnits="userSpaceOnUse">
<stop offset="0.182312" stop-color="#F2BA4C"/>
<stop offset="0.626671" stop-color="#008CCC"/>
</linearGradient>
</defs>
</svg>
