<svg width="280" height="40" viewBox="0 0 280 40" fill="none" xmlns="http://www.w3.org/2000/svg">
<path d="M9.59079 39.7808L10.1517 39.6712L10.8808 39.6164H11.7221L12.4512 39.4521L13.1242 39.3425L13.7973 39.1781L15.2555 38.8493L15.6481 38.6849L16.5455 38.137L17.3868 37.4247L18.2281 36.4384L18.3403 36.1096L18.5085 35.7808L18.789 35.4521L19.0133 35.1233L19.1816 34.7397L19.462 34.0822L19.7985 33.2055L19.9668 32.8767L20.079 32.4932L20.1351 32.1096L20.3033 31.4521L20.6398 30.0822L20.752 29.7534L20.9203 28.6027L20.9764 28.3836L21.0324 28L21.1446 27.726L21.2007 27.1233L21.3129 26.411V26.0274L21.425 25.6986V25.0959L21.2007 24.7123L20.8081 24.3288L20.1351 24.274L17.3868 24.1096H16.209L14.7507 24.0548L14.3021 24.1096L13.9095 24.5479L13.7973 25.0959L13.5168 25.8082L13.4608 26.1918L13.3486 26.6849L13.1803 27.5069L13.0121 28.1644L12.956 28.4384L12.8999 28.7671L12.6755 29.4795L12.3951 30.2466L11.9464 31.2329L11.7221 31.5069L10.9369 32H10.0956L9.19819 32.1096L8.35689 31.8356L7.9082 31.4521L7.68385 30.6301V30.2466L7.62776 29.9178V29.3699L7.68385 28.6027L7.85211 27.8356V27.3973L8.02037 26.2466L7.96428 25.863L8.07646 25.4795L8.13254 25.0959V24.6575L8.18863 24.274L8.35689 23.8904V22.7397L8.52515 21.9178L8.63732 21.4795L8.74949 20.7671L8.80558 20.3836L9.02993 19.5069L9.08601 19.0685L9.53471 16.8767L9.81514 16.0548L9.92731 15.2877L10.0395 14.9041L10.0956 14.5753L10.1517 14.1918L10.3199 13.6986L10.4882 13.0411L10.6564 12.2192L10.8808 11.5616V11.2329L11.2173 10.3014L11.4977 9.58904L11.7221 8.65753L11.8903 8.27397L12.0586 7.94521L12.5634 7.34247L13.1803 7.12329L13.8534 7.0137H14.4703L15.2555 7.23288L15.8725 7.56164L16.209 8.54795V9.36986L16.0968 10.137L16.0407 10.8493L15.7042 12.0548L15.592 12.8219L15.3677 13.8082L15.2555 14.1918V14.9589L15.6481 15.5616L17.2746 15.7808L20.8081 15.8356L21.5933 15.7808L22.2663 15.726L22.4907 15.5069L22.7711 14.0822L22.8833 13.6438L23.2198 11.5069L23.332 10.6301L23.4442 9.80822L23.5563 9.36986L23.6124 8.82192V7.61644L23.5563 6.79452L23.5002 6.30137L23.4442 5.58904L23.3881 4.93151L23.2759 4.32877L22.9955 3.78082L22.8833 3.39726L22.715 3.12329L22.4346 2.63014L22.3224 2.35617L21.7055 1.80822L20.9764 1.26027L20.1911 0.986302L19.5742 0.876714L19.3498 0.712329L18.9572 0.657536L18.5646 0.547945L18.2281 0.493151L17.4429 0.383563H16.882L16.3773 0.219179L14.9751 0.0547938H14.0777L13.0121 0.109591H12.1708L11.7782 0.164385L11.049 0.328769L10.0956 0.493151L8.91775 0.986302L8.58123 1.15069L7.85211 1.47945L7.51559 1.75343L6.73038 2.52055L6.28169 3.06849L5.88908 3.61644L5.49648 3.94521L5.27213 4.54795L4.93561 5.31507L4.65518 5.9726L4.31866 6.90411L4.09431 7.67124L3.7578 8.76713L3.36519 9.86301L3.19693 10.5753L3.02867 10.9589L2.97258 11.3425L2.9165 11.6712L2.80433 12.0548L2.74824 12.4384L2.57998 12.7671L2.52389 13.3151L2.41172 13.9178L2.29955 14.3014L2.01911 15.3973V16.1644L1.85085 16.4932V16.8219L1.79477 17.4795L1.62651 18.0274L1.51434 18.6301L1.34608 19.2329V19.4521L1.28999 19.6164V20.3836L1.06564 20.7123L0.897384 21.6986L0.953471 21.9726L0.785211 22.5753L0.673038 23.0137L0.729125 23.5069L0.504779 24.274L0.392606 25.4247L0.336519 25.7534V26.137L0.224346 26.9041L0.16826 27.6712L0.112173 28.1096L0.0560866 29.2603V30.6849L0 31.0685V31.5616L0.0560866 32V33.0411L0.16826 33.4247L0.280433 34.137L0.392606 34.4658L0.560865 35.1781L1.06564 35.8904L1.45825 36.6575L1.73868 36.9315L1.96303 37.2055L2.69215 37.7534L3.02867 37.9726L3.3091 38.1918L3.86997 38.5206L4.20649 38.7945L4.87953 39.0137L5.60865 39.2877L5.94517 39.3425L6.33778 39.4521L6.89864 39.5069L7.23516 39.5616L7.68385 39.6164L8.3008 39.6712L8.69341 39.726H9.08601L9.59079 39.7808Z" fill="#F2BA4C"/>
<path d="M29.2798 39.3425H29.6724L30.5137 39.1781L30.9624 39.1233L31.5232 39.1781L32.1402 39.0685L32.3085 38.5206V37.9178L32.3645 37.589L32.7571 35.6712L33.0376 33.9178L33.2058 32.6575L33.4302 31.5616L33.5984 30.9041V30.4658L33.935 29.0411L34.1032 28.0548L34.2154 27.6712L34.2715 27.1233L34.3276 26.6301L34.4958 26.0822L34.608 25.3151L34.7202 24.4932L34.7763 23.7808L35.0006 23.1781L35.225 21.6986V21.3699L35.5615 20L35.7297 18.7945L36.0102 17.4247L36.2345 15.726L36.4028 14.7397L36.4589 14.0822L36.6271 13.5342L36.7954 12.4932L36.9075 11.726L37.188 10.6849V10.2466L37.3562 9.91781V9.15068L37.4123 8.76713L37.5806 8.10959L38.3658 8.0548H41.7871L42.2919 8.10959H44.0305V8.32877L43.9744 8.76713L44.0305 9.15068L43.8062 9.86301L43.7501 10.2466L43.5818 11.0137L43.5258 11.3425L43.3014 12L43.3575 12.3836L43.3014 12.7123L43.1892 13.4795L43.021 13.863V14.5753L42.8527 15.726L42.6845 16.4932L42.5162 17.2055L42.404 17.863V18.5753L42.1797 19.0137L42.1236 19.7808L42.0114 20.1644L41.8992 20.9315V21.6986L41.7871 22.4658L41.731 22.7945L41.5627 23.5616V23.8904L41.4506 24.7123L41.0579 25.9726L41.114 26.3562L41.0579 26.7397L41.0019 27.0685L40.8897 27.4521V27.8356L40.7775 28.4932L40.6653 28.9863L40.4971 29.4795L40.3849 29.9178L40.2166 30.5206L40.1606 30.9041L39.9923 31.5616L40.0484 31.8904L39.824 32.6027L39.768 32.9863L39.6558 33.4247L39.5997 33.8082L39.4314 34.6301L39.3754 35.0685V35.3973L39.2071 36.1644L38.9827 37.0411L38.8145 38.1918V38.6849L39.3193 38.9589L39.768 39.0685L40.2166 39.0137L40.6093 39.0685L41.2262 39.1233L41.6188 39.0685H42.0675L42.8527 39.1781H44.4792L44.8718 39.2329H46.3301L46.947 39.0685L47.1153 38.5753L47.1714 38.137L47.3396 37.4247L47.4518 36.6575L47.6201 35.9452L47.8444 34.6301L48.0127 34.0274V33.6438L48.1248 32.9315L48.237 32.1644L48.4053 31.3973V30.9589L48.6296 30.2466L48.6857 29.8082L48.854 28.9863L48.7979 28.3836L49.0783 27.8356V27.0685L49.1344 26.7945L49.2466 26.0822V25.6438L49.4709 24.8219V24.3836L49.6953 23.6164L49.8074 22.9589L50.0879 21.5343V21.0959L50.2561 20.3288L50.3683 19.9452L50.4244 19.2877L50.5927 18.3014L50.7609 17.7534L50.8731 17.0411V16.6575L50.9292 16.2192L50.9853 15.8356V15.3425L51.1535 14.8493L51.3218 14.0822L51.3779 13.8082L51.5461 13.0959L51.7144 12.4384L51.8266 11.726L51.8826 11.3425L51.9387 10.6849L51.9948 10.3014L52.107 9.64384L52.2192 9.31507L52.3313 8.71233L52.6118 7.28767L52.6679 6.95891V6.57534L52.7239 6.24658V5.80822L52.9483 5.31507L53.0605 4.54795L53.2287 4.27397V3.78082L53.397 3.56164L53.3409 3.23288L53.397 2.63014L53.5091 2.46575V1.75343L53.5652 1.42466L53.3409 0.876714L52.7239 0.712329L52.3313 0.767123H49.3587L48.9661 0.821917H48.1809L47.6762 0.767123L47.1153 0.821917L45.4327 0.712329L45.0401 0.767123L44.1988 0.821917L36.6832 0.657536L35.4493 0.712329H34.8884L34.4397 0.657536H34.0471L33.4863 0.547945H33.0937L32.7571 0.602742L31.4672 0.712329L30.9624 1.09589L30.9063 1.42466L30.738 1.75343L30.5698 2.41096L30.6819 2.79452L30.6259 3.12329L30.5698 3.83562L30.5137 4.16439L30.4015 4.49315L30.3454 5.20548L30.2333 5.58904L30.2893 5.91781L30.1211 6.30137V6.68493L29.9528 7.0137L29.8406 7.78082L29.6163 8.49315L29.5602 8.87671L29.6163 9.20548L29.5602 9.58904L29.448 10.0274L29.2237 10.3562L29.0554 11.5069L28.8872 11.8904L28.7189 13.4247L28.5507 14.2466L28.3824 15.0137L28.4385 15.3425L28.3263 15.726L28.1581 16.1644L27.9337 17.8082L27.7094 18.137L27.6533 18.9041L27.5972 19.3425L27.4289 19.726L27.3168 20.5479L27.0924 21.3151V22.137L26.7559 23.6712L26.6998 24.4932L26.6437 24.8767L26.4755 25.2603L26.3072 25.9726L26.3633 26.3014L26.1389 26.9589V27.2329L26.0268 27.9452L25.9146 28.3836V28.7671L25.8024 29.6438L25.5781 30.0822L25.4659 30.7945L25.4098 31.5616L25.3537 31.9452L25.2416 32.3836V32.7671L25.1294 33.1507V33.6438L24.9611 34.0822L24.905 34.9589L24.6807 35.7808L24.5685 36.6575L24.4563 37.4795L24.3442 37.9726L24.0637 38.5206L24.232 39.1233L24.7368 39.2329H25.1855L27.2607 39.1781H27.8215L28.2141 39.2329H28.6628L29.2798 39.3425Z" fill="#F2BA4C"/>
<path d="M66.1238 40L67.3577 39.8356L67.9746 39.6712L68.3672 39.6164L69.1525 39.4521L69.6012 39.3425L69.9938 39.2877L71.2838 38.7945L71.5081 38.6301L72.1811 38.1918L72.8542 37.6986L73.1346 37.3699L73.4711 37.0959L74.1442 36.4384L74.2563 36.1096L74.5368 35.7808L74.7611 35.4521L75.2659 34.7397L75.5463 34.3562L75.995 33.3699L76.3876 32.6027L76.4437 32.0548L76.7241 31.6712L76.8924 31.0685V30.6849L77.0607 30.0274L77.3411 29.4247L77.3972 28.8219L77.5654 28.4932L77.8459 27.8356L77.7898 27.5069L78.3506 25.589L78.5189 25.2603L78.6311 24.4932L78.7433 24.1096V23.6164L78.9115 22.6301L79.0798 22.3014L79.248 21.589L79.3041 20.9315L79.4724 20.2192L79.5845 19.5069L79.8089 18.7945L79.7528 18.137L80.0332 17.5342L79.9772 16.9863L80.0893 16.1096L80.2015 15.726L80.2576 14.8493L80.3137 14.0274L80.4258 13.2603L80.4819 12.9315V12.3836L80.4258 12L80.4819 11.6712L80.5941 11.2877L80.6502 10.5753V10.1918L80.5941 9.47945L80.6502 9.15068L80.7063 8.43836V8.0548L80.6502 7.61644L80.538 6.57534L80.3698 5.75343L80.2576 5.36986L80.1454 5.0411L79.9772 4.71233L79.6406 4L79.4724 3.61644L79.1919 3.28767L78.575 2.73973L77.958 2.24658L77.6776 1.91781L77.2289 1.64384L76.2194 0.986302L75.3781 0.602742L75.0415 0.493151L74.5928 0.438357L74.1442 0.273972L73.2468 0.164385L72.6298 0.109591L72.2933 0.0547938L71.2838 0L70.6107 0.0547938L69.8255 0.109591L68.8159 0.273972L68.2551 0.328769L67.4138 0.547945L67.0773 0.602742L66.236 0.821917L65.5629 1.15069L64.8899 1.53425L64.4973 1.80822L64.0486 1.9726L63.3195 2.46575L62.5343 3.28767L62.2538 3.61644L61.8612 3.89041L61.4125 4.54795L60.9638 5.26027L60.7395 5.58904L60.6834 5.9726L60.1786 6.68493L59.9543 7.06849L59.6178 7.72603L59.3373 8.49315L59.113 9.15068L58.9447 9.53425L58.6082 10.2466L58.496 10.9589L58.2156 11.3425L57.9912 12.7123L57.8791 13.4795L57.823 13.8082L57.6547 14.1918L57.5426 14.8493V15.6164L57.4304 16L57.0939 16.5479L57.1499 16.8767L57.0378 17.2603V17.589L56.9256 17.9726L56.7573 18.3014V18.6849L56.5891 19.3425V20.0548L56.4208 20.7123L56.2526 21.6986L56.1404 22.0822L56.0282 22.7945L56.1404 23.0685L55.9161 23.8356V24.2192L55.8039 24.9863V25.4247L55.5795 26.1918L55.4674 27.3973V27.7808L55.5234 28.2192L55.3552 28.7671V29.8082L55.243 30.1918L55.4113 31.2877L55.4674 31.6164L55.5234 32.3836L55.6356 32.7123L55.6917 33.0959L55.8039 33.4247L55.9161 33.6986L55.9721 34.0274L56.1404 34.411V34.7397L56.5891 35.4521L56.8695 35.8356L57.0378 36.1644L57.3182 36.4384L57.4865 36.7123L58.2717 37.589L59.2812 38.411L60.0664 38.9041L60.4591 39.1233L61.3004 39.3425L61.749 39.3973L63.039 39.7808L63.5438 39.8356L63.9364 39.8904L64.6655 39.8356L66.1238 40ZM65.6751 32.548L65.3386 32.4932L64.8899 32.3836L64.4412 32.2192L64.1608 31.9452L63.8242 31.4521L63.7121 31.2329L63.5438 30.8493V29.3151L63.3755 28.9315L63.5999 28.3836L63.656 27.726L63.4877 27.3425L63.656 26.9589V26.5753L63.8242 25.7534V25.3151L63.9364 24.9315V24.4932L64.0486 24L63.9925 23.7808L64.1047 23.3973L64.0486 22.9589L64.329 22.1918L64.4973 21.8082L64.4412 21.3699L64.4973 20.9863V20.6027L64.6095 19.8356L64.7216 19.4521L64.946 18.5753L65.1142 18.137L65.2264 17.3151L65.3386 16.9315L65.3947 16.5479L65.5629 15.6712L65.7312 14.9041L65.9555 14.137L66.0116 13.8082L66.1799 13.0411L66.236 12.6027V12.4932L66.5725 11.3425L66.6847 10.9041L66.7968 10.5205L67.1333 9.80822L67.3577 9.42466L67.582 8.76713L67.9746 8.16439L68.5355 7.67124L69.4329 7.34247L69.8816 7.23288L70.9472 7.17808L71.8446 7.56164L72.2372 8.0548L72.4616 8.38356L72.6859 9.47945L72.5737 10.2466L72.5177 10.9589L72.4055 11.9452V12.6575L72.2933 13.1507L72.125 13.9178L72.0129 14.3562L71.9568 15.0685L72.0129 15.4521L71.9007 15.8356L71.7885 16.274L71.6764 16.9315L71.452 17.7534L71.5081 18.6849L71.3398 19.0137L71.2277 20.0548L71.0594 20.4932L70.8911 20.9863L70.779 22.2466L70.6107 23.0685L70.4425 23.5616L70.4985 23.726V24.1644L70.3303 24.4932L70.2742 24.9315L70.1059 25.6438L69.9377 26.0274L69.8816 26.7945L69.7133 27.2329L69.6012 28L69.489 28.3836L69.3207 29.2055V29.6438L69.2085 30.0274L68.872 30.7945L68.4794 31.5616L67.6942 32.1096L67.1894 32.3288L66.4042 32.548H65.6751Z" fill="#F2BA4C"/>
<path d="M84.8484 39.1781H89.3353L89.7279 39.1233L89.8961 38.4658L89.9522 38.0274L90.0083 37.5343L90.1766 37.0959L90.2327 36.7123L90.3448 36.3836L90.4009 36V35.5616L90.6253 35.2329V34.4658L90.7935 33.6438V33.0959L90.9618 32.7123L91.0179 32.3288L91.1861 31.6712L91.2983 31.2877L91.4105 30.6301L91.5787 30.137L91.747 29.3699V29.0411L91.8031 28.6575L91.9153 28.3288L91.9713 27.9452L92.0274 27.6164L92.0835 26.9041L92.1957 26.6301L92.2518 25.9178L92.42 25.4795L92.4761 25.0959V24.9863L93.3174 25.0411H94.5513L95.617 25.0959L97.1874 24.9863L97.9726 24.8767L98.7017 24.8219L99.3748 24.7123L100.272 24.4384L101.001 24.1096L101.562 23.9452L102.347 23.5616L102.628 23.2329L103.357 22.6849L103.637 22.3014L104.03 21.7534L104.535 21.3151L104.927 20.6575L105.264 20.3288L105.769 19.5069L106.161 18.8493L106.442 18.2466L106.89 17.2055L107.171 16.4384L107.339 16L107.507 15.2329L107.619 14.9041L107.676 14.5753L107.844 14.1918L107.9 13.7534L108.068 13.3699L108.18 12.6027L108.293 11.3973L108.349 11.0137L108.461 10.411L108.517 9.80822L108.461 9.20548V8.82192L108.405 8L108.461 7.45206L108.293 6.84932L108.236 6.46575L108.18 5.86301L107.956 5.26027L107.844 4.87671L107.507 4.16439L107.339 3.72603L107.003 3.34247L106.666 2.90411L106.442 2.63014L105.937 2.19178L105.208 1.80822L104.815 1.64384L104.423 1.36986L104.03 1.26027L103.133 1.09589L101.955 0.931508L101.226 0.821917H100.777L99.9356 0.712329H99.1504L98.3091 0.767123L97.9165 0.712329H94.1587L93.8222 0.767123L93.0931 0.712329L92.364 0.767123H89.4474L88.9988 0.986302L88.7744 1.69863L88.7183 2.13699L88.5501 2.90411L88.494 3.34247L88.4379 3.72603L88.2136 4.60274L88.1014 4.9863V5.31507L88.0453 5.69863L87.9331 6.08219V6.52055L87.8209 6.90411L87.7649 7.56164L87.5966 8.0548L87.4283 8.82192L87.3162 9.26028L87.2601 10.2466L87.204 10.5753L87.0357 11.2877L87.0918 11.5069L87.0357 12.1096L86.8114 12.9863L86.7553 13.3151L86.6992 14.0274L86.531 14.411L86.4188 14.7945L86.3627 15.5069V16.1644L86.1944 16.8767L86.0262 17.7534L85.914 18.5753L85.8579 19.0137L85.6897 19.7808L85.6336 20.1096L85.5214 20.4932L85.4653 20.8219L85.3531 21.2055L85.2971 21.9726L85.241 22.411L85.0727 22.7945L84.9044 23.9452L84.8484 24.7671L84.6801 25.0959V25.4795L84.5679 25.8082V26.411L84.2875 26.9589V27.2329L84.2314 27.8904L84.1753 28.2192L83.951 28.9315L83.8388 29.2603L83.7827 29.6438L83.7266 30.3562L83.5584 30.6849L83.334 31.9452L83.2779 32.274L83.2218 32.6575L83.0536 33.3151L82.9975 33.6986L82.8292 34.411L82.661 35.2329L82.4927 36V36.3288L82.3245 37.0959L82.3806 37.4795L82.2123 37.8082V38.8493L82.5488 39.1233L83.5584 39.0685L83.951 39.1233L84.8484 39.1781ZM93.6539 18.0822L93.71 17.589L93.8783 16.8219V16.3288L94.1587 14.9589L94.2709 14.4658V14.0274L94.327 13.3699L94.4952 12.4932L94.6074 11.9452L94.7757 10.8493L94.9439 10.1918L95.0561 9.80822L95.1683 8.87671L95.2244 8.32877L95.3365 8.0548L95.617 7.39726L96.0096 7.28767L97.2996 7.23288L98.8139 7.28767L99.3187 7.39726L99.9356 7.83562L100.272 8.32877L100.496 8.9863V9.91781L100.384 11.3425L100.16 12.8767L99.9356 13.8082L99.7113 14.3014L99.5991 14.7945L99.3187 15.5616L99.0943 15.8904L98.7017 16.4932L98.0848 17.0411L97.1874 17.6986L96.7948 17.863L95.7291 17.9726L95.1122 18.0822H93.6539Z" fill="#F2BA4C"/>
<path d="M113.982 39.2877L114.655 39.1233H119.534L120.207 38.8493L120.32 38.5206L120.488 37.7534L120.6 36.9863L120.936 35.4521L121.217 34.2466L121.161 33.8082L121.329 33.0411L121.441 32.6027L121.722 31.4521L121.89 30.7397L121.946 30.3562L122.17 29.6438L122.339 28.7671L122.507 28L122.451 27.6164L122.507 27.2877L122.563 26.9041L122.787 26.2466L122.843 25.863L122.956 25.5342L123.012 25.2055V24.6575L123.124 24.1644L123.292 23.3425L123.46 22.5753V22.2466L123.573 21.9178L123.629 21.1507L123.853 20.7671L124.021 20.1096L124.077 19.3973V19.0137L124.246 18.6849L124.414 17.9178L124.526 17.5342L124.638 16.7123L124.919 16.0548V15.6712L124.975 15.3425L125.031 14.6849V14.3562L125.255 13.6438L125.536 12.8767L125.423 12.6027L125.648 12.1644L125.872 11.1781L125.928 10.7945L126.04 10.0822L126.153 9.75343V9.42466L126.321 9.0411L126.265 8.71233L126.377 8.32877L126.882 8.27397L129.237 8.32877H129.798L130.303 8.27397H130.976L131.481 8.32877L132.042 8.27397L132.266 7.78082L132.322 7.0137L132.434 6.63014L132.659 5.91781L132.715 5.26027L132.771 4.93151L132.883 4.54795L132.995 3.89041V3.56164L133.107 3.17808L133.163 2.84931V2.46575L133.276 2.0274L133.332 1.64384V1.31507L133.219 0.876714L132.715 0.767123L131.929 0.712329H128.452L127.947 0.657536L126.77 0.712329L125.928 0.657536L122.339 0.712329H121.105L120.712 0.657536H116.562L116.169 0.712329H115.777L115.496 0.657536H114.038L113.645 0.712329L113.14 1.09589L112.86 1.69863L112.804 2.0274V2.79452L112.636 3.12329L112.411 3.83562L112.355 4.60274L112.243 4.93151L112.019 5.69863L112.075 6.08219V6.52055L111.907 6.95891L111.794 7.61644L111.963 8.10959L112.467 8.27397H112.916L113.477 8.32877H113.982L114.374 8.27397L115.16 8.32877H118.188L118.132 9.20548L118.02 10.0274L117.908 10.411L117.74 11.1233V11.4521L117.683 11.8356V12.1644L117.627 12.4932L117.347 13.3699L117.235 13.7534L117.179 14.137V14.5753L117.067 14.8493V15.3973L116.786 16L116.842 16.3836L116.674 17.2055L116.562 17.5342V17.9178L116.337 18.2466L116.225 18.6301V19.1233L116.057 19.6712V20.4384L115.945 20.7671L115.664 21.4247L115.777 21.8082L115.664 22.1918L115.44 23.0137L115.16 23.7808L115.047 24.1644L114.991 24.5479L115.104 25.0959L114.823 25.6438L114.767 26.411L114.655 26.7397L114.543 27.4521L114.487 27.8356L114.374 28.2192L114.206 29.0411L114.038 29.6986V30.137L113.757 31.2877L113.814 31.726L113.757 32.1096L113.477 32.8767V33.2603L113.421 34.0274L113.309 34.3562L113.253 35.1781L113.14 35.5616L112.748 36.7123L112.692 37.863L112.58 38.6849L113.084 39.1233H113.477L113.982 39.2877Z" fill="#F2BA4C"/>
<path d="M133.957 39.1781H138.444L138.836 39.1233L139.005 38.4658L139.061 38.0274L139.117 37.5343L139.285 37.0959L139.341 36.7123L139.453 36.3836L139.509 36V35.5616L139.734 35.2329V34.4658L139.902 33.6438V33.0959L140.07 32.7123L140.126 32.3288L140.295 31.6712L140.407 31.2877L140.519 30.6301L140.687 30.137L140.856 29.3699V29.0411L140.912 28.6575L141.024 28.3288L141.08 27.9452L141.136 27.6164L141.192 26.9041L141.304 26.6301L141.36 25.9178L141.529 25.4795L141.585 25.0959V24.9863L142.426 25.0411H143.66L144.726 25.0959L146.296 24.9863L147.081 24.8767L147.81 24.8219L148.483 24.7123L149.381 24.4384L150.11 24.1096L150.671 23.9452L151.456 23.5616L151.736 23.2329L152.465 22.6849L152.746 22.3014L153.138 21.7534L153.643 21.3151L154.036 20.6575L154.372 20.3288L154.877 19.5069L155.27 18.8493L155.55 18.2466L155.999 17.2055L156.279 16.4384L156.448 16L156.616 15.2329L156.728 14.9041L156.784 14.5753L156.952 14.1918L157.008 13.7534L157.177 13.3699L157.289 12.6027L157.401 11.3973L157.457 11.0137L157.569 10.411L157.625 9.80822L157.569 9.20548V8.82192L157.513 8L157.569 7.45206L157.401 6.84932L157.345 6.46575L157.289 5.86301L157.065 5.26027L156.952 4.87671L156.616 4.16439L156.448 3.72603L156.111 3.34247L155.775 2.90411L155.55 2.63014L155.045 2.19178L154.316 1.80822L153.924 1.64384L153.531 1.36986L153.138 1.26027L152.241 1.09589L151.063 0.931508L150.334 0.821917H149.885L149.044 0.712329H148.259L147.418 0.767123L147.025 0.712329H143.267L142.931 0.767123L142.202 0.712329L141.472 0.767123H138.556L138.107 0.986302L137.883 1.69863L137.827 2.13699L137.659 2.90411L137.603 3.34247L137.546 3.72603L137.322 4.60274L137.21 4.9863V5.31507L137.154 5.69863L137.042 6.08219V6.52055L136.929 6.90411L136.873 7.56164L136.705 8.0548L136.537 8.82192L136.425 9.26028L136.369 10.2466L136.313 10.5753L136.144 11.2877L136.2 11.5069L136.144 12.1096L135.92 12.9863L135.864 13.3151L135.808 14.0274L135.639 14.411L135.527 14.7945L135.471 15.5069V16.1644L135.303 16.8767L135.135 17.7534L135.023 18.5753L134.966 19.0137L134.798 19.7808L134.742 20.1096L134.63 20.4932L134.574 20.8219L134.462 21.2055L134.406 21.9726L134.35 22.411L134.181 22.7945L134.013 23.9452L133.957 24.7671L133.789 25.0959V25.4795L133.676 25.8082V26.411L133.396 26.9589V27.2329L133.34 27.8904L133.284 28.2192L133.06 28.9315L132.947 29.2603L132.891 29.6438L132.835 30.3562L132.667 30.6849L132.443 31.9452L132.386 32.274L132.33 32.6575L132.162 33.3151L132.106 33.6986L131.938 34.411L131.77 35.2329L131.601 36V36.3288L131.433 37.0959L131.489 37.4795L131.321 37.8082V38.8493L131.657 39.1233L132.667 39.0685L133.06 39.1233L133.957 39.1781ZM142.762 18.0822L142.819 17.589L142.987 16.8219V16.3288L143.267 14.9589L143.379 14.4658V14.0274L143.436 13.3699L143.604 12.4932L143.716 11.9452L143.884 10.8493L144.052 10.1918L144.165 9.80822L144.277 8.87671L144.333 8.32877L144.445 8.0548L144.726 7.39726L145.118 7.28767L146.408 7.23288L147.922 7.28767L148.427 7.39726L149.044 7.83562L149.381 8.32877L149.605 8.9863V9.91781L149.493 11.3425L149.269 12.8767L149.044 13.8082L148.82 14.3014L148.708 14.7945L148.427 15.5616L148.203 15.8904L147.81 16.4932L147.193 17.0411L146.296 17.6986L145.903 17.863L144.838 17.9726L144.221 18.0822H142.762Z" fill="#F2BA4C"/>
<path d="M164.216 39.1781L164.665 39.1233L165.562 39.0685H166.74L167.076 39.0137L167.806 39.0685L168.703 39.0137H174.031L174.199 38.411L174.312 37.9178L174.368 36.9863L174.536 36.1644L174.592 35.7808L174.704 35.4521L174.816 35.0685V34.3562L175.041 33.1507L175.097 32.7123L175.209 32.1096L175.265 31.8904L175.321 31.4521L174.929 31.2877L173.358 31.3425L172.124 31.2877L171.339 31.2329H168.03L167.245 31.1233L167.02 30.9041V30.4658L167.245 29.0411L167.413 28.0548L167.525 27.6712L167.581 27.1233L167.693 26.6301L167.862 26.0822L168.086 24.5479L168.254 23.8356L168.479 23.2329H168.983L169.712 23.1781H170.329L171.283 23.2329L172.685 23.1781H173.19L174.031 23.1233H174.592L174.704 23.0137L174.816 22.2466L174.985 21.3699L175.097 20.6027L175.265 20.1644V19.7808L175.433 18.9589L175.545 18.5753L175.714 17.8082L175.826 17.2055V16.7671L175.938 16.1096L175.602 15.6712L175.153 15.5616H173.695L172.629 15.6712L170.666 15.6164H169.656L169.769 14.6301L169.937 14.0822L169.881 13.6438L169.993 13.2603L170.161 12.4932L170.273 11.726L170.442 10.6849V10.2466L170.61 9.91781V9.15068L170.666 8.76713L170.834 8.10959L172.18 8.0548H175.826L176.499 8H178.855L179.415 7.94521L179.584 7.23288L179.64 6.90411L179.864 6.13699V5.69863L180.032 4.87671L180.088 4.54795L180.145 4.16439L180.313 3.78082V3.45206L180.425 2.08219V1.75343L180.593 1.15069L180.313 0.767123L179.808 0.712329L179.247 0.657536L178.742 0.712329H177.509L175.882 0.767123L175.433 0.712329L174.143 0.657536L169.937 0.712329L168.703 0.767123H168.142L167.693 0.712329H167.301L166.628 0.767123L166.235 0.712329L165.899 0.767123H164.945L164.496 1.09589L164.44 1.42466L164.272 1.75343L164.104 2.41096L164.216 2.79452L164.16 3.12329L164.104 3.83562L164.048 4.16439L163.936 4.49315L163.879 5.20548L163.767 5.58904L163.823 5.91781L163.655 6.30137V6.68493L163.487 7.0137L163.375 7.78082L163.15 8.49315L163.094 8.87671L163.15 9.20548L163.094 9.58904L162.982 10.0274L162.758 10.3562L162.702 11.5069L162.533 11.8904L162.477 13.4247L162.253 14.2466L162.085 15.0137L162.141 15.3425L162.029 15.726L161.86 16.1644L161.524 17.8082L161.3 18.137V18.5205L161.243 18.9041L161.187 19.3425L161.019 19.726L160.907 20.5479L160.683 21.3151V22.137L160.458 23.2877L160.346 23.6712L160.178 24.4932L160.122 24.8767L159.953 25.2603L159.785 25.9726L159.841 26.3014L159.617 26.9589V27.2329L159.505 27.9452L159.393 28.3836V28.7671L159.28 29.6438L159.056 30.0822L158.944 30.7945L158.888 31.5616L158.832 31.9452L158.72 32.3836V32.7671L158.607 33.1507V33.6438L158.439 34.0822L158.383 34.9589L158.159 35.7808L158.046 36.6575L157.934 37.4795L157.822 37.9726L157.654 38.4658L157.822 38.9589L158.327 39.0685H161.3L161.692 39.1233H163.15L164.216 39.1781Z" fill="#F2BA4C"/>
<path d="M189.988 39.7808L190.549 39.6712L191.278 39.6164H192.119L192.848 39.4521L193.521 39.3425L194.194 39.1781L195.652 38.8493L196.045 38.6849L196.942 38.137L197.784 37.4247L198.625 36.4384L198.737 36.1096L198.906 35.7808L199.186 35.4521L199.41 35.1233L199.579 34.7397L199.859 34.0822L200.195 33.2055L200.364 32.8767L200.476 32.4932L200.532 32.1096L200.7 31.4521L201.037 30.0822L201.149 29.7534L201.317 28.6027L201.373 28.3836L201.429 28L201.542 27.726L201.598 27.1233L201.71 26.411V26.0274L201.822 25.6986V25.0959L201.598 24.7123L201.205 24.3288L200.532 24.274L197.784 24.1096H196.606L195.148 24.0548L194.699 24.1096L194.306 24.5479L194.194 25.0959L193.914 25.8082L193.858 26.1918L193.746 26.6849L193.577 27.5069L193.409 28.1644L193.353 28.4384L193.297 28.7671L193.073 29.4795L192.792 30.2466L192.343 31.2329L192.119 31.5069L191.334 32H190.493L189.595 32.1096L188.754 31.8356L188.305 31.4521L188.081 30.6301V30.2466L188.025 29.9178V29.3699L188.081 28.6027L188.249 27.8356V27.3973L188.417 26.2466L188.361 25.863L188.473 25.4795L188.53 25.0959V24.6575L188.586 24.274L188.754 23.8904V22.7397L188.922 21.9178L189.034 21.4795L189.146 20.7671L189.203 20.3836L189.427 19.5069L189.483 19.0685L189.932 16.8767L190.212 16.0548L190.324 15.2877L190.436 14.9041L190.493 14.5753L190.549 14.1918L190.717 13.6986L190.885 13.0411L191.053 12.2192L191.278 11.5616V11.2329L191.614 10.3014L191.895 9.58904L192.119 8.65753L192.287 8.27397L192.456 7.94521L192.96 7.34247L193.577 7.12329L194.25 7.0137H194.867L195.652 7.23288L196.269 7.56164L196.606 8.54795V9.36986L196.494 10.137L196.438 10.8493L196.101 12.0548L195.989 12.8219L195.765 13.8082L195.652 14.1918V14.9589L196.045 15.5616L197.672 15.7808L201.205 15.8356L201.99 15.7808L202.663 15.726L202.888 15.5069L203.168 14.0822L203.28 13.6438L203.617 11.5069L203.729 10.6301L203.841 9.80822L203.953 9.36986L204.009 8.82192V7.61644L203.953 6.79452L203.897 6.30137L203.841 5.58904L203.785 4.93151L203.673 4.32877L203.392 3.78082L203.28 3.39726L203.112 3.12329L202.832 2.63014L202.719 2.35617L202.102 1.80822L201.373 1.26027L200.588 0.986302L199.971 0.876714L199.747 0.712329L199.354 0.657536L198.962 0.547945L198.625 0.493151L197.84 0.383563H197.279L196.774 0.219179L195.372 0.0547938H194.475L193.409 0.109591H192.568L192.175 0.164385L191.446 0.328769L190.493 0.493151L189.315 0.986302L188.978 1.15069L188.249 1.47945L187.913 1.75343L187.127 2.52055L186.679 3.06849L186.286 3.61644L185.893 3.94521L185.669 4.54795L185.333 5.31507L185.052 5.9726L184.716 6.90411L184.491 7.67124L184.155 8.76713L183.762 9.86301L183.594 10.5753L183.426 10.9589L183.37 11.3425L183.313 11.6712L183.201 12.0548L183.145 12.4384L182.977 12.7671L182.921 13.3151L182.809 13.9178L182.697 14.3014L182.416 15.3973V16.1644L182.248 16.4932V16.8219L182.192 17.4795L182.023 18.0274L181.911 18.6301L181.743 19.2329V19.4521L181.687 19.6164V20.3836L181.463 20.7123L181.294 21.6986L181.35 21.9726L181.182 22.5753L181.07 23.0137L181.126 23.5069L180.902 24.274L180.79 25.4247L180.733 25.7534V26.137L180.621 26.9041L180.565 27.6712L180.509 28.1096L180.453 29.2603V30.6849L180.397 31.0685V31.5616L180.453 32V33.0411L180.565 33.4247L180.677 34.137L180.79 34.4658L180.958 35.1781L181.463 35.8904L181.855 36.6575L182.136 36.9315L182.36 37.2055L183.089 37.7534L183.426 37.9726L183.706 38.1918L184.267 38.5206L184.603 38.7945L185.276 39.0137L186.006 39.2877L186.342 39.3425L186.735 39.4521L187.296 39.5069L187.632 39.5616L188.081 39.6164L188.698 39.6712L189.09 39.726H189.483L189.988 39.7808Z" fill="#F2BA4C"/>
<path d="M209.299 39.2329L209.691 39.1781H210.028L210.813 39.2329L211.822 39.1233L212.047 39.1781L212.608 39.2329L213.954 39.1233L215.019 36.9863L215.412 36.3836L215.636 36.0548L215.861 35.3973L216.309 34.6849L216.478 34.3562L217.151 32.9315L217.207 32.6575L217.263 32.274L217.599 31.7808L217.712 31.4521L218.048 30.7945L218.385 30.0822L218.777 29.4247L219.058 28.7671L219.618 27.1233L220.011 26.5205L220.348 25.9726L220.46 25.589L220.965 24.6027L221.133 24.3836L221.245 24.1096L221.413 23.6712L221.638 23.3973L221.806 22.7397L222.198 22.0822L222.479 21.7534L222.535 21.4795L222.759 21.1507L222.984 20.3836L223.376 19.726L223.769 18.8493L223.881 18.5753L224.049 18.3014L224.218 17.589L224.442 17.2055L224.666 16.8767L225.115 16.1644L225.171 15.8356L225.452 15.5069L225.564 15.2329L225.9 14.2466L226.293 13.7534L226.461 13.0959L227.19 11.6164L227.246 11.2877L227.695 10.6301L227.975 9.86301L228.2 9.53425L228.592 8.49315L228.705 8.16439L228.929 7.83562L229.041 7.50685L229.378 6.90411L229.602 6.24658L229.826 5.9726L230.051 5.31507L230.107 4.93151L230.499 4.27397L230.724 3.61644L231.116 3.0137L231.228 2.73973L231.621 1.91781L231.565 0.986302L230.836 0.767123L229.602 0.821917L228.929 0.767123H227.471L226.573 0.876714L225.732 0.767123H224.891L224.498 0.712329L223.993 0.821917L223.769 1.36986L223.32 2.30137L223.152 2.63014L222.928 3.28767L222.703 3.67123L222.535 4.05479L222.03 5.15069L221.974 5.53425L221.862 5.86301L221.357 7.0137L221.189 7.34247L220.796 8.0548L220.348 9.31507L219.955 9.86301L219.675 10.5205L219.226 11.2877L219.17 11.6164L218.945 12L218.721 12.6027L218.497 12.8767L218.385 13.2055L216.814 17.0959L216.422 17.6986L216.365 15.8904L216.309 14.4658V12.9315L216.197 11.4521V11.1233L216.085 10.411L215.973 9.9726L215.861 7.72603L215.805 7.39726L215.636 6.63014V5.86301L215.412 5.20548L215.468 4.54795L215.244 3.28767L215.076 2.52055V1.80822L214.963 1.0411L214.515 0.821917H214.122L213.842 0.767123L213 0.821917L212.159 0.767123L211.43 0.821917L211.093 0.767123L210.589 0.821917L209.916 0.767123H207.896L207.56 0.986302L207.448 1.80822V2.13699L207.616 2.84931L207.84 3.67123L207.896 4.21918L207.84 4.76712L207.953 5.0411L208.009 5.80822L208.121 6.30137V6.73973L208.177 7.12329V8.38356L208.513 9.20548L208.457 9.80822L208.626 10.2466L208.738 10.9041L208.906 11.2877L209.074 12.3836L209.018 13.0959L209.242 13.7534L209.299 14.4658V14.7397L209.523 15.5069L209.691 16.0548L209.803 16.9863L209.859 17.4247L210.028 18.5205L210.252 19.7808L210.42 20.7671L210.701 21.8082L210.813 23.4521L211.206 24.9863L211.262 26.0822L211.598 27.3973L211.71 28.0548L211.542 28.4932L211.262 28.7671L210.925 29.589L210.645 30.137L210.14 31.1781L209.859 31.6164L209.691 32L209.523 32.4384L209.355 32.7671L209.13 33.1507L208.794 34.0274L208.065 35.1781L207.167 37.1507L206.606 38.3562L206.831 39.1233L208.177 39.0685L208.569 39.1781L209.299 39.2329Z" fill="#F2BA4C"/>
<path d="M231.572 39.1781H236.058L236.451 39.1233L236.619 38.4658L236.675 38.0274L236.731 37.5343L236.9 37.0959L236.956 36.7123L237.068 36.3836L237.124 36V35.5616L237.348 35.2329V34.4658L237.517 33.6438V33.0959L237.685 32.7123L237.741 32.3288L237.909 31.6712L238.021 31.2877L238.134 30.6301L238.302 30.137L238.47 29.3699V29.0411L238.526 28.6575L238.638 28.3288L238.695 27.9452L238.751 27.6164L238.807 26.9041L238.919 26.6301L238.975 25.9178L239.143 25.4795L239.199 25.0959V24.9863L240.041 25.0411H241.274L242.34 25.0959L243.911 24.9863L244.696 24.8767L245.425 24.8219L246.098 24.7123L246.995 24.4384L247.724 24.1096L248.285 23.9452L249.07 23.5616L249.351 23.2329L250.08 22.6849L250.361 22.3014L250.753 21.7534L251.258 21.3151L251.65 20.6575L251.987 20.3288L252.492 19.5069L252.884 18.8493L253.165 18.2466L253.614 17.2055L253.894 16.4384L254.062 16L254.23 15.2329L254.343 14.9041L254.399 14.5753L254.567 14.1918L254.623 13.7534L254.791 13.3699L254.904 12.6027L255.016 11.3973L255.072 11.0137L255.184 10.411L255.24 9.80822L255.184 9.20548V8.82192L255.128 8L255.184 7.45206L255.016 6.84932L254.96 6.46575L254.904 5.86301L254.679 5.26027L254.567 4.87671L254.23 4.16439L254.062 3.72603L253.726 3.34247L253.389 2.90411L253.165 2.63014L252.66 2.19178L251.931 1.80822L251.538 1.64384L251.146 1.36986L250.753 1.26027L249.856 1.09589L248.678 0.931508L247.949 0.821917H247.5L246.659 0.712329H245.874L245.032 0.767123L244.64 0.712329H240.882L240.545 0.767123L239.816 0.712329L239.087 0.767123H236.171L235.722 0.986302L235.498 1.69863L235.441 2.13699L235.273 2.90411L235.217 3.34247L235.161 3.72603L234.937 4.60274L234.825 4.9863V5.31507L234.768 5.69863L234.656 6.08219V6.52055L234.544 6.90411L234.488 7.56164L234.32 8.0548L234.152 8.82192L234.039 9.26028L233.983 10.2466L233.927 10.5753L233.759 11.2877L233.815 11.5069L233.759 12.1096L233.535 12.9863L233.478 13.3151L233.422 14.0274L233.254 14.411L233.142 14.7945L233.086 15.5069V16.1644L232.918 16.8767L232.749 17.7534L232.637 18.5753L232.581 19.0137L232.413 19.7808L232.357 20.1096L232.245 20.4932L232.189 20.8219L232.076 21.2055L232.02 21.9726L231.964 22.411L231.796 22.7945L231.628 23.9452L231.572 24.7671L231.403 25.0959V25.4795L231.291 25.8082V26.411L231.011 26.9589V27.2329L230.955 27.8904L230.898 28.2192L230.674 28.9315L230.562 29.2603L230.506 29.6438L230.45 30.3562L230.282 30.6849L230.057 31.9452L230.001 32.274L229.945 32.6575L229.777 33.3151L229.721 33.6986L229.552 34.411L229.384 35.2329L229.216 36V36.3288L229.048 37.0959L229.104 37.4795L228.935 37.8082V38.8493L229.272 39.1233L230.282 39.0685L230.674 39.1233L231.572 39.1781ZM240.377 18.0822L240.433 17.589L240.601 16.8219V16.3288L240.882 14.9589L240.994 14.4658V14.0274L241.05 13.3699L241.218 12.4932L241.331 11.9452L241.499 10.8493L241.667 10.1918L241.779 9.80822L241.891 8.87671L241.948 8.32877L242.06 8.0548L242.34 7.39726L242.733 7.28767L244.023 7.23288L245.537 7.28767L246.042 7.39726L246.659 7.83562L246.995 8.32877L247.22 8.9863V9.91781L247.107 11.3425L246.883 12.8767L246.659 13.8082L246.434 14.3014L246.322 14.7945L246.042 15.5616L245.817 15.8904L245.425 16.4932L244.808 17.0411L243.911 17.6986L243.518 17.863L242.452 17.9726L241.835 18.0822H240.377Z" fill="#F2BA4C"/>
<path d="M265.978 39.7808L266.539 39.6712L267.268 39.6164H268.11L268.839 39.4521L269.512 39.3425L270.185 39.1781L271.643 38.8493L272.036 38.6849L272.933 38.137L273.774 37.4247L274.616 36.4384L274.728 36.1096L274.896 35.7808L275.177 35.4521L275.401 35.1233L275.569 34.7397L275.85 34.0822L276.186 33.2055L276.354 32.8767L276.467 32.4932L276.523 32.1096L276.691 31.4521L277.027 30.0822L277.14 29.7534L277.308 28.6027L277.364 28.3836L277.42 28L277.532 27.726L277.588 27.1233L277.7 26.411V26.0274L277.813 25.6986V25.0959L277.588 24.7123L277.196 24.3288L276.523 24.274L273.774 24.1096H272.597L271.138 24.0548L270.69 24.1096L270.297 24.5479L270.185 25.0959L269.904 25.8082L269.848 26.1918L269.736 26.6849L269.568 27.5069L269.4 28.1644L269.344 28.4384L269.287 28.7671L269.063 29.4795L268.783 30.2466L268.334 31.2329L268.11 31.5069L267.324 32H266.483L265.586 32.1096L264.745 31.8356L264.296 31.4521L264.071 30.6301V30.2466L264.015 29.9178V29.3699L264.071 28.6027L264.24 27.8356V27.3973L264.408 26.2466L264.352 25.863L264.464 25.4795L264.52 25.0959V24.6575L264.576 24.274L264.745 23.8904V22.7397L264.913 21.9178L265.025 21.4795L265.137 20.7671L265.193 20.3836L265.418 19.5069L265.474 19.0685L265.922 16.8767L266.203 16.0548L266.315 15.2877L266.427 14.9041L266.483 14.5753L266.539 14.1918L266.708 13.6986L266.876 13.0411L267.044 12.2192L267.268 11.5616V11.2329L267.605 10.3014L267.885 9.58904L268.11 8.65753L268.278 8.27397L268.446 7.94521L268.951 7.34247L269.568 7.12329L270.241 7.0137H270.858L271.643 7.23288L272.26 7.56164L272.597 8.54795V9.36986L272.484 10.137L272.428 10.8493L272.092 12.0548L271.98 12.8219L271.755 13.8082L271.643 14.1918V14.9589L272.036 15.5616L273.662 15.7808L277.196 15.8356L277.981 15.7808L278.654 15.726L278.878 15.5069L279.159 14.0822L279.271 13.6438L279.607 11.5069L279.72 10.6301L279.832 9.80822L279.944 9.36986L280 8.82192V7.61644L279.944 6.79452L279.888 6.30137L279.832 5.58904L279.776 4.93151L279.664 4.32877L279.383 3.78082L279.271 3.39726L279.103 3.12329L278.822 2.63014L278.71 2.35617L278.093 1.80822L277.364 1.26027L276.579 0.986302L275.962 0.876714L275.737 0.712329L275.345 0.657536L274.952 0.547945L274.616 0.493151L273.831 0.383563H273.27L272.765 0.219179L271.363 0.0547938H270.465L269.4 0.109591H268.558L268.166 0.164385L267.437 0.328769L266.483 0.493151L265.305 0.986302L264.969 1.15069L264.24 1.47945L263.903 1.75343L263.118 2.52055L262.669 3.06849L262.277 3.61644L261.884 3.94521L261.66 4.54795L261.323 5.31507L261.043 5.9726L260.706 6.90411L260.482 7.67124L260.145 8.76713L259.753 9.86301L259.585 10.5753L259.416 10.9589L259.36 11.3425L259.304 11.6712L259.192 12.0548L259.136 12.4384L258.968 12.7671L258.911 13.3151L258.799 13.9178L258.687 14.3014L258.407 15.3973V16.1644L258.238 16.4932V16.8219L258.182 17.4795L258.014 18.0274L257.902 18.6301L257.734 19.2329V19.4521L257.678 19.6164V20.3836L257.453 20.7123L257.285 21.6986L257.341 21.9726L257.173 22.5753L257.061 23.0137L257.117 23.5069L256.892 24.274L256.78 25.4247L256.724 25.7534V26.137L256.612 26.9041L256.556 27.6712L256.5 28.1096L256.444 29.2603V30.6849L256.388 31.0685V31.5616L256.444 32V33.0411L256.556 33.4247L256.668 34.137L256.78 34.4658L256.948 35.1781L257.453 35.8904L257.846 36.6575L258.126 36.9315L258.351 37.2055L259.08 37.7534L259.416 37.9726L259.697 38.1918L260.258 38.5206L260.594 38.7945L261.267 39.0137L261.996 39.2877L262.333 39.3425L262.725 39.4521L263.286 39.5069L263.623 39.5616L264.071 39.6164L264.688 39.6712L265.081 39.726H265.474L265.978 39.7808Z" fill="#F2BA4C"/>
</svg>
