<svg width="32" height="32" viewBox="0 0 32 32" fill="none" xmlns="http://www.w3.org/2000/svg">
<path d="M28.6776 0H4.311C2.47658 0 0.988281 1.50261 0.988281 3.35467V27.9556C0.988281 29.8076 2.47658 31.3102 4.311 31.3102H28.6776C30.512 31.3102 32.0003 29.8076 32.0003 27.9556V3.35467C32.0003 1.50261 30.512 0 28.6776 0ZM25.2926 11.0984C25.3064 11.2941 25.3064 11.4967 25.3064 11.6924C25.3064 17.7518 20.7377 24.7337 12.3894 24.7337C9.81425 24.7337 7.42605 23.9789 5.41857 22.679C5.78546 22.7209 6.1385 22.7349 6.5123 22.7349C8.63746 22.7349 10.5896 22.008 12.1471 20.778C10.1534 20.736 8.47824 19.4151 7.90369 17.598C8.60285 17.7029 9.23278 17.7029 9.9527 17.5142C7.876 17.0878 6.31848 15.2428 6.31848 13.0133V12.9574C6.92072 13.2999 7.6268 13.5095 8.36749 13.5375C7.74477 13.1193 7.23429 12.552 6.88159 11.8861C6.52889 11.2203 6.34494 10.4766 6.34617 9.72155C6.34617 8.86891 6.56768 8.08615 6.96225 7.40823C9.19817 10.1898 12.5555 12.0069 16.3212 12.2026C15.6775 9.09255 17.9826 6.56956 20.7515 6.56956C22.0599 6.56956 23.2367 7.12168 24.0673 8.01626C25.0918 7.82057 26.0748 7.43618 26.947 6.91201C26.6078 7.97433 25.8948 8.86891 24.9534 9.43501C25.8671 9.33716 26.7532 9.07857 27.57 8.72214C26.9539 9.63768 26.1786 10.4484 25.2926 11.0984Z" fill="#008CCC"/>
</svg>
