<svg width="20" height="20" viewBox="0 0 20 20" fill="none" xmlns="http://www.w3.org/2000/svg">
<path d="M2.92564 17.0648C4.82154 18.958 7.33273 20 10 20C12.6673 20 15.1795 18.958 17.0744 17.0648C20.9752 13.1695 20.9752 6.83151 17.0744 2.93521C15.1795 1.04301 12.6663 0 10 0C7.33373 0 4.82054 1.04301 2.92564 2.93621C-0.975213 6.83051 -0.975213 13.1695 2.92564 17.0648ZM10.3091 2.01409C11.9801 2.07415 13.589 2.661 14.9053 3.69049L10 8.58784L8.53931 7.12923C9.70086 5.65163 10.3322 3.82437 10.3091 2.01409ZM7.10863 5.70058L5.09567 3.69049C6.04068 2.95081 7.14152 2.43499 8.3152 2.18193C8.30019 3.41675 7.86999 4.65658 7.10863 5.70058ZM5.68395 7.10325C4.6648 7.79853 3.45756 8.16691 2.22331 8.15925C2.48327 7.04777 2.98087 6.00559 3.682 5.10415L5.68395 7.10325ZM2.0072 10.1464C2.08424 10.1484 2.16128 10.1603 2.23831 10.1603C3.99884 10.166 5.71271 9.59536 7.11763 8.53589L8.58533 10.0005L3.682 14.8968C2.62386 13.5359 2.0362 11.8691 2.0072 10.1464ZM14.307 12.8888C15.3495 12.1315 16.5881 11.7019 17.8167 11.6839C17.5664 12.8542 17.0544 13.9529 16.319 14.8978L14.307 12.8888ZM14.9043 16.3105C14.0022 17.0147 12.9582 17.5157 11.8439 17.7791C11.8326 16.5421 12.2017 15.3313 12.9014 14.3104L14.9043 16.3105ZM9.85793 17.9949C8.12867 17.9674 6.45586 17.3759 5.09467 16.3105L10 11.4132L11.4637 12.8748C10.3602 14.3174 9.80391 16.1377 9.85793 17.9949ZM17.9858 9.69279C16.1779 9.67481 14.3511 10.3022 12.8754 11.4591L11.4147 10.0005L16.318 5.10415C17.3414 6.42154 17.9248 8.02658 17.9858 9.69279Z" fill="white"/>
</svg>
