<svg width="73" height="80" viewBox="0 0 73 80" fill="none" xmlns="http://www.w3.org/2000/svg">
<path d="M65.6117 16.4987V68.1433C65.6117 74.2986 60.5426 79.3677 54.3873 79.3677H17.8294C11.662 79.3677 6.59286 74.2986 6.59286 68.1433V16.4987H2.59792C-0.865973 16.4987 -0.865973 11.2365 2.59792 11.2365H23.1037V6.19155C23.1037 2.89663 25.6865 0 29.0538 0H43.1628C46.5181 0 49.113 2.9087 49.113 6.19155V11.2365H69.6067C73.0706 11.2365 73.0706 16.4987 69.6067 16.4987H65.6117ZM28.3659 11.2365H43.8387V6.19155C43.8387 5.80533 43.6094 5.26222 43.1628 5.26222H29.0538C28.5952 5.26222 28.3659 5.80533 28.3659 6.19155V11.2365ZM47.5681 59.4051C47.5681 62.8569 42.3059 62.8569 42.3059 59.4051V30.7526C42.3059 27.3008 47.5681 27.3008 47.5681 30.7526V59.4051ZM29.8987 59.4051C29.8987 62.8569 24.6365 62.8569 24.6365 59.4051V30.7526C24.6365 27.3008 29.8987 27.2887 29.8987 30.7526V59.4051ZM60.3495 16.4987C44.1887 16.4987 28.0279 16.4987 11.8671 16.4987V68.1433C11.8671 71.4261 14.5345 74.1055 17.8294 74.1055H54.3873C57.6702 74.1055 60.3495 71.4261 60.3495 68.1433V16.4987Z" fill="#D12421"/>
</svg>
