<svg width="349" height="606" viewBox="0 0 349 606" fill="#009645" xmlns="http://www.w3.org/2000/svg">
<path fill-rule="evenodd" clip-rule="evenodd" d="M2.59079 0C2.59079 22.6022 7.04619 44.9832 15.7026 65.8649C24.359 86.7467 37.047 105.72 53.042 121.703C69.0369 137.685 88.0258 150.362 108.924 159.012C129.823 167.662 152.222 172.113 174.842 172.113C197.462 172.113 219.861 167.662 240.759 159.012C261.658 150.363 280.647 137.685 296.642 121.703C312.637 105.72 325.325 86.7467 333.981 65.8649C342.638 44.9832 347.093 22.6023 347.093 1.11399e-05L348.92 1.11399e-05C348.92 22.8419 344.417 45.4602 335.669 66.5634C326.92 87.6666 314.098 106.841 297.933 122.993C281.769 139.145 262.579 151.957 241.458 160.698C220.338 169.439 197.702 173.939 174.842 173.939C151.982 173.939 129.345 169.439 108.225 160.698C87.1051 151.957 67.9149 139.145 51.7503 122.993C35.5857 106.841 22.7633 87.6666 14.015 66.5634C5.26681 45.4602 0.764158 22.8419 0.76416 0L2.59079 0Z" fill="#009645"/>
<path fill-rule="evenodd" clip-rule="evenodd" d="M156.691 97.9624C156.691 100.329 157.161 102.673 158.073 104.86C158.985 107.047 160.322 109.034 162.008 110.708C163.694 112.381 165.695 113.709 167.897 114.615C170.1 115.521 172.46 115.987 174.844 115.987C177.228 115.987 179.589 115.521 181.791 114.615C183.994 113.709 185.995 112.381 187.681 110.708C189.366 109.034 190.704 107.047 191.616 104.86C192.528 102.673 192.998 100.329 192.998 97.9624H194.465C194.465 100.521 193.957 103.054 192.971 105.418C191.985 107.781 190.54 109.929 188.718 111.738C186.896 113.547 184.733 114.982 182.353 115.961C179.972 116.94 177.421 117.444 174.844 117.444C172.268 117.444 169.716 116.94 167.336 115.961C164.956 114.982 162.793 113.547 160.971 111.738C159.149 109.929 157.704 107.781 156.718 105.418C155.732 103.054 155.224 100.521 155.224 97.9624H156.691Z" fill="#009645"/>
<path fill-rule="evenodd" clip-rule="evenodd" d="M208.866 1.46278L140.81 1.46278V96.7816H208.866V1.46278ZM139.354 0.00195312V98.2424H210.321V0.00195313L139.354 0.00195312Z" fill="#009645"/>
<path fill-rule="evenodd" clip-rule="evenodd" d="M2.59079 605.308C2.59079 582.669 7.04619 560.252 15.7026 539.337C24.359 518.422 37.047 499.418 53.042 483.41C69.0369 467.403 88.0258 454.705 108.924 446.041C129.823 437.378 152.222 432.919 174.842 432.919C197.462 432.919 219.861 437.378 240.759 446.041C261.658 454.705 280.647 467.403 296.642 483.41C312.637 499.418 325.325 518.422 333.981 539.337C342.638 560.252 347.093 582.669 347.093 605.308H348.92C348.92 582.429 344.417 559.775 335.669 538.638C326.92 517.501 314.098 498.295 297.933 482.118C281.769 465.94 262.579 453.107 241.458 444.352C220.338 435.597 197.702 431.091 174.842 431.091C151.982 431.091 129.345 435.597 108.225 444.352C87.1051 453.107 67.9149 465.94 51.7503 482.118C35.5857 498.295 22.7633 517.501 14.015 538.638C5.26681 559.775 0.764158 582.429 0.76416 605.308H2.59079Z" fill="#009645"/>
<path fill-rule="evenodd" clip-rule="evenodd" d="M156.693 507.068C156.693 504.701 157.162 502.357 158.074 500.171C158.987 497.984 160.324 495.997 162.01 494.323C163.695 492.649 165.696 491.322 167.899 490.416C170.101 489.51 172.462 489.044 174.846 489.044C177.23 489.044 179.59 489.51 181.793 490.416C183.995 491.322 185.997 492.649 187.682 494.323C189.368 495.997 190.705 497.984 191.617 500.171C192.53 502.357 192.999 504.701 192.999 507.068H194.466C194.466 504.51 193.959 501.977 192.973 499.613C191.987 497.25 190.541 495.102 188.719 493.293C186.898 491.484 184.735 490.049 182.354 489.07C179.974 488.091 177.422 487.587 174.846 487.587C172.269 487.587 169.718 488.091 167.338 489.07C164.957 490.049 162.794 491.484 160.972 493.293C159.15 495.102 157.705 497.25 156.719 499.613C155.733 501.977 155.226 504.51 155.226 507.068H156.693Z" fill="#009645"/>
<path fill-rule="evenodd" clip-rule="evenodd" d="M208.867 603.568H140.811V508.25H208.867V603.568ZM139.355 605.029V506.789H210.322V605.029H139.355Z" fill="#009645"/>
<path fill-rule="evenodd" clip-rule="evenodd" d="M347.093 1.82625L2.59079 1.82625L2.59079 603.758H347.093L347.093 1.82625ZM0.76416 0L0.76416 605.584H348.92L348.92 0L0.76416 0Z" fill="#009645"/>
<path fill-rule="evenodd" clip-rule="evenodd" d="M348.92 302.793H0.764648V301.401H348.92V302.793Z" fill="#009645"/>
<path fill-rule="evenodd" clip-rule="evenodd" d="M174.837 337.04C193.831 337.04 209.229 321.582 209.229 302.513C209.229 283.445 193.831 267.987 174.837 267.987C155.843 267.987 140.445 283.445 140.445 302.513C140.445 321.582 155.843 337.04 174.837 337.04ZM174.837 338.136C194.434 338.136 210.32 322.187 210.32 302.513C210.32 282.839 194.434 266.891 174.837 266.891C155.24 266.891 139.354 282.839 139.354 302.513C139.354 322.187 155.24 338.136 174.837 338.136Z" fill="#009645"/>
</svg>
