<svg width="14" height="16" viewBox="0 0 14 16" fill="none" xmlns="http://www.w3.org/2000/svg">
<path d="M12.7217 3.199V13.2125C12.7217 14.406 11.7388 15.3889 10.5453 15.3889H3.457C2.26118 15.3889 1.27831 14.406 1.27831 13.2125V3.199H0.503719C-0.167906 3.199 -0.167906 2.17869 0.503719 2.17869H4.47965V1.2005C4.47965 0.561638 4.98044 0 5.63335 0H8.36899C9.01956 0 9.52269 0.563978 9.52269 1.2005V2.17869H13.4963C14.1679 2.17869 14.1679 3.199 13.4963 3.199H12.7217ZM5.49996 2.17869H8.50004V1.2005C8.50004 1.12562 8.45558 1.02031 8.36899 1.02031H5.63335C5.54442 1.02031 5.49996 1.12562 5.49996 1.2005V2.17869ZM9.22315 11.5183C9.22315 12.1875 8.20284 12.1875 8.20284 11.5183V5.96272C8.20284 5.29344 9.22315 5.29344 9.22315 5.96272V11.5183ZM5.79716 11.5183C5.79716 12.1875 4.77685 12.1875 4.77685 11.5183V5.96272C4.77685 5.29344 5.79716 5.2911 5.79716 5.96272V11.5183ZM11.7014 3.199C8.56791 3.199 5.43443 3.199 2.30096 3.199V13.2125C2.30096 13.8491 2.81814 14.3686 3.457 14.3686H10.5453C11.1819 14.3686 11.7014 13.8491 11.7014 13.2125V3.199Z" fill="#150223"/>
</svg>
