<svg width="296" height="373" viewBox="0 0 296 373" fill="none" xmlns="http://www.w3.org/2000/svg">
<g opacity="0.5">
<path fill-rule="evenodd" clip-rule="evenodd" d="M1.75503 0C1.75503 21.6922 6.03103 43.1719 14.3389 63.2128C22.6468 83.2538 34.8238 101.463 50.1748 116.802C65.5257 132.141 83.7499 144.308 103.807 152.609C123.864 160.911 145.361 165.183 167.07 165.183C188.78 165.183 210.277 160.911 230.334 152.609C250.391 144.308 268.615 132.141 283.966 116.802C299.317 101.463 311.494 83.2538 319.802 63.2129C328.11 43.1719 332.386 21.6922 332.386 1.06914e-05L334.139 1.06914e-05C334.139 21.9222 329.817 43.6297 321.421 63.8832C313.025 84.1367 300.719 102.539 285.206 118.041C269.692 133.542 251.274 145.838 231.005 154.228C210.735 162.617 189.01 166.935 167.07 166.935C145.131 166.935 123.406 162.617 103.136 154.228C82.8664 145.838 64.4489 133.542 48.9351 118.041C33.4214 102.539 21.1152 84.1367 12.7193 63.8832C4.3233 43.6297 0.00195121 21.9222 0.00195313 0L1.75503 0Z" fill="#009645"/>
<path fill-rule="evenodd" clip-rule="evenodd" d="M149.648 94.0177C149.648 96.2894 150.099 98.5389 150.974 100.638C151.85 102.736 153.133 104.643 154.751 106.25C156.369 107.856 158.289 109.13 160.403 110C162.517 110.869 164.783 111.316 167.07 111.316C169.358 111.316 171.624 110.869 173.738 110C175.852 109.13 177.772 107.856 179.39 106.25C181.008 104.643 182.291 102.736 183.167 100.638C184.042 98.5389 184.493 96.2894 184.493 94.0177H185.901C185.901 96.473 185.414 98.9042 184.467 101.173C183.521 103.441 182.134 105.502 180.385 107.238C178.637 108.974 176.561 110.352 174.277 111.291C171.992 112.231 169.543 112.714 167.07 112.714C164.598 112.714 162.149 112.231 159.864 111.291C157.58 110.352 155.504 108.974 153.755 107.238C152.007 105.502 150.62 103.441 149.674 101.173C148.727 98.9042 148.24 96.473 148.24 94.0177H149.648Z" fill="#009645"/>
<path fill-rule="evenodd" clip-rule="evenodd" d="M199.722 1.40371L134.407 1.40371V92.8845H199.722V1.40371ZM133.01 0.00170898V94.2865H201.119V0.00170898L133.01 0.00170898Z" fill="#009645"/>
<path fill-rule="evenodd" clip-rule="evenodd" d="M332.386 1.75272L1.75503 1.75272L1.75503 579.448H332.386L332.386 1.75272ZM0.00195312 0L0.00195312 581.2H334.139L334.139 0L0.00195312 0Z" fill="#009645"/>
<path fill-rule="evenodd" clip-rule="evenodd" d="M334.137 290.6H0L0 289.265H334.137V290.6Z" fill="#009645"/>
<path fill-rule="evenodd" clip-rule="evenodd" d="M167.063 323.469C185.292 323.469 200.069 308.633 200.069 290.333C200.069 272.032 185.292 257.196 167.063 257.196C148.833 257.196 134.056 272.032 134.056 290.333C134.056 308.633 148.833 323.469 167.063 323.469ZM167.063 324.521C185.87 324.521 201.117 309.214 201.117 290.333C201.117 271.451 185.87 256.145 167.063 256.145C148.255 256.145 133.008 271.451 133.008 290.333C133.008 309.214 148.255 324.521 167.063 324.521Z" fill="#009645"/>
</g>
</svg>
