<svg width="22" height="22" viewBox="0 0 22 22" fill="none" xmlns="http://www.w3.org/2000/svg">
<path d="M22 11C22 12.4445 21.7155 13.8749 21.1627 15.2095C20.6099 16.5441 19.7996 17.7567 18.7782 18.7782C17.7567 19.7996 16.5441 20.6099 15.2095 21.1627C13.8749 21.7155 12.4445 22 11 22C9.55546 22 8.12506 21.7155 6.79048 21.1627C5.4559 20.6099 4.24327 19.7996 3.22183 18.7782C2.20038 17.7567 1.39013 16.5441 0.837325 15.2095C0.284524 13.8749 -2.15253e-08 12.4445 0 11C4.34724e-08 8.08262 1.15893 5.28473 3.22183 3.22183C5.28473 1.15893 8.08262 0 11 0C13.9174 0 16.7153 1.15893 18.7782 3.22183C20.8411 5.28473 22 8.08262 22 11ZM15.532 8.19867C15.6456 8.08503 15.7358 7.95012 15.7973 7.80165C15.8588 7.65317 15.8904 7.49404 15.8904 7.33333C15.8904 7.17263 15.8588 7.01349 15.7973 6.86502C15.7358 6.71654 15.6456 6.58164 15.532 6.468C15.4184 6.35436 15.2835 6.26422 15.135 6.20272C14.9865 6.14122 14.8274 6.10957 14.6667 6.10957C14.506 6.10957 14.3468 6.14122 14.1984 6.20272C14.0499 6.26422 13.915 6.35436 13.8013 6.468L11 9.27178L8.19867 6.468C7.96917 6.2385 7.6579 6.10957 7.33333 6.10957C7.00877 6.10957 6.6975 6.2385 6.468 6.468C6.2385 6.6975 6.10957 7.00877 6.10957 7.33333C6.10957 7.6579 6.2385 7.96917 6.468 8.19867L9.27178 11L6.468 13.8013C6.2385 14.0308 6.10957 14.3421 6.10957 14.6667C6.10957 14.9912 6.2385 15.3025 6.468 15.532C6.6975 15.7615 7.00877 15.8904 7.33333 15.8904C7.6579 15.8904 7.96917 15.7615 8.19867 15.532L11 12.7282L13.8013 15.532C14.0308 15.7615 14.3421 15.8904 14.6667 15.8904C14.9912 15.8904 15.3025 15.7615 15.532 15.532C15.7615 15.3025 15.8904 14.9912 15.8904 14.6667C15.8904 14.3421 15.7615 14.0308 15.532 13.8013L12.7282 11L15.532 8.19867Z" fill="#D12421"/>
</svg>
