<svg version="1.1" id="Layer_1" xmlns="http://www.w3.org/2000/svg" xmlns:xlink="http://www.w3.org/1999/xlink" x="0px" y="0px"
	 width="100%" viewBox="0 0 2018 937" enable-background="new 0 0 2018 937" xml:space="preserve">
<path fill="#FFFFFF" opacity="1.000000" stroke="none" 
	d="
M240.000000,1.000000 
	C756.034912,1.000000 1272.069824,1.000000 1788.552368,1.468657 
	C1789.000000,241.182663 1789.000000,480.428040 1789.000000,719.682007 
	C1272.357910,719.682007 756.332886,719.682007 240.000000,719.682007 
	C240.000000,479.909393 240.000000,240.454697 240.000000,1.000000 
M703.500000,674.000000 
	C720.832031,674.000000 738.172852,674.330994 755.492432,673.866516 
	C764.758606,673.617981 774.170288,672.820618 783.194336,670.819336 
	C799.685974,667.161926 813.352722,658.760681 820.578796,642.704407 
	C824.770630,633.390198 825.677917,623.558044 824.221924,613.159058 
	C822.658936,601.996277 818.859070,592.275513 810.321838,585.088562 
	C805.294189,580.856140 799.118469,577.987488 793.161011,574.322021 
	C793.098328,574.928711 793.054932,574.682312 793.140625,574.623230 
	C793.928467,574.080078 794.696411,573.483704 795.548950,573.062439 
	C804.742371,568.519714 811.003723,561.472961 813.993164,551.603149 
	C816.763123,542.458252 816.627808,533.273071 814.557373,524.013672 
	C811.924438,512.238525 804.839478,504.249176 794.156372,498.975464 
	C783.362549,493.647156 771.670837,492.365814 760.059875,492.163605 
	C731.404175,491.664581 702.733887,492.000000 674.069458,492.000000 
	C672.466858,492.000000 670.864258,492.000000 669.288025,492.000000 
	C669.288025,552.954468 669.288025,613.352966 669.288025,674.000000 
	C680.549744,674.000000 691.524902,674.000000 703.500000,674.000000 
M1724.000000,625.500000 
	C1724.000000,581.077637 1724.000000,536.655273 1724.000000,492.308319 
	C1710.672852,492.308319 1697.937866,492.308319 1684.755859,492.308319 
	C1684.755859,532.262512 1684.755859,571.909973 1684.755859,612.662659 
	C1676.089600,599.208557 1667.969238,586.802612 1660.051514,574.268738 
	C1643.248901,547.670288 1626.575073,520.990234 1609.733398,494.416534 
	C1608.989502,493.242920 1607.118164,492.123108 1605.756470,492.104553 
	C1592.973877,491.929810 1580.187988,492.000854 1567.214844,492.000854 
	C1567.214844,552.813599 1567.214844,613.208801 1567.214844,673.772034 
	C1580.163818,673.772034 1592.897461,673.772034 1606.218750,673.772034 
	C1606.218750,634.740234 1606.218750,595.932617 1606.218750,556.384949 
	C1607.463989,557.286255 1608.121460,557.537598 1608.424927,558.014282 
	C1619.343384,575.163696 1630.205566,592.349121 1641.125244,609.497803 
	C1654.397583,630.341370 1667.704712,651.162842 1681.047363,671.961487 
	C1681.590088,672.807312 1682.645508,673.896179 1683.470825,673.903687 
	C1696.900269,674.024841 1710.331299,673.989441 1724.000000,673.989441 
	C1724.000000,657.781311 1724.000000,642.140625 1724.000000,625.500000 
M493.523773,674.000000 
	C502.951416,674.000000 512.379028,674.000000 522.174866,674.000000 
	C522.174866,634.662903 522.174866,595.943787 522.174866,555.623169 
	C524.072083,557.847351 525.195374,558.885986 525.986572,560.134949 
	C533.589417,572.135742 541.117615,584.183594 548.703003,596.195435 
	C563.525085,619.666870 578.427185,643.088013 593.160889,666.614746 
	C596.386658,671.765686 599.803223,675.046387 606.722656,674.192627 
	C613.780884,673.321777 621.030151,674.000000 628.195801,674.000000 
	C632.108887,674.000000 636.021912,674.000000 639.799500,674.000000 
	C639.799500,612.979797 639.799500,552.701843 639.799500,492.213867 
	C626.865234,492.213867 614.131531,492.213867 600.979858,492.213867 
	C600.979858,532.113098 600.979858,571.801208 600.979858,612.466370 
	C599.881958,611.314392 599.381836,610.938049 599.071777,610.442810 
	C586.913208,591.024292 574.832031,571.557068 562.611206,552.177917 
	C550.985352,533.742188 539.254028,515.372437 527.453552,497.048065 
	C526.206909,495.112213 524.225769,492.284119 522.512390,492.231232 
	C509.428345,491.827271 496.326202,492.009705 483.299866,492.009705 
	C483.299866,552.983582 483.299866,613.379395 483.299866,674.000000 
	C486.575226,674.000000 489.554932,674.000000 493.523773,674.000000 
M1001.994202,664.436890 
	C1001.329712,661.784485 1000.324463,659.165527 1000.059753,656.473755 
	C998.921753,644.901611 998.293518,633.273560 996.929565,621.730896 
	C995.127747,606.482239 988.877747,594.057495 973.089417,588.330383 
	C976.952454,585.912781 980.711792,583.975708 984.002258,581.432068 
	C1002.643127,567.022095 1004.248291,537.715881 995.374512,520.081543 
	C985.632874,500.722412 968.236389,492.497131 947.403259,492.144409 
	C915.092529,491.597382 882.765747,491.996857 850.445740,492.010498 
	C849.016052,492.011078 847.586304,492.164398 846.309814,492.237762 
	C846.309814,553.026794 846.309814,613.411194 846.309814,673.680908 
	C860.354187,673.680908 874.086731,673.680908 888.230347,673.680908 
	C888.230347,649.965942 888.230347,626.567871 888.230347,603.999756 
	C904.047302,603.999756 919.457275,603.566711 934.828003,604.155762 
	C944.675171,604.533142 952.407288,609.343689 954.881409,620.002747 
	C957.218079,630.069885 958.374146,640.413513 959.988831,650.645081 
	C961.076843,657.539124 961.955933,664.468628 963.200989,671.332825 
	C963.387268,672.360168 965.059021,673.870789 966.059998,673.883728 
	C979.299194,674.054932 992.541321,673.997925 1006.085144,673.997925 
	C1004.548035,670.711487 1003.274963,667.989685 1001.994202,664.436890 
M1041.968994,649.452942 
	C1049.367432,655.308350 1056.163086,662.233154 1064.281982,666.810608 
	C1085.283936,678.651367 1108.060181,680.267395 1131.520020,676.039795 
	C1153.966919,671.994812 1171.722168,660.372681 1184.855591,642.143066 
	C1196.739624,625.647827 1201.591064,606.405640 1201.747681,586.364685 
	C1201.832275,575.554443 1200.383423,564.464783 1197.789307,553.954651 
	C1191.644897,529.061157 1177.671143,509.620422 1154.347900,497.805878 
	C1134.099365,487.548798 1112.764648,485.836731 1090.650757,489.943787 
	C1062.760376,495.123627 1042.516846,510.364044 1029.854492,535.625732 
	C1023.846069,547.612854 1021.271790,560.474548 1019.773010,573.814941 
	C1018.485168,585.277832 1019.831970,596.299316 1021.801819,607.385193 
	C1024.574341,622.988281 1031.733887,636.595093 1041.968994,649.452942 
M1313.036255,516.442627 
	C1297.245117,532.602234 1281.454102,548.761780 1264.668945,565.938660 
	C1264.668945,540.246765 1264.668945,516.170959 1264.668945,492.375824 
	C1250.539307,492.375824 1236.802856,492.375824 1223.207397,492.375824 
	C1223.207397,553.031189 1223.207397,613.310608 1223.207397,673.778748 
	C1237.149170,673.778748 1250.883179,673.778748 1265.000000,673.778748 
	C1265.000000,671.937805 1265.000000,670.312317 1265.000000,668.686829 
	C1265.000000,652.188477 1264.962891,635.689880 1265.056274,619.192017 
	C1265.065796,617.514771 1265.339966,615.359924 1266.373779,614.245789 
	C1272.918335,607.193115 1279.711548,600.371155 1286.904419,592.977966 
	C1291.285278,599.079712 1295.238647,604.362000 1298.956909,609.804871 
	C1312.907471,630.226379 1326.806885,650.683044 1340.644897,671.180969 
	C1342.052612,673.266113 1343.491455,674.131592 1346.126221,674.082581 
	C1356.788086,673.883850 1367.455811,674.000000 1378.121460,674.000000 
	C1383.356445,674.000000 1388.591431,674.000000 1395.198975,674.000000 
	C1368.316650,636.785339 1342.203247,600.635132 1315.632812,563.852173 
	C1339.588501,539.903442 1363.443848,516.054993 1387.505859,492.000000 
	C1373.880859,492.000000 1360.264160,492.445190 1346.696167,491.823425 
	C1339.242920,491.481842 1333.799316,493.402954 1329.088379,499.235321 
	C1324.321289,505.137177 1318.768188,510.404144 1313.036255,516.442627 
M1495.500000,564.000000 
	C1479.071411,564.000000 1462.642700,564.000000 1446.317139,564.000000 
	C1446.317139,551.323608 1446.317139,539.253845 1446.317139,526.763916 
	C1479.036255,526.763916 1511.439941,526.763916 1543.653198,526.763916 
	C1543.653198,514.929688 1543.653198,503.525391 1543.653198,492.361267 
	C1497.237305,492.361267 1451.168701,492.361267 1405.375977,492.361267 
	C1405.375977,553.123474 1405.375977,613.524048 1405.375977,673.787109 
	C1452.368652,673.787109 1498.984985,673.787109 1545.771973,673.787109 
	C1545.771973,662.505310 1545.771973,651.437134 1545.771973,639.942200 
	C1512.476929,639.942200 1479.406494,639.942200 1446.257568,639.942200 
	C1446.257568,625.111694 1446.257568,610.709961 1446.257568,595.882812 
	C1476.249634,595.882812 1505.986816,595.882812 1535.712646,595.882812 
	C1535.712646,585.050293 1535.712646,574.647888 1535.712646,564.000000 
	C1522.451172,564.000000 1509.475586,564.000000 1495.500000,564.000000 
M337.000000,518.500000 
	C337.000000,509.736603 337.000000,500.973236 337.000000,492.314606 
	C322.993774,492.314606 309.591888,492.314606 296.000000,492.314606 
	C296.000000,494.444366 296.000000,496.260681 296.000000,498.076996 
	C296.000000,535.072205 295.908325,572.067810 296.090240,609.062134 
	C296.120605,615.227905 296.798004,621.506775 298.116211,627.527649 
	C301.714264,643.961975 309.867828,657.439453 324.724548,666.313965 
	C336.978058,673.633423 350.515564,676.911865 364.420502,677.808105 
	C379.297913,678.767090 394.054657,677.599548 408.671661,673.262756 
	C438.548645,664.398499 453.111511,641.617310 453.767090,613.889648 
	C454.688568,574.916504 454.000000,535.905273 454.000000,496.910339 
	C454.000000,495.323303 454.000000,493.736267 454.000000,492.347351 
	C439.927246,492.347351 426.524445,492.347351 413.000000,492.347351 
	C413.000000,526.682068 413.134430,560.670532 412.908356,594.656494 
	C412.849609,603.492554 412.290497,612.426758 410.821503,621.123352 
	C409.359711,629.776978 404.505096,636.471924 395.896332,640.094666 
	C385.256836,644.572083 374.257202,645.090698 363.268768,642.851318 
	C350.949463,640.340759 341.446106,633.155640 339.080383,619.456787 
	C337.916199,612.715698 337.148987,605.821350 337.091187,598.988892 
	C336.867035,572.494202 337.000000,545.996582 337.000000,518.500000 
z"/>
<path fill="#F2BF03" opacity="1.000000" stroke="none" 
	d="
M239.531342,1.000000 
	C240.000000,240.454697 240.000000,479.909393 240.000000,719.682007 
	C756.332886,719.682007 1272.357910,719.682007 1789.000000,719.682007 
	C1789.000000,480.428040 1789.000000,241.182663 1789.000000,1.468657 
	C1865.658936,1.000000 1942.317993,1.000000 2018.982666,1.000000 
	C2018.988525,313.294281 2018.988525,625.588562 2018.988525,937.941406 
	C1346.439941,937.941406 673.879944,937.941406 1.159941,937.941406 
	C1.159941,625.666748 1.159941,313.333374 1.159941,1.000000 
	C80.411537,1.000000 159.737106,1.000000 239.531342,1.000000 
z"/>
<path fill="#191936" opacity="1.000000" stroke="none" 
	d="
M703.000000,674.000000 
	C691.524902,674.000000 680.549744,674.000000 669.288025,674.000000 
	C669.288025,613.352966 669.288025,552.954468 669.288025,492.000000 
	C670.864258,492.000000 672.466858,492.000000 674.069458,492.000000 
	C702.733887,492.000000 731.404175,491.664581 760.059875,492.163605 
	C771.670837,492.365814 783.362549,493.647156 794.156372,498.975464 
	C804.839478,504.249176 811.924438,512.238525 814.557373,524.013672 
	C816.627808,533.273071 816.763123,542.458252 813.993164,551.603149 
	C811.003723,561.472961 804.742371,568.519714 795.548950,573.062439 
	C794.696411,573.483704 793.928467,574.080078 793.140625,574.623230 
	C793.054932,574.682312 793.098328,574.928711 793.161011,574.322021 
	C799.118469,577.987488 805.294189,580.856140 810.321838,585.088562 
	C818.859070,592.275513 822.658936,601.996277 824.221924,613.159058 
	C825.677917,623.558044 824.770630,633.390198 820.578796,642.704407 
	C813.352722,658.760681 799.685974,667.161926 783.194336,670.819336 
	C774.170288,672.820618 764.758606,673.617981 755.492432,673.866516 
	C738.172852,674.330994 720.832031,674.000000 703.000000,674.000000 
M711.000000,637.374878 
	C711.000000,638.815186 711.000000,640.255554 711.000000,640.999573 
	C728.884216,640.999573 746.336426,642.090515 763.584900,640.683655 
	C779.864441,639.355896 784.980591,626.614441 782.663513,612.333130 
	C781.322571,604.068298 776.409241,598.265747 768.272949,595.873901 
	C764.441711,594.747620 760.335144,594.114807 756.342285,594.059875 
	C741.333496,593.853516 726.320129,593.977112 711.000000,593.977112 
	C711.000000,607.812988 711.000000,622.104370 711.000000,637.374878 
M723.511230,565.000000 
	C734.008362,565.000000 744.516785,565.302673 754.999207,564.910522 
	C764.489075,564.555420 771.791138,560.420837 774.595825,551.973938 
	C779.071106,538.495972 771.137634,527.195862 762.482544,526.262146 
	C745.513428,524.431641 728.386292,524.065430 711.294434,523.091553 
	C711.294434,537.968140 711.294434,551.368103 711.294434,565.000000 
	C715.230286,565.000000 718.873962,565.000000 723.511230,565.000000 
z"/>
<path fill="#191936" opacity="1.000000" stroke="none" 
	d="
M1724.000000,626.000000 
	C1724.000000,642.140625 1724.000000,657.781311 1724.000000,673.989441 
	C1710.331299,673.989441 1696.900269,674.024841 1683.470825,673.903687 
	C1682.645508,673.896179 1681.590088,672.807312 1681.047363,671.961487 
	C1667.704712,651.162842 1654.397583,630.341370 1641.125244,609.497803 
	C1630.205566,592.349121 1619.343384,575.163696 1608.424927,558.014282 
	C1608.121460,557.537598 1607.463989,557.286255 1606.218750,556.384949 
	C1606.218750,595.932617 1606.218750,634.740234 1606.218750,673.772034 
	C1592.897461,673.772034 1580.163818,673.772034 1567.214844,673.772034 
	C1567.214844,613.208801 1567.214844,552.813599 1567.214844,492.000854 
	C1580.187988,492.000854 1592.973877,491.929810 1605.756470,492.104553 
	C1607.118164,492.123108 1608.989502,493.242920 1609.733398,494.416534 
	C1626.575073,520.990234 1643.248901,547.670288 1660.051514,574.268738 
	C1667.969238,586.802612 1676.089600,599.208557 1684.755859,612.662659 
	C1684.755859,571.909973 1684.755859,532.262512 1684.755859,492.308319 
	C1697.937866,492.308319 1710.672852,492.308319 1724.000000,492.308319 
	C1724.000000,536.655273 1724.000000,581.077637 1724.000000,626.000000 
z"/>
<path fill="#191936" opacity="1.000000" stroke="none" 
	d="
M493.029236,674.000000 
	C489.554932,674.000000 486.575226,674.000000 483.299866,674.000000 
	C483.299866,613.379395 483.299866,552.983582 483.299866,492.009705 
	C496.326202,492.009705 509.428345,491.827271 522.512390,492.231232 
	C524.225769,492.284119 526.206909,495.112213 527.453552,497.048065 
	C539.254028,515.372437 550.985352,533.742188 562.611206,552.177917 
	C574.832031,571.557068 586.913208,591.024292 599.071777,610.442810 
	C599.381836,610.938049 599.881958,611.314392 600.979858,612.466370 
	C600.979858,571.801208 600.979858,532.113098 600.979858,492.213867 
	C614.131531,492.213867 626.865234,492.213867 639.799500,492.213867 
	C639.799500,552.701843 639.799500,612.979797 639.799500,674.000000 
	C636.021912,674.000000 632.108887,674.000000 628.195801,674.000000 
	C621.030151,674.000000 613.780884,673.321777 606.722656,674.192627 
	C599.803223,675.046387 596.386658,671.765686 593.160889,666.614746 
	C578.427185,643.088013 563.525085,619.666870 548.703003,596.195435 
	C541.117615,584.183594 533.589417,572.135742 525.986572,560.134949 
	C525.195374,558.885986 524.072083,557.847351 522.174866,555.623169 
	C522.174866,595.943787 522.174866,634.662903 522.174866,674.000000 
	C512.379028,674.000000 502.951416,674.000000 493.029236,674.000000 
z"/>
<path fill="#191936" opacity="1.000000" stroke="none" 
	d="
M1001.998047,664.852356 
	C1003.274963,667.989685 1004.548035,670.711487 1006.085144,673.997925 
	C992.541321,673.997925 979.299194,674.054932 966.059998,673.883728 
	C965.059021,673.870789 963.387268,672.360168 963.200989,671.332825 
	C961.955933,664.468628 961.076843,657.539124 959.988831,650.645081 
	C958.374146,640.413513 957.218079,630.069885 954.881409,620.002747 
	C952.407288,609.343689 944.675171,604.533142 934.828003,604.155762 
	C919.457275,603.566711 904.047302,603.999756 888.230347,603.999756 
	C888.230347,626.567871 888.230347,649.965942 888.230347,673.680908 
	C874.086731,673.680908 860.354187,673.680908 846.309814,673.680908 
	C846.309814,613.411194 846.309814,553.026794 846.309814,492.237762 
	C847.586304,492.164398 849.016052,492.011078 850.445740,492.010498 
	C882.765747,491.996857 915.092529,491.597382 947.403259,492.144409 
	C968.236389,492.497131 985.632874,500.722412 995.374512,520.081543 
	C1004.248291,537.715881 1002.643127,567.022095 984.002258,581.432068 
	C980.711792,583.975708 976.952454,585.912781 973.089417,588.330383 
	C988.877747,594.057495 995.127747,606.482239 996.929565,621.730896 
	C998.293518,633.273560 998.921753,644.901611 1000.059753,656.473755 
	C1000.324463,659.165527 1001.329712,661.784485 1001.998047,664.852356 
M888.000000,546.500000 
	C888.000000,555.586731 888.000000,564.673401 888.000000,574.000000 
	C903.191528,574.000000 917.810486,574.001465 932.429443,573.999634 
	C947.803223,573.997620 955.562073,568.591858 958.524536,553.655945 
	C961.230530,540.013489 955.147217,526.086426 939.166443,525.114380 
	C924.641357,524.230957 910.056580,524.325134 895.497620,524.007446 
	C893.071350,523.954529 890.642944,524.000000 888.000000,524.000000 
	C888.000000,531.563904 888.000000,538.531982 888.000000,546.500000 
z"/>
<path fill="#191936" opacity="1.000000" stroke="none" 
	d="
M1041.705322,649.207031 
	C1031.733887,636.595093 1024.574341,622.988281 1021.801819,607.385193 
	C1019.831970,596.299316 1018.485168,585.277832 1019.773010,573.814941 
	C1021.271790,560.474548 1023.846069,547.612854 1029.854492,535.625732 
	C1042.516846,510.364044 1062.760376,495.123627 1090.650757,489.943787 
	C1112.764648,485.836731 1134.099365,487.548798 1154.347900,497.805878 
	C1177.671143,509.620422 1191.644897,529.061157 1197.789307,553.954651 
	C1200.383423,564.464783 1201.832275,575.554443 1201.747681,586.364685 
	C1201.591064,606.405640 1196.739624,625.647827 1184.855591,642.143066 
	C1171.722168,660.372681 1153.966919,671.994812 1131.520020,676.039795 
	C1108.060181,680.267395 1085.283936,678.651367 1064.281982,666.810608 
	C1056.163086,662.233154 1049.367432,655.308350 1041.705322,649.207031 
M1066.034546,552.806152 
	C1064.356323,562.852722 1062.030029,572.847961 1061.228149,582.963989 
	C1060.694824,589.693054 1061.733276,596.723083 1063.148560,603.389038 
	C1065.312622,613.582031 1069.513916,623.002197 1077.069092,630.569885 
	C1084.293945,637.806824 1092.790527,641.825806 1103.126709,643.229187 
	C1118.464355,645.311646 1131.766357,642.028809 1143.057861,631.411316 
	C1154.775269,620.393372 1158.627319,605.905029 1159.844849,590.649597 
	C1160.417236,583.477966 1159.760986,576.123230 1158.904419,568.941711 
	C1157.440796,556.670227 1153.182983,545.202698 1144.548950,536.241272 
	C1130.642700,521.807678 1113.342896,519.491272 1094.775391,524.765808 
	C1080.627563,528.784851 1072.221680,539.207642 1066.034546,552.806152 
z"/>
<path fill="#191936" opacity="1.000000" stroke="none" 
	d="
M1313.297852,516.195923 
	C1318.768188,510.404144 1324.321289,505.137177 1329.088379,499.235321 
	C1333.799316,493.402954 1339.242920,491.481842 1346.696167,491.823425 
	C1360.264160,492.445190 1373.880859,492.000000 1387.505859,492.000000 
	C1363.443848,516.054993 1339.588501,539.903442 1315.632812,563.852173 
	C1342.203247,600.635132 1368.316650,636.785339 1395.198975,674.000000 
	C1388.591431,674.000000 1383.356445,674.000000 1378.121460,674.000000 
	C1367.455811,674.000000 1356.788086,673.883850 1346.126221,674.082581 
	C1343.491455,674.131592 1342.052612,673.266113 1340.644897,671.180969 
	C1326.806885,650.683044 1312.907471,630.226379 1298.956909,609.804871 
	C1295.238647,604.362000 1291.285278,599.079712 1286.904419,592.977966 
	C1279.711548,600.371155 1272.918335,607.193115 1266.373779,614.245789 
	C1265.339966,615.359924 1265.065796,617.514771 1265.056274,619.192017 
	C1264.962891,635.689880 1265.000000,652.188477 1265.000000,668.686829 
	C1265.000000,670.312317 1265.000000,671.937805 1265.000000,673.778748 
	C1250.883179,673.778748 1237.149170,673.778748 1223.207397,673.778748 
	C1223.207397,613.310608 1223.207397,553.031189 1223.207397,492.375824 
	C1236.802856,492.375824 1250.539307,492.375824 1264.668945,492.375824 
	C1264.668945,516.170959 1264.668945,540.246765 1264.668945,565.938660 
	C1281.454102,548.761780 1297.245117,532.602234 1313.297852,516.195923 
z"/>
<path fill="#191936" opacity="1.000000" stroke="none" 
	d="
M1496.000000,564.000000 
	C1509.475586,564.000000 1522.451172,564.000000 1535.712646,564.000000 
	C1535.712646,574.647888 1535.712646,585.050293 1535.712646,595.882812 
	C1505.986816,595.882812 1476.249634,595.882812 1446.257568,595.882812 
	C1446.257568,610.709961 1446.257568,625.111694 1446.257568,639.942200 
	C1479.406494,639.942200 1512.476929,639.942200 1545.771973,639.942200 
	C1545.771973,651.437134 1545.771973,662.505310 1545.771973,673.787109 
	C1498.984985,673.787109 1452.368652,673.787109 1405.375977,673.787109 
	C1405.375977,613.524048 1405.375977,553.123474 1405.375977,492.361267 
	C1451.168701,492.361267 1497.237305,492.361267 1543.653198,492.361267 
	C1543.653198,503.525391 1543.653198,514.929688 1543.653198,526.763916 
	C1511.439941,526.763916 1479.036255,526.763916 1446.317139,526.763916 
	C1446.317139,539.253845 1446.317139,551.323608 1446.317139,564.000000 
	C1462.642700,564.000000 1479.071411,564.000000 1496.000000,564.000000 
z"/>
<path fill="#191936" opacity="1.000000" stroke="none" 
	d="
M337.000000,519.000000 
	C337.000000,545.996582 336.867035,572.494202 337.091187,598.988892 
	C337.148987,605.821350 337.916199,612.715698 339.080383,619.456787 
	C341.446106,633.155640 350.949463,640.340759 363.268768,642.851318 
	C374.257202,645.090698 385.256836,644.572083 395.896332,640.094666 
	C404.505096,636.471924 409.359711,629.776978 410.821503,621.123352 
	C412.290497,612.426758 412.849609,603.492554 412.908356,594.656494 
	C413.134430,560.670532 413.000000,526.682068 413.000000,492.347351 
	C426.524445,492.347351 439.927246,492.347351 454.000000,492.347351 
	C454.000000,493.736267 454.000000,495.323303 454.000000,496.910339 
	C454.000000,535.905273 454.688568,574.916504 453.767090,613.889648 
	C453.111511,641.617310 438.548645,664.398499 408.671661,673.262756 
	C394.054657,677.599548 379.297913,678.767090 364.420502,677.808105 
	C350.515564,676.911865 336.978058,673.633423 324.724548,666.313965 
	C309.867828,657.439453 301.714264,643.961975 298.116211,627.527649 
	C296.798004,621.506775 296.120605,615.227905 296.090240,609.062134 
	C295.908325,572.067810 296.000000,535.072205 296.000000,498.076996 
	C296.000000,496.260681 296.000000,494.444366 296.000000,492.314606 
	C309.591888,492.314606 322.993774,492.314606 337.000000,492.314606 
	C337.000000,500.973236 337.000000,509.736603 337.000000,519.000000 
z"/>
<path fill="#FFFFFF" opacity="1.000000" stroke="none" 
	d="
M711.000000,636.885315 
	C711.000000,622.104370 711.000000,607.812988 711.000000,593.977112 
	C726.320129,593.977112 741.333496,593.853516 756.342285,594.059875 
	C760.335144,594.114807 764.441711,594.747620 768.272949,595.873901 
	C776.409241,598.265747 781.322571,604.068298 782.663513,612.333130 
	C784.980591,626.614441 779.864441,639.355896 763.584900,640.683655 
	C746.336426,642.090515 728.884216,640.999573 711.000000,640.999573 
	C711.000000,640.255554 711.000000,638.815186 711.000000,636.885315 
z"/>
<path fill="#FFFFFF" opacity="1.000000" stroke="none" 
	d="
M723.014404,565.000000 
	C718.873962,565.000000 715.230286,565.000000 711.294434,565.000000 
	C711.294434,551.368103 711.294434,537.968140 711.294434,523.091553 
	C728.386292,524.065430 745.513428,524.431641 762.482544,526.262146 
	C771.137634,527.195862 779.071106,538.495972 774.595825,551.973938 
	C771.791138,560.420837 764.489075,564.555420 754.999207,564.910522 
	C744.516785,565.302673 734.008362,565.000000 723.014404,565.000000 
z"/>
<path fill="#FFFFFF" opacity="1.000000" stroke="none" 
	d="
M888.000000,546.000061 
	C888.000000,538.531982 888.000000,531.563904 888.000000,524.000000 
	C890.642944,524.000000 893.071350,523.954529 895.497620,524.007446 
	C910.056580,524.325134 924.641357,524.230957 939.166443,525.114380 
	C955.147217,526.086426 961.230530,540.013489 958.524536,553.655945 
	C955.562073,568.591858 947.803223,573.997620 932.429443,573.999634 
	C917.810486,574.001465 903.191528,574.000000 888.000000,574.000000 
	C888.000000,564.673401 888.000000,555.586731 888.000000,546.000061 
z"/>
<path fill="#FFFFFF" opacity="1.000000" stroke="none" 
	d="
M1066.213379,552.449463 
	C1072.221680,539.207642 1080.627563,528.784851 1094.775391,524.765808 
	C1113.342896,519.491272 1130.642700,521.807678 1144.548950,536.241272 
	C1153.182983,545.202698 1157.440796,556.670227 1158.904419,568.941711 
	C1159.760986,576.123230 1160.417236,583.477966 1159.844849,590.649597 
	C1158.627319,605.905029 1154.775269,620.393372 1143.057861,631.411316 
	C1131.766357,642.028809 1118.464355,645.311646 1103.126709,643.229187 
	C1092.790527,641.825806 1084.293945,637.806824 1077.069092,630.569885 
	C1069.513916,623.002197 1065.312622,613.582031 1063.148560,603.389038 
	C1061.733276,596.723083 1060.694824,589.693054 1061.228149,582.963989 
	C1062.030029,572.847961 1064.356323,562.852722 1066.213379,552.449463 
z"/>
</svg>