<svg width="50" height="69" viewBox="0 0 50 69" fill="none" xmlns="http://www.w3.org/2000/svg">
<mask id="path-1-inside-1" fill="white">
<path fill-rule="evenodd" clip-rule="evenodd" d="M7.33098 7.94886C12.0177 2.86712 18.372 0.0084783 25 0C31.628 0.0084783 37.9823 2.86712 42.669 7.94886C47.3557 13.0306 49.9922 19.9205 50 27.1071C50.0077 32.9774 48.2393 38.6883 44.9659 43.364L44.9636 43.3714C44.9636 43.3714 44.2795 44.3424 44.1795 44.473L25 69L5.82957 44.4853C5.7182 44.3448 5.03639 43.3714 5.03639 43.3714C1.76134 38.6937 -0.00791179 32.9801 2.65974e-05 27.1071C0.00784584 19.9205 2.64427 13.0306 7.33098 7.94886Z"/>
</mask>
<path fill-rule="evenodd" clip-rule="evenodd" d="M7.33098 7.94886C12.0177 2.86712 18.372 0.0084783 25 0C31.628 0.0084783 37.9823 2.86712 42.669 7.94886C47.3557 13.0306 49.9922 19.9205 50 27.1071C50.0077 32.9774 48.2393 38.6883 44.9659 43.364L44.9636 43.3714C44.9636 43.3714 44.2795 44.3424 44.1795 44.473L25 69L5.82957 44.4853C5.7182 44.3448 5.03639 43.3714 5.03639 43.3714C1.76134 38.6937 -0.00791179 32.9801 2.65974e-05 27.1071C0.00784584 19.9205 2.64427 13.0306 7.33098 7.94886Z" fill="#F34E4E"/>
<path d="M25 0L25.0013 -1L24.9987 -0.999999L25 0ZM7.33098 7.94886L6.59588 7.2709L7.33098 7.94886ZM42.669 7.94886L41.9339 8.62682L42.669 7.94886ZM50 27.1071L49 27.1082V27.1085L50 27.1071ZM44.9659 43.364L44.1467 42.7905L44.0563 42.9196L44.01 43.0702L44.9659 43.364ZM44.9636 43.3714L45.7811 43.9474L45.8727 43.8173L45.9195 43.6652L44.9636 43.3714ZM44.1795 44.473L44.9673 45.089L44.9735 45.0809L44.1795 44.473ZM25 69L24.2123 69.616L25 70.6234L25.7877 69.616L25 69ZM5.82957 44.4853L6.61732 43.8693L6.61317 43.864L5.82957 44.4853ZM5.03639 43.3714L4.2172 43.945L4.21733 43.9451L5.03639 43.3714ZM2.65974e-05 27.1071L1.00003 27.1085L1.00003 27.1082L2.65974e-05 27.1071ZM24.9987 -0.999999C18.0787 -0.991147 11.4624 1.99417 6.59588 7.2709L8.06608 8.62682C12.573 3.74008 18.6653 1.0081 25.0013 0.999999L24.9987 -0.999999ZM43.4041 7.2709C38.5376 1.99417 31.9213 -0.991147 25.0013 -0.999999L24.9987 0.999999C31.3347 1.0081 37.427 3.74008 41.9339 8.62682L43.4041 7.2709ZM51 27.1061C50.9919 19.6795 48.2682 12.5449 43.4041 7.2709L41.9339 8.62682C46.4433 13.5163 48.9924 20.1615 49 27.1082L51 27.1061ZM45.7851 43.9375C49.18 39.0883 51.008 33.1755 51 27.1058L49 27.1085C49.0075 32.7793 47.2986 38.2883 44.1467 42.7905L45.7851 43.9375ZM45.9195 43.6652L45.9218 43.6578L44.01 43.0702L44.0078 43.0776L45.9195 43.6652ZM44.9735 45.0809C45.0382 44.9965 45.2496 44.6989 45.4251 44.4513C45.5172 44.3212 45.6062 44.1952 45.6721 44.1019C45.7051 44.0552 45.7323 44.0166 45.7513 43.9897C45.7608 43.9762 45.7682 43.9657 45.7733 43.9585C45.7758 43.9549 45.7778 43.9521 45.7791 43.9503C45.7797 43.9493 45.7802 43.9486 45.7806 43.9481C45.7807 43.9479 45.7809 43.9477 45.7809 43.9476C45.781 43.9475 45.781 43.9475 45.781 43.9475C45.7811 43.9474 45.7811 43.9474 45.7811 43.9474C45.7811 43.9474 45.7811 43.9474 44.9636 43.3714C44.1461 42.7955 44.1461 42.7955 44.1461 42.7955C44.1461 42.7955 44.1461 42.7955 44.1461 42.7955C44.1461 42.7955 44.1461 42.7956 44.146 42.7956C44.146 42.7957 44.1458 42.7959 44.1457 42.7961C44.1454 42.7966 44.1449 42.7973 44.1442 42.7982C44.143 42.8 44.141 42.8027 44.1385 42.8062C44.1335 42.8133 44.1262 42.8238 44.1168 42.8371C44.098 42.8638 44.0709 42.9021 44.0382 42.9485C43.9727 43.0413 43.8844 43.1662 43.7931 43.2952C43.7016 43.4243 43.6077 43.5565 43.5307 43.6642C43.4922 43.7181 43.4586 43.7649 43.432 43.8016C43.4187 43.82 43.4077 43.835 43.3991 43.8467C43.3949 43.8525 43.3915 43.8571 43.389 43.8604C43.3863 43.864 43.3853 43.8654 43.3855 43.865L44.9735 45.0809ZM25.7877 69.616L44.9673 45.089L43.3918 43.857L24.2123 68.384L25.7877 69.616ZM5.04183 45.1013L24.2123 69.616L25.7877 68.384L6.6173 43.8693L5.04183 45.1013ZM5.03639 43.3714C4.21733 43.9451 4.21733 43.9452 4.21734 43.9452C4.21735 43.9452 4.21736 43.9452 4.21737 43.9452C4.21739 43.9452 4.21743 43.9453 4.21747 43.9454C4.21756 43.9455 4.21769 43.9457 4.21786 43.9459C4.21821 43.9464 4.21871 43.9471 4.21937 43.9481C4.22069 43.9499 4.22264 43.9527 4.22518 43.9564C4.23026 43.9636 4.23771 43.9742 4.24721 43.9878C4.2662 44.0148 4.29343 44.0536 4.32644 44.1006C4.39242 44.1945 4.48168 44.3214 4.57455 44.4528C4.7475 44.6975 4.96812 45.0084 5.04596 45.1065L6.61317 43.864C6.61472 43.866 6.61195 43.8625 6.6029 43.8504C6.59469 43.8395 6.58397 43.8249 6.57064 43.8067C6.54399 43.7703 6.51028 43.7236 6.47138 43.6693C6.39374 43.561 6.29957 43.4283 6.20788 43.2986C6.11638 43.1691 6.02822 43.0438 5.96288 42.9508C5.93023 42.9043 5.90332 42.866 5.88459 42.8393C5.87523 42.826 5.86792 42.8155 5.86296 42.8084C5.86047 42.8049 5.85858 42.8022 5.85732 42.8004C5.85669 42.7995 5.85621 42.7988 5.85589 42.7984C5.85574 42.7981 5.85562 42.798 5.85555 42.7979C5.85551 42.7978 5.85548 42.7978 5.85546 42.7977C5.85545 42.7977 5.85545 42.7977 5.85544 42.7977C5.85544 42.7977 5.85544 42.7977 5.03639 43.3714ZM-0.999972 27.1058C-1.00818 33.1782 0.820673 39.0937 4.2172 43.945L5.85557 42.7979C2.70201 38.2937 0.992357 32.782 1.00003 27.1085L-0.999972 27.1058ZM6.59588 7.2709C1.73182 12.5449 -0.991893 19.6795 -0.999973 27.1061L1.00003 27.1082C1.00758 20.1615 3.55673 13.5163 8.06609 8.62682L6.59588 7.2709Z" fill="#D12421" mask="url(#path-1-inside-1)"/>
<circle cx="25" cy="27" r="11.5" fill="white" stroke="#D12421"/>
</svg>
