<svg width="94" height="94" viewBox="0 0 94 94" fill="none" xmlns="http://www.w3.org/2000/svg">
<g opacity="0.5">
<path d="M74.4167 11.75H19.5833C15.2571 11.75 11.75 15.2571 11.75 19.5833V74.4167C11.75 78.7429 15.2571 82.25 19.5833 82.25H74.4167C78.7429 82.25 82.25 78.7429 82.25 74.4167V19.5833C82.25 15.2571 78.7429 11.75 74.4167 11.75Z" stroke="#F2BA4C" stroke-width="1.5" stroke-linecap="round" stroke-linejoin="round"/>
<path d="M33.291 39.1666C36.5357 39.1666 39.166 36.5363 39.166 33.2916C39.166 30.047 36.5357 27.4166 33.291 27.4166C30.0463 27.4166 27.416 30.047 27.416 33.2916C27.416 36.5363 30.0463 39.1666 33.291 39.1666Z" stroke="#F2BA4C" stroke-width="1.5" stroke-linecap="round" stroke-linejoin="round"/>
<path d="M82.2507 58.75L62.6673 39.1666L19.584 82.25" stroke="#F2BA4C" stroke-width="1.5" stroke-linecap="round" stroke-linejoin="round"/>
</g>
</svg>
