<svg width="18" height="20" viewBox="0 0 18 20" fill="none" xmlns="http://www.w3.org/2000/svg">
<path d="M16.3565 4.15754V17.1715C16.3565 18.7226 15.0928 20 13.5583 20H4.44471C2.90723 20 1.64354 18.7226 1.64354 17.1715V4.15754H0.647639C-0.21588 4.15754 -0.21588 2.83151 0.647639 2.83151H5.75955V1.56022C5.75955 0.729927 6.40343 0 7.24287 0H10.7601C11.5966 0 12.2435 0.732968 12.2435 1.56022V2.83151H17.3524C18.2159 2.83151 18.2159 4.15754 17.3524 4.15754H16.3565ZM7.07137 2.83151H10.9286V1.56022C10.9286 1.4629 10.8715 1.32603 10.7601 1.32603H7.24287C7.12854 1.32603 7.07137 1.4629 7.07137 1.56022V2.83151ZM11.8583 14.9696C11.8583 15.8394 10.5465 15.8394 10.5465 14.9696V7.74939C10.5465 6.87956 11.8583 6.87956 11.8583 7.74939V14.9696ZM7.45349 14.9696C7.45349 15.8394 6.14166 15.8394 6.14166 14.9696V7.74939C6.14166 6.87956 7.45349 6.87652 7.45349 7.74939V14.9696ZM15.0446 4.15754C11.0159 4.15754 6.98713 4.15754 2.95838 4.15754V17.1715C2.95838 17.9988 3.62332 18.674 4.44471 18.674H13.5583C14.3767 18.674 15.0446 17.9988 15.0446 17.1715V4.15754Z" fill="#737B7D"/>
</svg>
