<svg width="18" height="20" viewBox="0 0 18 20" fill="none" xmlns="http://www.w3.org/2000/svg">
<path d="M16.5092 1.43052L15.406 0.679046C13.7742 -0.432599 11.4293 -0.149587 10.1788 1.30993L0.54092 12.5592C0.467467 12.6449 0.42449 12.7486 0.417645 12.8568L0.000972954 19.4325C-0.0106939 19.6165 0.083176 19.7931 0.249547 19.9002C0.352048 19.9661 0.473181 20 0.595325 20C0.671517 20 0.748065 19.9868 0.820744 19.96L7.37856 17.539C7.47523 17.5033 7.55975 17.4453 7.62368 17.3708L17.2141 6.20108C17.8327 5.48064 18.0999 4.58634 17.9664 3.68302C17.833 2.7797 17.3154 1.97974 16.5092 1.43052ZM1.54057 13.9538L5.92057 16.9169L1.24337 18.6437L1.54057 13.9538ZM7.02094 16.319L1.83183 12.8085L9.65859 3.6733L14.8351 7.21807L7.02094 16.319ZM16.2728 5.54357L15.5641 6.36903L10.3866 2.82362L11.1208 1.96664C11.9743 0.970488 13.5749 0.777356 14.6886 1.53603L15.7918 2.28751C16.3421 2.66233 16.6953 3.20833 16.7864 3.82488C16.8774 4.44142 16.6951 5.05175 16.2728 5.54357Z" fill="#737B7D"/>
</svg>
