<svg width="1880" height="1481" viewBox="0 0 1880 1481" fill="none" xmlns="http://www.w3.org/2000/svg">
<g opacity="0.5">
<path fill-rule="evenodd" clip-rule="evenodd" d="M1453.95 474.973C1431.29 498.442 1413.49 526.17 1401.58 556.573C1389.68 586.976 1383.89 619.459 1384.55 652.167C1385.21 684.875 1392.31 717.168 1405.43 747.202C1418.56 777.236 1437.47 804.423 1461.06 827.211C1484.66 849.998 1512.49 867.94 1542.96 880.011C1573.44 892.083 1605.96 898.048 1638.67 897.566C1671.38 897.084 1703.64 890.164 1733.61 877.202C1763.57 864.239 1790.66 845.488 1813.33 822.019L1815.23 823.859C1792.33 847.577 1764.95 866.527 1734.67 879.627C1704.38 892.727 1671.78 899.72 1638.72 900.207C1605.66 900.694 1572.8 894.666 1542 882.466C1511.2 870.267 1483.08 852.135 1459.23 829.106C1435.38 806.077 1416.28 778.602 1403.01 748.249C1389.75 717.897 1382.58 685.261 1381.91 652.206C1381.24 619.151 1387.09 586.323 1399.12 555.598C1411.16 524.872 1429.14 496.851 1452.04 473.133L1453.95 474.973Z" fill="#009645"/>
<path fill-rule="evenodd" clip-rule="evenodd" d="M1519.02 731.392C1516.64 733.849 1514.78 736.754 1513.54 739.938C1512.29 743.123 1511.68 746.526 1511.76 749.953C1511.83 753.38 1512.57 756.764 1513.95 759.911C1515.32 763.058 1517.31 765.908 1519.78 768.296C1522.25 770.685 1525.17 772.566 1528.36 773.832C1531.56 775.098 1534.96 775.725 1538.39 775.676C1541.82 775.627 1545.2 774.903 1548.34 773.547C1551.48 772.19 1554.31 770.227 1556.69 767.769L1558.21 769.239C1555.64 771.895 1552.58 774.017 1549.19 775.483C1545.79 776.95 1542.14 777.732 1538.44 777.784C1534.73 777.837 1531.05 777.16 1527.6 775.792C1524.15 774.423 1520.99 772.39 1518.32 769.809C1515.65 767.227 1513.5 764.147 1512.02 760.746C1510.53 757.344 1509.72 753.687 1509.65 749.983C1509.57 746.279 1510.22 742.601 1511.57 739.159C1512.92 735.717 1514.93 732.578 1517.5 729.922L1519.02 731.392Z" fill="#009645"/>
<path fill-rule="evenodd" clip-rule="evenodd" d="M1669.92 683.472L1599.31 615.284L1503.74 714.259L1574.35 782.446L1669.92 683.472ZM1599.26 612.309L1500.76 714.317L1574.39 785.422L1672.9 683.413L1599.26 612.309Z" fill="#009645"/>
<path fill-rule="evenodd" clip-rule="evenodd" d="M845.57 1103.83C868.269 1080.33 895.393 1061.54 925.393 1048.54C955.393 1035.54 987.682 1028.59 1020.42 1028.08C1053.15 1027.56 1085.69 1033.5 1116.17 1045.56C1146.65 1057.61 1174.49 1075.54 1198.08 1098.33C1221.67 1121.11 1240.57 1148.3 1253.68 1178.35C1266.79 1208.39 1273.86 1240.7 1274.49 1273.43C1275.12 1306.17 1269.3 1338.68 1257.36 1369.12C1245.42 1399.55 1226.33 1429.12 1203.63 1452.62L1206.79 1452.66C1229.73 1428.91 1247.75 1400.85 1259.82 1370.09C1271.89 1339.33 1277.77 1306.47 1277.14 1273.39C1276.5 1240.31 1269.35 1207.66 1256.1 1177.3C1242.85 1146.93 1223.76 1119.45 1199.91 1096.43C1176.07 1073.4 1147.94 1055.28 1117.13 1043.1C1086.33 1030.92 1053.45 1024.92 1020.36 1025.43C987.284 1025.95 954.653 1032.98 924.334 1046.11C894.016 1059.25 866.605 1078.24 843.665 1101.99L845.57 1103.83Z" fill="#009645"/>
<path fill-rule="evenodd" clip-rule="evenodd" d="M1101.01 1159.26C1103.38 1156.8 1106.22 1154.84 1109.36 1153.48C1112.5 1152.13 1115.88 1151.4 1119.3 1151.35C1122.73 1151.3 1126.14 1151.93 1129.33 1153.2C1132.52 1154.46 1135.44 1156.34 1137.91 1158.73C1140.39 1161.12 1142.37 1163.97 1143.75 1167.12C1145.12 1170.26 1145.87 1173.65 1145.94 1177.08C1146.01 1180.5 1145.4 1183.91 1144.16 1187.09C1142.91 1190.28 1141.05 1193.18 1138.68 1195.64L1140.2 1197.11C1142.76 1194.45 1144.78 1191.31 1146.12 1187.87C1147.47 1184.43 1148.12 1180.75 1148.05 1177.05C1147.97 1173.34 1147.17 1169.68 1145.68 1166.28C1144.19 1162.88 1142.05 1159.8 1139.37 1157.22C1136.7 1154.64 1133.55 1152.61 1130.1 1151.24C1126.65 1149.87 1122.96 1149.19 1119.26 1149.24C1115.55 1149.3 1111.9 1150.08 1108.51 1151.55C1105.12 1153.01 1102.05 1155.13 1099.48 1157.79L1101.01 1159.26Z" fill="#009645"/>
<path fill-rule="evenodd" clip-rule="evenodd" d="M1058.38 1311.75L987.774 1243.56L1083.35 1144.58L1153.96 1212.77L1058.38 1311.75ZM984.799 1243.62L1083.3 1141.61L1156.93 1212.71L1058.43 1314.72L984.799 1243.62Z" fill="#009645"/>
<path fill-rule="evenodd" clip-rule="evenodd" d="M1813.21 822.564L1453.04 474.755L844.755 1104.69L1204.92 1452.49L1813.21 822.564ZM1452.98 471L841 1104.75L1204.99 1456.25L1816.97 822.497L1452.98 471Z" fill="#009645"/>
<path fill-rule="evenodd" clip-rule="evenodd" d="M1508.22 1136.71L1146.99 787.876L1148.39 786.431L1509.61 1135.26L1508.22 1136.71Z" fill="#009645"/>
<path fill-rule="evenodd" clip-rule="evenodd" d="M1293.26 997.855C1312.97 1016.89 1344.45 1016.26 1363.57 996.463C1382.69 976.663 1382.21 945.184 1362.5 926.153C1342.79 907.123 1311.32 907.746 1292.2 927.546C1273.08 947.346 1273.56 978.824 1293.26 997.855ZM1292.16 998.993C1312.5 1018.63 1344.97 1017.99 1364.7 997.557C1384.42 977.128 1383.93 944.65 1363.6 925.015C1343.27 905.38 1310.79 906.023 1291.07 926.452C1271.34 946.88 1271.83 979.358 1292.16 998.993Z" fill="#009645"/>
</g>
<g opacity="0.5">
<rect x="0.640849" y="-0.298816" width="307.999" height="661.999" transform="matrix(0.34202 -0.939693 0.939678 0.34206 0.702457 290.771)" stroke="#9C1A87"/>
<line y1="-0.5" x2="662.999" y2="-0.5" transform="matrix(0.939678 0.34206 -0.34202 0.939693 13.0859 254.415)" stroke="#9C1A87"/>
<line y1="-0.5" x2="662.999" y2="-0.5" transform="matrix(0.939678 0.34206 -0.34202 0.939693 90.5859 41.4819)" stroke="#9C1A87"/>
<line y1="-0.5" x2="308.999" y2="-0.5" transform="matrix(0.34202 -0.939693 0.939678 0.34206 310.812 403.506)" stroke="#9C1A87"/>
<line y1="-0.5" x2="357.226" y2="-0.5" transform="matrix(0.939678 0.34206 -0.34202 0.939693 194.998 201.627)" stroke="#9C1A87"/>
<line y1="-0.5" x2="226.599" y2="-0.5" transform="matrix(0.34202 -0.939693 0.939678 0.34206 158.132 307.213)" stroke="#9C1A87"/>
<line y1="-0.5" x2="226.599" y2="-0.5" transform="matrix(0.34202 -0.939693 0.939678 0.34206 492.93 427.522)" stroke="#9C1A87"/>
</g>
</svg>
