<svg width="32" height="32" viewBox="0 0 32 32" fill="none" xmlns="http://www.w3.org/2000/svg">
<path d="M5.80781 0C2.59054 0 0 2.52578 0 5.66261V25.3495C0 28.4863 2.59054 31.0121 5.80781 31.0121H16.7515V18.8883H13.4634V14.5233H16.7515V10.7941C16.7515 7.86428 18.6943 5.17417 23.1696 5.17417C24.9816 5.17417 26.3215 5.34378 26.3215 5.34378L26.2161 9.41994C26.2161 9.41994 24.8496 9.40735 23.3584 9.40735C21.7446 9.40735 21.4858 10.1323 21.4858 11.3359V14.5234H26.3443L26.1326 18.8883H21.4858V31.0121H25.9994C29.2167 31.0121 31.8072 28.4863 31.8072 25.3495V5.66265C31.8072 2.52581 29.2167 3.10121e-05 25.9994 3.10121e-05H5.80778L5.80781 0Z" fill="#009645"/>
</svg>
