<svg width="34" height="34" viewBox="0 0 34 34" fill="none" xmlns="http://www.w3.org/2000/svg">
<path fill-rule="evenodd" clip-rule="evenodd" d="M10.5243 6.4762C10.9537 6.4762 11.3655 6.64677 11.6692 6.9504C11.9728 7.25403 12.1434 7.66585 12.1434 8.09524V11.3333C12.1434 11.7627 11.9728 12.1745 11.6692 12.4782C11.3655 12.7818 10.9537 12.9524 10.5243 12.9524C10.0949 12.9524 9.68311 12.7818 9.37948 12.4782C9.07585 12.1745 8.90527 11.7627 8.90527 11.3333V8.09524C8.90527 7.66585 9.07585 7.25403 9.37948 6.9504C9.68311 6.64677 10.0949 6.4762 10.5243 6.4762V6.4762Z" stroke="#9C1A87" stroke-linecap="round" stroke-linejoin="round"/>
<path d="M29.9531 9.71423H12.1436" stroke="#9C1A87" stroke-linecap="round" stroke-linejoin="round"/>
<path d="M8.90499 9.71423H4.04785" stroke="#9C1A87" stroke-linecap="round" stroke-linejoin="round"/>
<path fill-rule="evenodd" clip-rule="evenodd" d="M10.5243 22.6666C10.9537 22.6666 11.3655 22.8372 11.6692 23.1408C11.9728 23.4445 12.1434 23.8563 12.1434 24.2857V27.5238C12.1434 27.9532 11.9728 28.365 11.6692 28.6686C11.3655 28.9722 10.9537 29.1428 10.5243 29.1428C10.0949 29.1428 9.68311 28.9722 9.37948 28.6686C9.07585 28.365 8.90527 27.9532 8.90527 27.5238V24.2857C8.90527 23.8563 9.07585 23.4445 9.37948 23.1408C9.68311 22.8372 10.0949 22.6666 10.5243 22.6666Z" stroke="#9C1A87" stroke-linecap="round" stroke-linejoin="round"/>
<path d="M29.9531 25.9048H12.1436" stroke="#9C1A87" stroke-linecap="round" stroke-linejoin="round"/>
<path d="M8.90499 25.9048H4.04785" stroke="#9C1A87" stroke-linecap="round" stroke-linejoin="round"/>
<path fill-rule="evenodd" clip-rule="evenodd" d="M23.4765 14.5714C23.9059 14.5714 24.3177 14.742 24.6213 15.0456C24.9249 15.3492 25.0955 15.7611 25.0955 16.1905V19.4286C25.0955 19.858 24.9249 20.2698 24.6213 20.5734C24.3177 20.877 23.9059 21.0476 23.4765 21.0476C23.0471 21.0476 22.6353 20.877 22.3316 20.5734C22.028 20.2698 21.8574 19.858 21.8574 19.4286V16.1905C21.8574 15.7611 22.028 15.3492 22.3316 15.0456C22.6353 14.742 23.0471 14.5714 23.4765 14.5714V14.5714Z" stroke="#9C1A87" stroke-linecap="round" stroke-linejoin="round"/>
<path d="M21.8574 17.8096H4.04785" stroke="#9C1A87" stroke-linecap="round" stroke-linejoin="round"/>
<path d="M29.9528 17.8096H25.0957" stroke="#9C1A87" stroke-linecap="round" stroke-linejoin="round"/>
</svg>
