<svg width="422" height="631" viewBox="0 0 422 631" fill="none" xmlns="http://www.w3.org/2000/svg">
<rect x="13.188" y="12.6118" width="395.679" height="605.777" stroke="#B57FCA"/>
<rect x="86.3247" y="12.6118" width="251.883" height="105.58" stroke="#B57FCA"/>
<rect x="186.732" y="0.500488" width="49.8245" height="12.3225" stroke="#B57FCA"/>
<rect x="152.024" y="12.6118" width="118.004" height="31.7006" stroke="#B57FCA"/>
<mask id="path-5-inside-1" fill="white">
<path d="M254.413 117.48C254.413 120.661 253.307 123.811 251.158 126.75C249.009 129.689 245.858 132.359 241.887 134.608C237.916 136.858 233.201 138.642 228.013 139.859C222.824 141.077 217.263 141.703 211.646 141.703C206.03 141.703 200.469 141.077 195.28 139.859C190.091 138.642 185.377 136.858 181.406 134.608C177.434 132.359 174.284 129.689 172.135 126.75C169.986 123.811 168.879 120.661 168.879 117.48L211.646 117.48L254.413 117.48Z"/>
</mask>
<path d="M254.413 117.48C254.413 120.661 253.307 123.811 251.158 126.75C249.009 129.689 245.858 132.359 241.887 134.608C237.916 136.858 233.201 138.642 228.013 139.859C222.824 141.077 217.263 141.703 211.646 141.703C206.03 141.703 200.469 141.077 195.28 139.859C190.091 138.642 185.377 136.858 181.406 134.608C177.434 132.359 174.284 129.689 172.135 126.75C169.986 123.811 168.879 120.661 168.879 117.48L211.646 117.48L254.413 117.48Z" stroke="#B57FCA" stroke-width="2" mask="url(#path-5-inside-1)"/>
<ellipse cx="211.028" cy="82.3575" rx="3.71886" ry="3.6334" fill="#B57FCA"/>
<rect x="336.968" y="618.389" width="251.883" height="105.58" transform="rotate(180 336.968 618.389)" stroke="#B57FCA"/>
<rect x="236.56" y="630.5" width="49.8245" height="12.3225" transform="rotate(180 236.56 630.5)" stroke="#B57FCA"/>
<rect x="271.269" y="618.389" width="118.004" height="31.7006" transform="rotate(180 271.269 618.389)" stroke="#B57FCA"/>
<mask id="path-10-inside-2" fill="white">
<path d="M168.88 513.52C168.88 510.339 169.986 507.189 172.135 504.25C174.284 501.311 177.435 498.641 181.406 496.392C185.377 494.142 190.092 492.358 195.28 491.141C200.469 489.923 206.03 489.297 211.647 489.297C217.263 489.297 222.824 489.923 228.013 491.141C233.202 492.358 237.916 494.142 241.887 496.392C245.859 498.641 249.009 501.311 251.158 504.25C253.307 507.189 254.414 510.339 254.414 513.52L211.647 513.52H168.88Z"/>
</mask>
<path d="M168.88 513.52C168.88 510.339 169.986 507.189 172.135 504.25C174.284 501.311 177.435 498.641 181.406 496.392C185.377 494.142 190.092 492.358 195.28 491.141C200.469 489.923 206.03 489.297 211.647 489.297C217.263 489.297 222.824 489.923 228.013 491.141C233.202 492.358 237.916 494.142 241.887 496.392C245.859 498.641 249.009 501.311 251.158 504.25C253.307 507.189 254.414 510.339 254.414 513.52L211.647 513.52H168.88Z" stroke="#B57FCA" stroke-width="2" mask="url(#path-10-inside-2)"/>
<ellipse cx="212.265" cy="548.643" rx="3.71886" ry="3.6334" transform="rotate(180 212.265 548.643)" fill="#B57FCA"/>
<mask id="path-12-inside-3" fill="white">
<path d="M25.0829 12.1133C25.0829 13.7038 24.7623 15.2787 24.1393 16.7481C23.5164 18.2175 22.6033 19.5526 21.4522 20.6773C20.3011 21.8019 18.9345 22.694 17.4306 23.3027C15.9266 23.9113 14.3146 24.2246 12.6867 24.2246L12.6867 12.1133L25.0829 12.1133Z"/>
</mask>
<path d="M25.0829 12.1133C25.0829 13.7038 24.7623 15.2787 24.1393 16.7481C23.5164 18.2175 22.6033 19.5526 21.4522 20.6773C20.3011 21.8019 18.9345 22.694 17.4306 23.3027C15.9266 23.9113 14.3146 24.2246 12.6867 24.2246L12.6867 12.1133L25.0829 12.1133Z" stroke="#B57FCA" stroke-width="2" mask="url(#path-12-inside-3)"/>
<mask id="path-13-inside-4" fill="white">
<path d="M396.968 12.1113C396.968 13.7018 397.289 15.2767 397.912 16.7461C398.535 18.2155 399.448 19.5507 400.599 20.6753C401.75 21.8 403.117 22.6921 404.621 23.3007C406.125 23.9094 407.737 24.2226 409.365 24.2226L409.365 12.1113L396.968 12.1113Z"/>
</mask>
<path d="M396.968 12.1113C396.968 13.7018 397.289 15.2767 397.912 16.7461C398.535 18.2155 399.448 19.5507 400.599 20.6753C401.75 21.8 403.117 22.6921 404.621 23.3007C406.125 23.9094 407.737 24.2226 409.365 24.2226L409.365 12.1113L396.968 12.1113Z" stroke="#B57FCA" stroke-width="2" mask="url(#path-13-inside-4)"/>
<mask id="path-14-inside-5" fill="white">
<path d="M25.0839 618.889C25.0839 617.298 24.7633 615.723 24.1403 614.254C23.5173 612.784 22.6042 611.449 21.4532 610.325C20.3021 609.2 18.9355 608.308 17.4315 607.699C15.9276 607.091 14.3156 606.777 12.6877 606.777L12.6877 618.889H25.0839Z"/>
</mask>
<path d="M25.0839 618.889C25.0839 617.298 24.7633 615.723 24.1403 614.254C23.5173 612.784 22.6042 611.449 21.4532 610.325C20.3021 609.2 18.9355 608.308 17.4315 607.699C15.9276 607.091 14.3156 606.777 12.6877 606.777L12.6877 618.889H25.0839Z" stroke="#B57FCA" stroke-width="2" mask="url(#path-14-inside-5)"/>
<mask id="path-15-inside-6" fill="white">
<path d="M396.969 618.889C396.969 617.298 397.289 615.723 397.912 614.254C398.535 612.784 399.448 611.449 400.6 610.325C401.751 609.2 403.117 608.308 404.621 607.699C406.125 607.091 407.737 606.777 409.365 606.777L409.365 618.889H396.969Z"/>
</mask>
<path d="M396.969 618.889C396.969 617.298 397.289 615.723 397.912 614.254C398.535 612.784 399.448 611.449 400.6 610.325C401.751 609.2 403.117 608.308 404.621 607.699C406.125 607.091 407.737 606.777 409.365 606.777L409.365 618.889H396.969Z" stroke="#B57FCA" stroke-width="2" mask="url(#path-15-inside-6)"/>
<line x1="12.686" y1="315.605" x2="409.365" y2="315.605" stroke="#B57FCA"/>
<path d="M267.548 315.5C267.548 347.654 240.866 373.74 207.927 373.74C174.988 373.74 148.305 347.654 148.305 315.5C148.305 283.346 174.988 257.26 207.927 257.26C240.866 257.26 267.548 283.346 267.548 315.5Z" stroke="#B57FCA"/>
<ellipse cx="212.266" cy="314.894" rx="3.71886" ry="3.6334" fill="#B57FCA"/>
</svg>
