<svg width="24" height="24" viewBox="0 0 20 20" fill="none" xmlns="http://www.w3.org/2000/svg">
<path d="M10 0C7.34784 0 4.8043 1.05357 2.92893 2.92893C1.05357 4.8043 0 7.34784 0 10C0 12.6522 1.05357 15.1957 2.92893 17.0711C4.8043 18.9464 7.34784 20 10 20C12.6522 20 15.1957 18.9464 17.0711 17.0711C18.9464 15.1957 20 12.6522 20 10C20 7.34784 18.9464 4.8043 17.0711 2.92893C15.1957 1.05357 12.6522 0 10 0ZM6.365 2.0375L9.3775 3.795V5.92L5.91625 8.36L3.96625 7.65125L3.18375 4.51125C4.03806 3.4512 5.12716 2.60432 6.365 2.0375ZM1.2925 10.865L3.57625 8.84L5.50875 9.54125L6.815 13.6538L5.91875 14.995H2.815C1.96188 13.7716 1.4376 12.3494 1.2925 10.865ZM7.96625 18.5125L6.9475 15.705L7.835 14.3763H12.1687L13.0575 15.705L12.0387 18.5112C10.7001 18.8309 9.30494 18.8309 7.96625 18.5112V18.5125ZM17.185 14.995H14.0875L13.1875 13.6512L14.4688 9.5425L16.4275 8.8375L18.7075 10.865C18.5624 12.3494 18.0381 13.7716 17.185 14.995ZM16.8225 4.52L16.04 7.64875L14.06 8.36125L10.6263 5.92125V3.79625L13.6375 2.0375C14.8775 2.60594 15.968 3.45548 16.8225 4.51875V4.52Z" fill="white"/>
</svg>
