<svg width="24" height="24" viewBox="0 0 24 24" fill="none" xmlns="http://www.w3.org/2000/svg">
<path d="M14.2698 5.99977C13.7198 6.94977 14.0498 8.17977 14.9998 8.72977C15.9498 9.27977 17.1798 8.94977 17.7298 7.99977C18.2798 7.04977 17.9498 5.81977 16.9998 5.26977C16.0498 4.71977 14.8198 5.04977 14.2698 5.99977Z" fill="white"/>
<path d="M15.8398 10.4101L13.2398 8.91007C10.8598 7.53007 10.0398 4.47007 11.4198 2.09007L9.68976 1.09007C8.09976 3.83007 8.59977 7.21007 10.6598 9.40007L5.50977 18.3201L7.23977 19.3201L8.73977 16.7201L10.4698 17.7201L7.46977 22.9201L9.19977 23.9201L15.4898 13.0301C16.0659 13.8118 16.402 14.7444 16.457 15.714C16.5121 16.6835 16.2837 17.6481 15.7998 18.4901L17.5298 19.4901C19.1298 16.7401 18.8098 12.9101 15.8398 10.4101ZM12.7498 3.80007C13.4698 4.21007 14.3798 3.97007 14.7998 3.25007C15.2098 2.53007 14.9698 1.62007 14.2498 1.20007C13.9054 1.00819 13.4994 0.959479 13.1194 1.06447C12.7394 1.16946 12.416 1.41971 12.219 1.76117C12.022 2.10264 11.9673 2.50789 12.0666 2.88939C12.1659 3.27089 12.4113 3.598 12.7498 3.80007Z" fill="white"/>
</svg>
