<svg width="2197" height="2377" viewBox="0 0 2197 2377" fill="none" xmlns="http://www.w3.org/2000/svg">
<g opacity="0.5">
<path fill-rule="evenodd" clip-rule="evenodd" d="M1396.82 213.119C1411.21 241.118 1430.8 266.102 1454.46 286.643C1478.12 307.184 1505.39 322.881 1534.71 332.836C1564.03 342.792 1594.83 346.812 1625.35 344.667C1655.88 342.521 1685.52 334.253 1712.59 320.333C1739.67 306.413 1763.64 287.115 1783.14 263.54C1802.65 239.965 1817.3 212.575 1826.27 182.933C1835.23 153.292 1838.34 121.98 1835.4 90.7852C1832.46 59.5903 1823.54 29.1234 1809.15 1.12405L1811.33 3.40324e-06C1825.88 28.2963 1834.89 59.0862 1837.86 90.6119C1840.83 122.138 1837.7 153.782 1828.64 183.737C1819.58 213.693 1804.77 241.373 1785.06 265.199C1765.34 289.024 1741.12 308.527 1713.76 322.594C1686.39 336.661 1656.44 345.018 1625.59 347.186C1594.75 349.354 1563.62 345.291 1533.98 335.23C1504.35 325.169 1476.79 309.306 1452.88 288.547C1428.97 267.788 1409.18 242.539 1394.63 214.243L1396.82 213.119Z" fill="#008CCC"/>
<path fill-rule="evenodd" clip-rule="evenodd" d="M1643.64 239.646C1645.15 242.578 1647.21 245.193 1649.69 247.34C1652.17 249.488 1655.04 251.127 1658.12 252.163C1661.21 253.199 1664.45 253.612 1667.66 253.379C1670.87 253.146 1674 252.271 1676.85 250.804C1679.7 249.337 1682.23 247.306 1684.29 244.829C1686.35 242.351 1687.9 239.475 1688.85 236.365C1689.8 233.254 1690.14 229.97 1689.84 226.699C1689.54 223.429 1688.61 220.236 1687.1 217.304L1688.85 216.401C1690.48 219.57 1691.49 223.021 1691.81 226.556C1692.14 230.09 1691.78 233.64 1690.75 237.002C1689.72 240.364 1688.05 243.473 1685.82 246.15C1683.59 248.828 1680.86 251.022 1677.78 252.608C1674.69 254.193 1671.32 255.139 1667.85 255.391C1664.37 255.643 1660.87 255.197 1657.54 254.077C1654.21 252.957 1651.11 251.186 1648.42 248.865C1645.74 246.544 1643.52 243.718 1641.89 240.549L1643.64 239.646Z" fill="#008CCC"/>
<path fill-rule="evenodd" clip-rule="evenodd" d="M1644.63 87.9969L1563.18 129.876L1623.88 247.956L1705.34 206.077L1644.63 87.9969ZM1560.51 128.962L1623.07 250.661L1708.01 206.99L1645.45 85.2914L1560.51 128.962Z" fill="#008CCC"/>
<path fill-rule="evenodd" clip-rule="evenodd" d="M1782.31 962.965C1767.89 934.921 1758.95 904.41 1755.99 873.174C1753.03 841.938 1756.11 810.588 1765.06 780.915C1774.01 751.242 1788.65 723.827 1808.15 700.234C1827.64 676.642 1851.61 657.335 1878.69 643.415C1905.76 629.495 1935.41 621.236 1965.94 619.107C1996.47 616.979 2027.28 621.024 2056.62 631.012C2085.96 640.999 2113.25 656.733 2136.93 677.316C2160.61 697.898 2180.22 722.926 2194.64 750.97L2196.82 749.846C2182.25 721.505 2162.44 696.212 2138.5 675.411C2114.57 654.61 2086.99 638.709 2057.34 628.616C2027.69 618.522 1996.55 614.434 1965.7 616.585C1934.85 618.736 1904.88 627.083 1877.52 641.151C1850.16 655.218 1825.94 674.73 1806.23 698.572C1786.53 722.415 1771.74 750.121 1762.69 780.108C1753.65 810.096 1750.53 841.778 1753.52 873.346C1756.51 904.913 1765.55 935.748 1780.12 964.089L1782.31 962.965Z" fill="#008CCC"/>
<path fill-rule="evenodd" clip-rule="evenodd" d="M1904.19 746.439C1902.68 743.507 1901.75 740.315 1901.45 737.044C1901.15 733.774 1901.48 730.489 1902.43 727.379C1903.38 724.268 1904.93 721.392 1906.99 718.914C1909.05 716.437 1911.58 714.407 1914.43 712.94C1917.29 711.473 1920.41 710.598 1923.62 710.365C1926.84 710.131 1930.08 710.545 1933.16 711.581C1936.24 712.617 1939.11 714.255 1941.59 716.403C1944.08 718.551 1946.13 721.165 1947.64 724.097L1949.4 723.195C1947.77 720.026 1945.55 717.2 1942.86 714.879C1940.18 712.557 1937.08 710.786 1933.75 709.666C1930.41 708.547 1926.91 708.1 1923.44 708.352C1919.97 708.604 1916.59 709.55 1913.51 711.135C1910.42 712.721 1907.69 714.915 1905.46 717.593C1903.24 720.27 1901.56 723.379 1900.54 726.741C1899.51 730.103 1899.15 733.653 1899.47 737.188C1899.8 740.722 1900.8 744.173 1902.43 747.342L1904.19 746.439Z" fill="#008CCC"/>
<path fill-rule="evenodd" clip-rule="evenodd" d="M2028.09 833.876L1946.64 875.755L1885.93 757.675L1967.39 715.796L2028.09 833.876ZM1945.82 878.46L1883.26 756.762L1968.2 713.091L2030.76 834.79L1945.82 878.46Z" fill="#008CCC"/>
<path fill-rule="evenodd" clip-rule="evenodd" d="M1810.31 3.38637L1397.98 215.381L1781.32 961.046L2193.65 749.051L1810.31 3.38637ZM1394.63 214.243L1780.3 964.432L2197 750.189L1811.33 -1.03968e-05L1394.63 214.243Z" fill="#008CCC"/>
<path fill-rule="evenodd" clip-rule="evenodd" d="M2004.17 375.096L1587.47 589.339L1586.58 587.615L2003.28 373.372L2004.17 375.096Z" fill="#008CCC"/>
<path fill-rule="evenodd" clip-rule="evenodd" d="M1814.52 520.664C1837.17 509.123 1846.18 481.406 1834.64 458.756C1823.1 436.106 1795.38 427.1 1772.73 438.641C1750.08 450.181 1741.08 477.899 1752.62 500.549C1764.16 523.199 1791.88 532.205 1814.52 520.664ZM1815.19 521.966C1838.56 510.059 1847.85 481.462 1835.94 458.092C1824.03 434.723 1795.44 425.432 1772.07 437.339C1748.7 449.246 1739.41 477.843 1751.32 501.212C1763.22 524.581 1791.82 533.873 1815.19 521.966Z" fill="#008CCC"/>
</g>
<g opacity="0.6">
<rect x="0.688922" y="-0.159265" width="429.448" height="672.933" transform="matrix(0.848194 0.529685 0.529651 -0.848216 1340.37 1764.26)" stroke="#E87D0D"/>
<rect x="0.688922" y="-0.159265" width="273.41" height="117.375" transform="matrix(0.848194 0.529685 0.529651 -0.848216 1407.69 1806.29)" stroke="#E87D0D"/>
<rect x="0.688922" y="-0.159265" width="54.1511" height="13.7969" transform="matrix(0.848194 0.529685 0.529651 -0.848216 1492.98 1875.42)" stroke="#E87D0D"/>
<rect x="0.688922" y="-0.159265" width="128.134" height="35.3197" transform="matrix(0.848194 0.529685 0.529651 -0.848216 1468.16 1844.06)" stroke="#E87D0D"/>
<mask id="path-14-inside-1" fill="white">
<path d="M1624.65 1804.59C1626.52 1801.59 1627.36 1797.99 1627.11 1793.98C1626.86 1789.98 1625.53 1785.65 1623.2 1781.25C1620.87 1776.85 1617.58 1772.46 1613.52 1768.33C1609.46 1764.2 1604.71 1760.41 1599.54 1757.19C1594.37 1753.96 1588.88 1751.35 1583.39 1749.52C1577.9 1747.68 1572.51 1746.65 1567.53 1746.49C1562.55 1746.32 1558.08 1747.03 1554.38 1748.56C1550.67 1750.1 1547.8 1752.43 1545.93 1755.42L1585.29 1780.01L1624.65 1804.59Z"/>
</mask>
<path d="M1624.65 1804.59C1626.52 1801.59 1627.36 1797.99 1627.11 1793.98C1626.86 1789.98 1625.53 1785.65 1623.2 1781.25C1620.87 1776.85 1617.58 1772.46 1613.52 1768.33C1609.46 1764.2 1604.71 1760.41 1599.54 1757.19C1594.37 1753.96 1588.88 1751.35 1583.39 1749.52C1577.9 1747.68 1572.51 1746.65 1567.53 1746.49C1562.55 1746.32 1558.08 1747.03 1554.38 1748.56C1550.67 1750.1 1547.8 1752.43 1545.93 1755.42L1585.29 1780.01L1624.65 1804.59Z" stroke="#E87D0D" stroke-width="2" mask="url(#path-14-inside-1)"/>
<ellipse rx="4.03545" ry="4.03553" transform="matrix(0.848194 0.529685 0.529651 -0.848216 1564.06 1812.74)" fill="#E87D0D"/>
<rect x="-0.688922" y="0.159265" width="273.41" height="117.375" transform="matrix(-0.848194 -0.529685 -0.529651 0.848216 1994.87 1379.61)" stroke="#E87D0D"/>
<rect x="-0.688922" y="0.159265" width="54.1511" height="13.7969" transform="matrix(-0.848194 -0.529685 -0.529651 0.848216 1909.58 1310.49)" stroke="#E87D0D"/>
<rect x="-0.688922" y="0.159265" width="128.134" height="35.3197" transform="matrix(-0.848194 -0.529685 -0.529651 0.848216 1934.4 1341.85)" stroke="#E87D0D"/>
<mask id="path-19-inside-2" fill="white">
<path d="M1778.91 1382.32C1777.04 1385.32 1776.2 1388.92 1776.45 1392.92C1776.7 1396.93 1778.03 1401.25 1780.36 1405.65C1782.69 1410.06 1785.98 1414.45 1790.04 1418.58C1794.1 1422.71 1798.85 1426.49 1804.02 1429.72C1809.19 1432.95 1814.68 1435.55 1820.17 1437.39C1825.66 1439.23 1831.05 1440.25 1836.03 1440.42C1841.01 1440.58 1845.48 1439.88 1849.18 1438.34C1852.89 1436.81 1855.76 1434.48 1857.63 1431.48L1818.27 1406.9L1778.91 1382.32Z"/>
</mask>
<path d="M1778.91 1382.32C1777.04 1385.32 1776.2 1388.92 1776.45 1392.92C1776.7 1396.93 1778.03 1401.25 1780.36 1405.65C1782.69 1410.06 1785.98 1414.45 1790.04 1418.58C1794.1 1422.71 1798.85 1426.49 1804.02 1429.72C1809.19 1432.95 1814.68 1435.55 1820.17 1437.39C1825.66 1439.23 1831.05 1440.25 1836.03 1440.42C1841.01 1440.58 1845.48 1439.88 1849.18 1438.34C1852.89 1436.81 1855.76 1434.48 1857.63 1431.48L1818.27 1406.9L1778.91 1382.32Z" stroke="#E87D0D" stroke-width="2" mask="url(#path-19-inside-2)"/>
<ellipse rx="4.03545" ry="4.03553" transform="matrix(-0.848194 -0.529685 -0.529651 0.848216 1839.5 1374.17)" fill="#E87D0D"/>
<mask id="path-21-inside-3" fill="white">
<path d="M1351.59 1772.04C1352.53 1770.54 1353.16 1768.88 1353.45 1767.13C1353.74 1765.39 1353.69 1763.61 1353.29 1761.89C1352.89 1760.17 1352.16 1758.54 1351.13 1757.1C1350.11 1755.66 1348.81 1754.44 1347.31 1753.51L1340.18 1764.92L1351.59 1772.04Z"/>
</mask>
<path d="M1351.59 1772.04C1352.53 1770.54 1353.16 1768.88 1353.45 1767.13C1353.74 1765.39 1353.69 1763.61 1353.29 1761.89C1352.89 1760.17 1352.16 1758.54 1351.13 1757.1C1350.11 1755.66 1348.81 1754.44 1347.31 1753.51L1340.18 1764.92L1351.59 1772.04Z" stroke="#E87D0D" stroke-width="2" mask="url(#path-21-inside-3)"/>
<mask id="path-22-inside-4" fill="white">
<path d="M1693.88 1985.79C1694.81 1984.29 1696.03 1983 1697.47 1981.97C1698.91 1980.94 1700.54 1980.21 1702.26 1979.81C1703.98 1979.41 1705.76 1979.36 1707.5 1979.65C1709.25 1979.94 1710.91 1980.57 1712.41 1981.51L1705.29 1992.92L1693.88 1985.79Z"/>
</mask>
<path d="M1693.88 1985.79C1694.81 1984.29 1696.03 1983 1697.47 1981.97C1698.91 1980.94 1700.54 1980.21 1702.26 1979.81C1703.98 1979.41 1705.76 1979.36 1707.5 1979.65C1709.25 1979.94 1710.91 1980.57 1712.41 1981.51L1705.29 1992.92L1693.88 1985.79Z" stroke="#E87D0D" stroke-width="2" mask="url(#path-22-inside-4)"/>
<mask id="path-23-inside-5" fill="white">
<path d="M1708.54 1200.4C1707.61 1201.9 1706.38 1203.2 1704.95 1204.22C1703.51 1205.25 1701.88 1205.98 1700.16 1206.38C1698.44 1206.78 1696.66 1206.84 1694.92 1206.54C1693.17 1206.25 1691.51 1205.62 1690.01 1204.69L1697.13 1193.28L1708.54 1200.4Z"/>
</mask>
<path d="M1708.54 1200.4C1707.61 1201.9 1706.38 1203.2 1704.95 1204.22C1703.51 1205.25 1701.88 1205.98 1700.16 1206.38C1698.44 1206.78 1696.66 1206.84 1694.92 1206.54C1693.17 1206.25 1691.51 1205.62 1690.01 1204.69L1697.13 1193.28L1708.54 1200.4Z" stroke="#E87D0D" stroke-width="2" mask="url(#path-23-inside-5)"/>
<mask id="path-24-inside-6" fill="white">
<path d="M2050.83 1414.15C2049.89 1415.65 2049.26 1417.32 2048.97 1419.06C2048.68 1420.8 2048.73 1422.59 2049.13 1424.31C2049.53 1426.03 2050.26 1427.65 2051.29 1429.09C2052.31 1430.53 2053.61 1431.75 2055.11 1432.69L2062.24 1421.28L2050.83 1414.15Z"/>
</mask>
<path d="M2050.83 1414.15C2049.89 1415.65 2049.26 1417.32 2048.97 1419.06C2048.68 1420.8 2048.73 1422.59 2049.13 1424.31C2049.53 1426.03 2050.26 1427.65 2051.29 1429.09C2052.31 1430.53 2053.61 1431.75 2055.11 1432.69L2062.24 1421.28L2050.83 1414.15Z" stroke="#E87D0D" stroke-width="2" mask="url(#path-24-inside-6)"/>
<line y1="-0.5" x2="430.448" y2="-0.5" transform="matrix(0.848194 0.529685 0.529651 -0.848216 1519.01 1478.53)" stroke="#E87D0D"/>
<path d="M1753.27 1625.61C1772.21 1595.28 1762.97 1555.34 1732.65 1536.4C1702.32 1517.46 1662.38 1526.7 1643.45 1557.02C1624.51 1587.35 1633.74 1627.29 1664.07 1646.23C1694.39 1665.17 1734.33 1655.94 1753.27 1625.61Z" stroke="#E87D0D"/>
<ellipse rx="4.03545" ry="4.03553" transform="matrix(0.848194 0.529685 0.529651 -0.848216 1701.99 1594.38)" fill="#E87D0D"/>
</g>
<g opacity="0.7">
<path fill-rule="evenodd" clip-rule="evenodd" d="M223.27 465.409C215.189 494.999 213.02 525.893 216.886 556.326C220.753 586.759 230.579 616.135 245.805 642.777C261.03 669.42 281.356 692.806 305.622 711.602C329.888 730.398 357.62 744.235 387.232 752.322C416.845 760.41 447.759 762.59 478.21 758.739C508.661 754.887 538.053 745.079 564.706 729.874C591.359 714.669 614.753 694.366 633.551 670.123C652.349 645.88 666.183 618.172 674.264 588.582L676.655 589.235C668.489 619.139 654.508 647.141 635.51 671.641C616.513 696.141 592.871 716.659 565.935 732.025C538.999 747.391 509.297 757.304 478.523 761.196C447.749 765.089 416.506 762.885 386.58 754.712C356.653 746.538 328.628 732.555 304.104 713.56C279.581 694.565 259.039 670.93 243.652 644.005C228.266 617.08 218.335 587.392 214.427 556.637C210.52 525.881 212.712 494.66 220.878 464.755L223.27 465.409Z" fill="#009645"/>
<path fill-rule="evenodd" clip-rule="evenodd" d="M390.468 646.791C389.622 649.889 389.399 653.126 389.811 656.315C390.224 659.504 391.264 662.584 392.872 665.378C394.48 668.171 396.626 670.625 399.185 672.598C401.744 674.572 404.668 676.026 407.789 676.879C410.91 677.731 414.167 677.965 417.374 677.566C420.581 677.168 423.676 676.145 426.481 674.557C429.286 672.968 431.747 670.845 433.723 668.308C435.699 665.771 437.152 662.871 437.998 659.772L439.918 660.296C439.004 663.645 437.434 666.78 435.298 669.522C433.162 672.264 430.502 674.559 427.47 676.276C424.439 677.993 421.094 679.098 417.628 679.529C414.161 679.959 410.641 679.707 407.268 678.785C403.895 677.864 400.735 676.292 397.969 674.159C395.203 672.027 392.884 669.375 391.146 666.355C389.408 663.335 388.283 660.007 387.838 656.56C387.392 653.113 387.633 649.615 388.548 646.266L390.468 646.791Z" fill="#009645"/>
<path fill-rule="evenodd" clip-rule="evenodd" d="M493.283 539.109L404.19 514.777L370.111 639.566L459.204 663.899L493.283 539.109ZM402.807 512.344L367.683 640.958L460.588 666.332L495.711 537.717L402.807 512.344Z" fill="#009645"/>
<path fill-rule="evenodd" clip-rule="evenodd" d="M3.34147 1258.12C11.4352 1228.48 25.2824 1200.73 44.0924 1176.44C62.9024 1152.15 86.3067 1131.81 112.969 1116.57C139.632 1101.33 169.03 1091.5 199.486 1087.63C229.942 1083.76 260.859 1085.93 290.472 1094.02C320.085 1102.11 347.813 1115.95 372.074 1134.77C396.336 1153.58 416.654 1176.99 431.871 1203.67C447.087 1230.35 456.902 1259.76 460.757 1290.24C464.612 1320.72 462.43 1351.66 454.336 1381.29L456.727 1381.95C464.907 1351.99 467.112 1320.73 463.216 1289.93C459.321 1259.13 449.401 1229.4 434.024 1202.44C418.646 1175.48 398.112 1151.82 373.593 1132.81C349.075 1113.79 321.052 1099.8 291.125 1091.63C261.199 1083.45 229.954 1081.26 199.175 1085.17C168.396 1089.08 138.686 1099.02 111.741 1114.42C84.7953 1129.82 61.1427 1150.38 42.1333 1174.92C23.1238 1199.47 9.12979 1227.51 0.950195 1257.47L3.34147 1258.12Z" fill="#009645"/>
<path fill-rule="evenodd" clip-rule="evenodd" d="M239.149 1188.44C239.996 1185.34 241.448 1182.44 243.424 1179.91C245.401 1177.37 247.862 1175.25 250.667 1173.66C253.472 1172.07 256.566 1171.05 259.774 1170.65C262.981 1170.25 266.238 1170.48 269.358 1171.34C272.479 1172.19 275.403 1173.64 277.962 1175.62C280.522 1177.59 282.667 1180.04 284.275 1182.84C285.884 1185.63 286.924 1188.71 287.336 1191.9C287.749 1195.09 287.525 1198.33 286.679 1201.42L288.6 1201.95C289.514 1198.6 289.756 1195.1 289.31 1191.66C288.864 1188.21 287.74 1184.88 286.001 1181.86C284.263 1178.84 281.945 1176.19 279.178 1174.06C276.412 1171.92 273.252 1170.35 269.879 1169.43C266.506 1168.51 262.986 1168.26 259.52 1168.69C256.053 1169.12 252.709 1170.22 249.677 1171.94C246.645 1173.66 243.985 1175.95 241.85 1178.69C239.714 1181.43 238.144 1184.57 237.229 1187.92L239.149 1188.44Z" fill="#009645"/>
<path fill-rule="evenodd" clip-rule="evenodd" d="M272.959 1333.44L183.866 1309.11L217.945 1184.32L307.038 1208.65L272.959 1333.44ZM181.438 1310.5L216.561 1181.88L309.466 1207.26L274.342 1335.87L181.438 1310.5Z" fill="#009645"/>
<path fill-rule="evenodd" clip-rule="evenodd" d="M674.405 589.08L219.965 464.966L3.06862 1259.2L457.508 1383.31L674.405 589.08ZM218.213 461.898L0.00101457 1260.95L459.26 1386.38L677.472 587.329L218.213 461.898Z" fill="#009645"/>
<path fill-rule="evenodd" clip-rule="evenodd" d="M564.885 985.901L109.107 861.422L109.605 859.6L565.382 984.079L564.885 985.901Z" fill="#009645"/>
<path fill-rule="evenodd" clip-rule="evenodd" d="M324.751 968.5C349.616 975.291 375.3 960.559 382.118 935.595C388.935 910.631 374.305 884.888 349.439 878.097C324.574 871.306 298.89 886.038 292.072 911.002C285.255 935.966 299.886 961.709 324.751 968.5ZM324.359 969.935C350.014 976.941 376.513 961.742 383.547 935.985C390.581 910.228 375.486 883.669 349.831 876.662C324.176 869.655 297.677 884.855 290.643 910.611C283.609 936.368 298.704 962.928 324.359 969.935Z" fill="#009645"/>
</g>
<rect x="0.697365" y="0.116878" width="302.254" height="650.284" transform="matrix(0.814249 -0.580516 0.580482 0.814273 202.008 1847.1)" stroke="#9C1A87"/>
<line y1="-0.5" x2="651.284" y2="-0.5" transform="matrix(0.580482 0.814273 -0.814249 0.580516 232.52 1824.88)" stroke="#9C1A87"/>
<line y1="-0.5" x2="651.284" y2="-0.5" transform="matrix(0.580482 0.814273 -0.814249 0.580516 413.596 1695.78)" stroke="#9C1A87"/>
<line y1="-0.5" x2="303.254" y2="-0.5" transform="matrix(0.814249 -0.580516 0.580482 0.814273 390.558 2111.25)" stroke="#9C1A87"/>
<line y1="-0.5" x2="350.914" y2="-0.5" transform="matrix(0.580482 0.814273 -0.814249 0.580516 409.062 1883.46)" stroke="#9C1A87"/>
<line y1="-0.5" x2="222.386" y2="-0.5" transform="matrix(0.814249 -0.580516 0.580482 0.814273 320.538 1948.35)" stroke="#9C1A87"/>
<line y1="-0.5" x2="222.386" y2="-0.5" transform="matrix(0.814249 -0.580516 0.580482 0.814273 524.572 2232.07)" stroke="#9C1A87"/>
</svg>
