<svg width="32" height="31" viewBox="0 0 32 31" fill="none" xmlns="http://www.w3.org/2000/svg">
<rect x="0.891602" width="31.012" height="30.7048" rx="4" fill="#9C1A87"/>
<ellipse cx="25.1442" cy="5.90478" rx="1.98795" ry="1.96825" fill="#150223"/>
<path d="M24.7474 15.7461C24.7474 20.0942 21.1872 23.6191 16.7956 23.6191C12.4039 23.6191 8.84375 20.0942 8.84375 15.7461C8.84375 11.3979 12.4039 7.87305 16.7956 7.87305C21.1872 7.87305 24.7474 11.3979 24.7474 15.7461ZM11.651 15.7461C11.651 18.5592 13.9543 20.8396 16.7956 20.8396C19.6368 20.8396 21.9401 18.5592 21.9401 15.7461C21.9401 12.933 19.6368 10.6525 16.7956 10.6525C13.9543 10.6525 11.651 12.933 11.651 15.7461Z" fill="#150223"/>
</svg>
