<svg width="151" height="22" viewBox="0 0 151 22" fill="none" xmlns="http://www.w3.org/2000/svg">
<path d="M5.17218 21.8795L5.47464 21.8192L5.86785 21.789H6.32155L6.71476 21.6986L7.07771 21.6384L7.44067 21.5479L8.22709 21.3671L8.43882 21.2767L8.92276 20.9753L9.37646 20.5836L9.83016 20.0411L9.89065 19.8603L9.98139 19.6795L10.1326 19.4986L10.2536 19.3178L10.3444 19.1069L10.4956 18.7452L10.6771 18.263L10.7678 18.0822L10.8283 17.8712L10.8585 17.6603L10.9493 17.2986L11.1308 16.5452L11.1913 16.3644L11.282 15.7315L11.3122 15.611L11.3425 15.4L11.403 15.2493L11.4332 14.9178L11.4937 14.526V14.3151L11.5542 14.1342V13.8027L11.4332 13.5918L11.2215 13.3808L10.8585 13.3507L9.37646 13.2603H8.74128L7.95487 13.2301L7.71289 13.2603L7.50117 13.5014L7.44067 13.8027L7.28944 14.1945L7.2592 14.4055L7.1987 14.6767L7.10796 15.1288L7.01722 15.4904L6.98698 15.6411L6.95673 15.8219L6.83574 16.2137L6.68451 16.6356L6.44254 17.1781L6.32155 17.3288L5.8981 17.6H5.4444L4.96045 17.6603L4.50675 17.5096L4.26478 17.2986L4.14379 16.8466V16.6356L4.11354 16.4548V16.1534L4.14379 15.7315L4.23453 15.3096V15.0685L4.32527 14.4356L4.29502 14.2247L4.35552 14.0137L4.38576 13.8027V13.5616L4.41601 13.3507L4.50675 13.1397V12.5068L4.59749 12.0548L4.65798 11.8137L4.71848 11.4219L4.74872 11.211L4.86971 10.7288L4.89996 10.4877L5.14193 9.28219L5.29316 8.83014L5.35366 8.40822L5.41415 8.19726L5.4444 8.01644L5.47464 7.80548L5.56538 7.53425L5.65612 7.1726L5.74686 6.72055L5.86785 6.35891V6.17808L6.04933 5.66575L6.20056 5.27397L6.32155 4.76164L6.41229 4.55069L6.50303 4.36986L6.77525 4.03836L7.10796 3.91781L7.47092 3.85753H7.80363L8.22709 3.97808L8.5598 4.1589L8.74128 4.70137V5.15342L8.68079 5.57534L8.65054 5.96712L8.46906 6.63014L8.40857 7.05206L8.28758 7.59452L8.22709 7.80548V8.2274L8.43882 8.55891L9.31597 8.67945L11.2215 8.70959L11.645 8.67945L12.0079 8.64932L12.1289 8.52877L12.2801 7.74521L12.3406 7.50411L12.5221 6.32877L12.5826 5.84658L12.6431 5.39452L12.7036 5.15342L12.7338 4.85206V4.18904L12.7036 3.73699L12.6733 3.46575L12.6431 3.07397L12.6129 2.71233L12.5524 2.38082L12.4011 2.07945L12.3406 1.86849L12.2499 1.71781L12.0987 1.44658L12.0382 1.29589L11.7055 0.99452L11.3122 0.693151L10.8888 0.542466L10.5561 0.482193L10.4351 0.391781L10.2234 0.361645L10.0116 0.30137L9.83016 0.271233L9.40671 0.21096H9.10424L8.83202 0.120548L8.07586 0.0301366H7.59191L7.01722 0.060275H6.56352L6.3518 0.0904116L5.95859 0.180823L5.4444 0.271233L4.80922 0.542466L4.62774 0.632878L4.23453 0.813699L4.05305 0.964384L3.6296 1.3863L3.38762 1.68767L3.1759 1.98904L2.96417 2.16986L2.84318 2.50137L2.66171 2.92329L2.51047 3.28493L2.32899 3.79726L2.20801 4.21918L2.02653 4.82192L1.8148 5.42466L1.72406 5.81644L1.63332 6.0274L1.60307 6.23836L1.57283 6.41918L1.51233 6.63014L1.48209 6.8411L1.39135 7.02192L1.3611 7.32329L1.30061 7.6548L1.24011 7.86575L1.08888 8.46849V8.89041L0.998139 9.07123V9.25206L0.967893 9.6137L0.877153 9.91507L0.81666 10.2466L0.72592 10.5781V10.6986L0.695673 10.789V11.211L0.574686 11.3918L0.483946 11.9342L0.514193 12.0849L0.423453 12.4164L0.36296 12.6575L0.393207 12.9288L0.27222 13.3507L0.211727 13.9836L0.18148 14.1644V14.3753L0.120987 14.7973L0.09074 15.2192L0.0604933 15.4603L0.0302467 16.0932V16.8767L0 17.0877V17.3589L0.0302467 17.6V18.1726L0.09074 18.3836L0.151233 18.7753L0.211727 18.9562L0.302467 19.3479L0.574686 19.7397L0.786413 20.1616L0.937646 20.3123L1.05863 20.463L1.45184 20.7644L1.63332 20.8849L1.78455 21.0055L2.08702 21.1863L2.2685 21.337L2.63146 21.4575L3.02466 21.6082L3.20614 21.6384L3.41787 21.6986L3.72034 21.7288L3.90182 21.7589L4.14379 21.789L4.4765 21.8192L4.68823 21.8493H4.89996L5.17218 21.8795Z" fill="#F2BA4C"/>
<path d="M15.7902 21.6384H16.0019L16.4556 21.5479L16.6976 21.5178L17 21.5479L17.3327 21.4877L17.4235 21.1863V20.8548L17.4537 20.674L17.6655 19.6192L17.8167 18.6548L17.9074 17.9616L18.0284 17.3589L18.1192 16.9973V16.7562L18.3006 15.9726L18.3914 15.4301L18.4519 15.2192L18.4821 14.9178L18.5124 14.6466L18.6031 14.3452L18.6636 13.9233L18.7241 13.4712L18.7543 13.0795L18.8753 12.7479L18.9963 11.9342V11.7534L19.1778 11L19.2685 10.337L19.4198 9.58356L19.5408 8.64932L19.6315 8.10685L19.6617 7.74521L19.7525 7.44384L19.8432 6.87123L19.9037 6.44932L20.0549 5.87671V5.63562L20.1457 5.45479V5.03288L20.1759 4.82192L20.2667 4.46027L20.6901 4.43014H22.5352L22.8074 4.46027H23.745V4.58082L23.7148 4.82192L23.745 5.03288L23.624 5.42466L23.5938 5.63562L23.5031 6.05754L23.4728 6.23836L23.3518 6.6L23.3821 6.81096L23.3518 6.99178L23.2913 7.4137L23.2006 7.62466V8.01644L23.1099 8.64932L23.0191 9.07123L22.9284 9.46301L22.8679 9.82466V10.2164L22.7469 10.4575L22.7167 10.8795L22.6562 11.0904L22.5957 11.5123V11.9342L22.5352 12.3562L22.5049 12.537L22.4142 12.9589V13.1397L22.3537 13.5918L22.142 14.2849L22.1722 14.4959L22.142 14.7069L22.1117 14.8877L22.0512 15.0986V15.3096L21.9907 15.6712L21.9302 15.9425L21.8395 16.2137L21.779 16.4548L21.6883 16.7863L21.658 16.9973L21.5673 17.3589L21.5975 17.5397L21.4765 17.9315L21.4463 18.1425L21.3858 18.3836L21.3556 18.5945L21.2648 19.0466L21.2346 19.2877V19.4685L21.1438 19.8904L21.0228 20.3726L20.9321 21.0055V21.2767L21.2043 21.4274L21.4463 21.4877L21.6883 21.4575L21.9 21.4877L22.2327 21.5178L22.4444 21.4877H22.6864L23.1099 21.5479H23.987L24.1987 21.5781H24.9851L25.3179 21.4877L25.4086 21.2164L25.4388 20.9753L25.5296 20.5836L25.5901 20.1616L25.6808 19.7699L25.8018 19.0466L25.8925 18.7151V18.5041L25.953 18.1123L26.0135 17.6904L26.1043 17.2685V17.0274L26.2253 16.6356L26.2555 16.3945L26.3462 15.9425L26.316 15.611L26.4672 15.3096V14.8877L26.4975 14.737L26.558 14.3452V14.1041L26.679 13.6521V13.411L26.7999 12.989L26.8604 12.6274L27.0117 11.8438V11.6027L27.1024 11.1808L27.1629 10.9699L27.1932 10.6082L27.2839 10.0658L27.3746 9.76438L27.4351 9.3726V9.16164L27.4654 8.92055L27.4956 8.70959V8.43836L27.5864 8.16712L27.6771 7.74521L27.7073 7.59452L27.7981 7.20274L27.8888 6.8411L27.9493 6.44932L27.9796 6.23836L28.0098 5.87671L28.0401 5.66575L28.1006 5.30411L28.161 5.12329L28.2215 4.79178L28.3728 4.00822L28.403 3.8274V3.61644L28.4333 3.43562V3.19452L28.5543 2.92329L28.6147 2.50137L28.7055 2.35069V2.07945L28.7962 1.9589L28.766 1.77808L28.7962 1.44658L28.8567 1.35616V0.964384L28.887 0.783562L28.766 0.482193L28.4333 0.391781L28.2215 0.421918H26.6185L26.4067 0.452054H25.9833L25.7111 0.421918L25.4086 0.452054L24.5012 0.391781L24.2895 0.421918L23.8358 0.452054L19.7827 0.361645L19.1173 0.391781H18.8148L18.5729 0.361645H18.3611L18.0587 0.30137H17.8469L17.6655 0.331508L16.9698 0.391781L16.6976 0.602741L16.6673 0.783562L16.5766 0.964384L16.4858 1.32603L16.5463 1.53699L16.5161 1.71781L16.4858 2.10959L16.4556 2.29041L16.3951 2.47123L16.3649 2.86301L16.3044 3.07397L16.3346 3.2548L16.2439 3.46575V3.67671L16.1531 3.85753L16.0926 4.27945L15.9716 4.67123L15.9414 4.88219L15.9716 5.06301L15.9414 5.27397L15.8809 5.51507L15.7599 5.69589L15.6692 6.32877L15.5784 6.53973L15.4877 7.38356L15.397 7.83562L15.3062 8.25753L15.3365 8.43836L15.276 8.64932L15.1852 8.89041L15.0642 9.79452L14.9433 9.97534L14.913 10.3973L14.8828 10.6384L14.792 10.8493L14.7315 11.3014L14.6105 11.7233V12.1753L14.4291 13.0192L14.3988 13.4712L14.3686 13.6822L14.2778 13.8932L14.1871 14.2849L14.2173 14.4658L14.0964 14.8274V14.9781L14.0359 15.3699L13.9754 15.611V15.8219L13.9149 16.3041L13.7939 16.5452L13.7334 16.937L13.7031 17.3589L13.6729 17.5699L13.6124 17.811V18.0219L13.5519 18.2329V18.5041L13.4612 18.7452L13.4309 19.2274L13.3099 19.6795L13.2494 20.1616L13.189 20.6137L13.1285 20.8849L12.9772 21.1863L13.068 21.5178L13.3402 21.5781H13.5822L14.7013 21.5479H15.0038L15.2155 21.5781H15.4575L15.7902 21.6384Z" fill="#F2BA4C"/>
<path d="M35.6596 22L36.325 21.9096L36.6578 21.8192L36.8695 21.789L37.2929 21.6986L37.5349 21.6384L37.7466 21.6082L38.4423 21.337L38.5633 21.2466L38.9263 21.0055L39.2892 20.7342L39.4404 20.5534L39.6219 20.4027L39.9849 20.0411L40.0454 19.8603L40.1966 19.6795L40.3176 19.4986L40.5898 19.1069L40.7411 18.8959L40.983 18.3534L41.1948 17.9315L41.225 17.6301L41.3762 17.4192L41.467 17.0877V16.8767L41.5577 16.5151L41.7089 16.1836L41.7392 15.8521L41.8299 15.6712L41.9812 15.3096L41.9509 15.1288L42.2534 14.074L42.3441 13.8932L42.4046 13.4712L42.4651 13.2603V12.989L42.5559 12.4466L42.6466 12.2658L42.7373 11.874L42.7676 11.5123L42.8583 11.1205L42.9188 10.7288L43.0398 10.337L43.0095 9.97534L43.1608 9.64384L43.1305 9.34247L43.191 8.86027L43.2515 8.64932L43.2818 8.16712L43.312 7.71507L43.3725 7.29315L43.4028 7.11233V6.81096L43.3725 6.6L43.4028 6.41918L43.4632 6.20822L43.4935 5.81644V5.60548L43.4632 5.2137L43.4935 5.03288L43.5237 4.6411V4.43014L43.4935 4.18904L43.433 3.61644L43.3423 3.16438L43.2818 2.95342L43.2213 2.7726L43.1305 2.59178L42.9491 2.2L42.8583 1.98904L42.7071 1.80822L42.3744 1.50685L42.0417 1.23562L41.8904 1.0548L41.6485 0.904111L41.104 0.542466L40.6503 0.331508L40.4688 0.271233L40.2269 0.241096L39.9849 0.150685L39.5009 0.0904116L39.1682 0.060275L38.9867 0.0301366L38.4423 0L38.0793 0.0301366L37.6559 0.060275L37.1115 0.150685L36.809 0.180823L36.3553 0.30137L36.1738 0.331508L35.7201 0.452054L35.3571 0.632878L34.9942 0.843836L34.7825 0.99452L34.5405 1.08493L34.1473 1.35616L33.7238 1.80822L33.5726 1.98904L33.3609 2.13973L33.1189 2.50137L32.8769 2.89315L32.7559 3.07397L32.7257 3.28493L32.4535 3.67671L32.3325 3.88767L32.151 4.24932L31.9998 4.67123L31.8788 5.03288L31.788 5.24384L31.6066 5.63562L31.5461 6.0274L31.3948 6.23836L31.2738 6.99178L31.2134 7.4137L31.1831 7.59452L31.0924 7.80548L31.0319 8.16712V8.58904L30.9714 8.8L30.7899 9.10137L30.8202 9.28219L30.7597 9.49315V9.67397L30.6992 9.88493L30.6084 10.0658V10.2767L30.5177 10.6384V11.0301L30.4269 11.3918L30.3362 11.9342L30.2757 12.1452L30.2152 12.537L30.2757 12.6877L30.1547 13.1096V13.3205L30.0942 13.7425V13.9836L29.9732 14.4055L29.9128 15.0685V15.2795L29.943 15.5205L29.8523 15.8219V16.3945L29.7918 16.6055L29.8825 17.2082L29.9128 17.389L29.943 17.811L30.0035 17.9918L30.0337 18.2027L30.0942 18.3836L30.1547 18.5342L30.185 18.7151L30.2757 18.926V19.1069L30.5177 19.4986L30.6689 19.7096L30.7597 19.8904L30.9109 20.0411L31.0016 20.1918L31.4251 20.674L31.9695 21.126L32.393 21.3973L32.6047 21.5178L33.0584 21.6384L33.3004 21.6685L33.996 21.8795L34.2683 21.9096L34.48 21.9397L34.8732 21.9096L35.6596 22ZM35.4176 17.9014L35.2362 17.8712L34.9942 17.811L34.7522 17.7205L34.601 17.5699L34.4195 17.2986L34.359 17.1781L34.2683 16.9671V16.1233L34.1775 15.9123L34.2985 15.611L34.3288 15.2493L34.238 15.0384L34.3288 14.8274V14.6164L34.4195 14.1644V13.9233L34.48 13.7123V13.4712L34.5405 13.2L34.5102 13.0795L34.5707 12.8685L34.5405 12.6274L34.6917 12.2055L34.7825 11.9945L34.7522 11.7534L34.7825 11.5425V11.3315L34.843 10.9096L34.9035 10.6986L35.0244 10.2164L35.1152 9.97534L35.1757 9.52329L35.2362 9.31233L35.2664 9.10137L35.3571 8.61918L35.4479 8.19726L35.5689 7.77534L35.5991 7.59452L35.6899 7.1726L35.7201 6.93151V6.87123L35.9016 6.23836L35.9621 5.99726L36.0226 5.7863L36.2041 5.39452L36.325 5.18356L36.446 4.82192L36.6578 4.49041L36.9602 4.21918L37.4442 4.03836L37.6861 3.97808L38.2608 3.94795L38.7448 4.1589L38.9565 4.43014L39.0775 4.61096L39.1985 5.2137L39.138 5.63562L39.1077 6.0274L39.0472 6.56986V6.96164L38.9867 7.23288L38.896 7.6548L38.8355 7.89589L38.8053 8.28767L38.8355 8.49863L38.775 8.70959L38.7145 8.95069L38.654 9.31233L38.533 9.76438L38.5633 10.2767L38.4726 10.4575L38.4121 11.0301L38.3213 11.2712L38.2306 11.5425L38.1701 12.2356L38.0793 12.6877L37.9886 12.9589L38.0189 13.0493V13.2904L37.9281 13.4712L37.8979 13.7123L37.8071 14.1041L37.7164 14.3151L37.6861 14.737L37.5954 14.9781L37.5349 15.4L37.4744 15.611L37.3837 16.063V16.3041L37.3232 16.5151L37.1417 16.937L36.93 17.3589L36.5065 17.6603L36.2343 17.7808L35.8108 17.9014H35.4176Z" fill="#F2BA4C"/>
<path d="M45.7575 21.5479H48.1772L48.389 21.5178L48.4797 21.1562L48.51 20.9151L48.5402 20.6438L48.6309 20.4027L48.6612 20.1918L48.7217 20.011L48.7519 19.8V19.5589L48.8729 19.3781V18.9562L48.9637 18.5041V18.2027L49.0544 17.9918L49.0846 17.7808L49.1754 17.4192L49.2359 17.2082L49.2964 16.8466L49.3871 16.5753L49.4778 16.1534V15.9726L49.5081 15.7616L49.5686 15.5808L49.5988 15.3699L49.6291 15.189L49.6593 14.7973L49.7198 14.6466L49.7501 14.2548L49.8408 14.0137L49.871 13.8027V13.7425L50.3247 13.7726H50.9902L51.5649 13.8027L52.4118 13.7425L52.8352 13.6822L53.2284 13.6521L53.5914 13.5918L54.0753 13.4411L54.4685 13.2603L54.771 13.1699L55.1945 12.9589L55.3457 12.7781L55.7389 12.4767L55.8901 12.2658L56.1019 11.9644L56.3741 11.7233L56.5858 11.3616L56.7673 11.1808L57.0395 10.7288L57.2512 10.3671L57.4025 10.0356L57.6444 9.46301L57.7957 9.0411L57.8864 8.8L57.9772 8.37808L58.0376 8.19726L58.0679 8.01644L58.1586 7.80548L58.1889 7.56438L58.2796 7.35343L58.3401 6.93151L58.4006 6.26849L58.4309 6.05754L58.4913 5.72603L58.5216 5.39452L58.4913 5.06301V4.85206L58.4611 4.4L58.4913 4.09863L58.4006 3.76712L58.3704 3.55617L58.3401 3.22466L58.2191 2.89315L58.1586 2.68219L57.9772 2.29041L57.8864 2.04932L57.7049 1.83836L57.5235 1.59726L57.4025 1.44658L57.1302 1.20548L56.737 0.99452L56.5253 0.904111L56.3136 0.753426L56.1019 0.693151L55.6179 0.602741L54.9827 0.512329L54.5895 0.452054H54.3475L53.8939 0.391781H53.4704L53.0167 0.421918L52.805 0.391781H50.7785L50.597 0.421918L50.2038 0.391781L49.8106 0.421918H48.2377L47.9958 0.542466L47.8748 0.934247L47.8445 1.17534L47.7538 1.59726L47.7235 1.83836L47.6933 2.04932L47.5723 2.53151L47.5118 2.74247V2.92329L47.4816 3.13425L47.4211 3.34521V3.5863L47.3606 3.79726L47.3303 4.1589L47.2396 4.43014L47.1488 4.85206L47.0884 5.09315L47.0581 5.63562L47.0279 5.81644L46.9371 6.20822L46.9674 6.32877L46.9371 6.66027L46.8161 7.14247L46.7859 7.32329L46.7556 7.71507L46.6649 7.92603L46.6044 8.13699L46.5742 8.52877V8.89041L46.4834 9.28219L46.3927 9.76438L46.3322 10.2164L46.3019 10.4575L46.2112 10.8795L46.181 11.0603L46.1205 11.2712L46.0902 11.4521L46.0297 11.663L45.9995 12.0849L45.9692 12.326L45.8785 12.537L45.7878 13.1699L45.7575 13.6219L45.6668 13.8027V14.0137L45.6063 14.1945V14.526L45.455 14.8274V14.9781L45.4248 15.3397L45.3945 15.5205L45.2736 15.9123L45.2131 16.0932L45.1828 16.3041L45.1526 16.6959L45.0618 16.8767L44.9408 17.5699L44.9106 17.7507L44.8804 17.9616L44.7896 18.3233L44.7594 18.5342L44.6686 18.926L44.5779 19.3781L44.4871 19.8V19.9808L44.3964 20.4027L44.4267 20.6137L44.3359 20.7945V21.3671L44.5174 21.5178L45.0618 21.4877L45.2736 21.5178L45.7575 21.5479ZM50.5062 9.94521L50.5365 9.67397L50.6272 9.25206V8.98082L50.7785 8.2274L50.8389 7.95617V7.71507L50.8692 7.35343L50.9599 6.87123L51.0204 6.56986L51.1112 5.96712L51.2019 5.60548L51.2624 5.39452L51.3229 4.88219L51.3531 4.58082L51.4136 4.43014L51.5649 4.06849L51.7766 4.00822L52.4723 3.97808L53.2889 4.00822L53.5611 4.06849L53.8939 4.30959L54.0753 4.58082L54.1963 4.94247V5.45479L54.1358 6.23836L54.0148 7.08219L53.8939 7.59452L53.7729 7.86575L53.7124 8.13699L53.5611 8.55891L53.4402 8.73973L53.2284 9.07123L52.8957 9.3726L52.4118 9.73425L52.2 9.82466L51.6254 9.88493L51.2926 9.94521H50.5062Z" fill="#F2BA4C"/>
<path d="M61.4687 21.6082L61.8317 21.5178H64.4632L64.8261 21.3671L64.8866 21.1863L64.9774 20.7644L65.0378 20.3425L65.2193 19.4986L65.3706 18.8356L65.3403 18.5945L65.4311 18.1726L65.4915 17.9315L65.6428 17.2986L65.7335 16.9069L65.7638 16.6959L65.8848 16.3041L65.9755 15.8219L66.0662 15.4L66.036 15.189L66.0662 15.0082L66.0965 14.7973L66.2175 14.4356L66.2477 14.2247L66.3082 14.0438L66.3385 13.863V13.5616L66.3989 13.2904L66.4897 12.8384L66.5804 12.4164V12.2356L66.6409 12.0548L66.6712 11.6329L66.7922 11.4219L66.8829 11.0603L66.9131 10.6685V10.4575L67.0039 10.2767L67.0946 9.8548L67.1551 9.64384L67.2156 9.19178L67.3668 8.83014V8.61918L67.3971 8.43836L67.4273 8.07671V7.89589L67.5483 7.50411L67.6996 7.08219L67.6391 6.93151L67.76 6.69041L67.881 6.14794L67.9113 5.93699L67.9718 5.54521L68.0323 5.36438V5.18356L68.123 4.9726L68.0928 4.79178L68.1533 4.58082L68.4255 4.55069L69.6958 4.58082H69.9983L70.2705 4.55069H70.6335L70.9057 4.58082L71.2082 4.55069L71.3292 4.27945L71.3594 3.85753L71.4199 3.64658L71.5409 3.2548L71.5711 2.89315L71.6014 2.71233L71.6619 2.50137L71.7224 2.13973V1.9589L71.7828 1.74795L71.8131 1.56712V1.35616L71.8736 1.11507L71.9038 0.904111V0.723287L71.8433 0.482193L71.5711 0.421918L71.1477 0.391781H69.2724L69.0002 0.361645L68.365 0.391781L67.9113 0.361645L65.9755 0.391781H65.3101L65.0983 0.361645H62.8601L62.6484 0.391781H62.4366L62.2854 0.361645H61.499L61.2873 0.391781L61.015 0.602741L60.8638 0.934247L60.8336 1.11507V1.53699L60.7428 1.71781L60.6218 2.10959L60.5916 2.53151L60.5311 2.71233L60.4101 3.13425L60.4404 3.34521V3.5863L60.3496 3.8274L60.2891 4.18904L60.3799 4.46027L60.6521 4.55069H60.8941L61.1965 4.58082H61.4687L61.6805 4.55069L62.1039 4.58082H63.7372L63.707 5.06301L63.6465 5.51507L63.586 5.72603L63.4953 6.11781V6.29863L63.465 6.50959V6.69041L63.4348 6.87123L63.2835 7.35343L63.223 7.56438L63.1928 7.77534V8.01644L63.1323 8.16712V8.46849L62.9811 8.8L63.0113 9.01096L62.9206 9.46301L62.8601 9.64384V9.8548L62.7391 10.0356L62.6786 10.2466V10.5178L62.5879 10.8192V11.2411L62.5274 11.4219L62.3761 11.7836L62.4366 11.9945L62.3761 12.2055L62.2552 12.6575L62.1039 13.0795L62.0434 13.2904L62.0132 13.5014L62.0737 13.8027L61.9224 14.1041L61.8922 14.526L61.8317 14.7069L61.7712 15.0986L61.741 15.3096L61.6805 15.5205L61.5897 15.9726L61.499 16.3342V16.5753L61.3478 17.2082L61.378 17.4493L61.3478 17.6603L61.1965 18.0822V18.2932L61.1663 18.7151L61.1058 18.8959L61.0755 19.3479L61.015 19.5589L60.8033 20.1918L60.7731 20.8247L60.7126 21.2767L60.9848 21.5178H61.1965L61.4687 21.6082Z" fill="#F2BA4C"/>
<path d="M72.241 21.5479H74.6608L74.8725 21.5178L74.9632 21.1562L74.9935 20.9151L75.0237 20.6438L75.1145 20.4027L75.1447 20.1918L75.2052 20.011L75.2355 19.8V19.5589L75.3564 19.3781V18.9562L75.4472 18.5041V18.2027L75.5379 17.9918L75.5682 17.7808L75.6589 17.4192L75.7194 17.2082L75.7799 16.8466L75.8706 16.5753L75.9614 16.1534V15.9726L75.9916 15.7616L76.0521 15.5808L76.0824 15.3699L76.1126 15.189L76.1429 14.7973L76.2034 14.6466L76.2336 14.2548L76.3243 14.0137L76.3546 13.8027V13.7425L76.8083 13.7726H77.4737L78.0484 13.8027L78.8953 13.7425L79.3188 13.6822L79.712 13.6521L80.0749 13.5918L80.5589 13.4411L80.9521 13.2603L81.2545 13.1699L81.678 12.9589L81.8292 12.7781L82.2224 12.4767L82.3737 12.2658L82.5854 11.9644L82.8576 11.7233L83.0693 11.3616L83.2508 11.1808L83.523 10.7288L83.7348 10.3671L83.886 10.0356L84.128 9.46301L84.2792 9.0411L84.3699 8.8L84.4607 8.37808L84.5212 8.19726L84.5514 8.01644L84.6422 7.80548L84.6724 7.56438L84.7632 7.35343L84.8236 6.93151L84.8841 6.26849L84.9144 6.05754L84.9749 5.72603L85.0051 5.39452L84.9749 5.06301V4.85206L84.9446 4.4L84.9749 4.09863L84.8841 3.76712L84.8539 3.55617L84.8236 3.22466L84.7027 2.89315L84.6422 2.68219L84.4607 2.29041L84.3699 2.04932L84.1885 1.83836L84.007 1.59726L83.886 1.44658L83.6138 1.20548L83.2206 0.99452L83.0088 0.904111L82.7971 0.753426L82.5854 0.693151L82.1014 0.602741L81.4663 0.512329L81.0731 0.452054H80.8311L80.3774 0.391781H79.9539L79.5002 0.421918L79.2885 0.391781H77.262L77.0805 0.421918L76.6873 0.391781L76.2941 0.421918H74.7213L74.4793 0.542466L74.3583 0.934247L74.3281 1.17534L74.2373 1.59726L74.2071 1.83836L74.1768 2.04932L74.0558 2.53151L73.9953 2.74247V2.92329L73.9651 3.13425L73.9046 3.34521V3.5863L73.8441 3.79726L73.8139 4.1589L73.7231 4.43014L73.6324 4.85206L73.5719 5.09315L73.5416 5.63562L73.5114 5.81644L73.4207 6.20822L73.4509 6.32877L73.4207 6.66027L73.2997 7.14247L73.2694 7.32329L73.2392 7.71507L73.1484 7.92603L73.0879 8.13699L73.0577 8.52877V8.89041L72.967 9.28219L72.8762 9.76438L72.8157 10.2164L72.7855 10.4575L72.6947 10.8795L72.6645 11.0603L72.604 11.2712L72.5737 11.4521L72.5133 11.663L72.483 12.0849L72.4528 12.326L72.362 12.537L72.2713 13.1699L72.241 13.6219L72.1503 13.8027V14.0137L72.0898 14.1945V14.526L71.9386 14.8274V14.9781L71.9083 15.3397L71.8781 15.5205L71.7571 15.9123L71.6966 16.0932L71.6664 16.3041L71.6361 16.6959L71.5454 16.8767L71.4244 17.5699L71.3941 17.7507L71.3639 17.9616L71.2731 18.3233L71.2429 18.5342L71.1522 18.926L71.0614 19.3781L70.9707 19.8V19.9808L70.8799 20.4027L70.9102 20.6137L70.8194 20.7945V21.3671L71.0009 21.5178L71.5454 21.4877L71.7571 21.5178L72.241 21.5479ZM76.9898 9.94521L77.02 9.67397L77.1107 9.25206V8.98082L77.262 8.2274L77.3225 7.95617V7.71507L77.3527 7.35343L77.4435 6.87123L77.504 6.56986L77.5947 5.96712L77.6854 5.60548L77.7459 5.39452L77.8064 4.88219L77.8367 4.58082L77.8972 4.43014L78.0484 4.06849L78.2601 4.00822L78.9558 3.97808L79.7725 4.00822L80.0447 4.06849L80.3774 4.30959L80.5589 4.58082L80.6799 4.94247V5.45479L80.6194 6.23836L80.4984 7.08219L80.3774 7.59452L80.2564 7.86575L80.1959 8.13699L80.0447 8.55891L79.9237 8.73973L79.712 9.07123L79.3792 9.3726L78.8953 9.73425L78.6836 9.82466L78.1089 9.88493L77.7762 9.94521H76.9898Z" fill="#F2BA4C"/>
<path d="M88.5593 21.5479L88.8013 21.5178L89.2853 21.4877H89.9204L90.1019 21.4575L90.4951 21.4877L90.9791 21.4575H93.8525L93.9432 21.126L94.0037 20.8548L94.034 20.3425L94.1247 19.8904L94.155 19.6795L94.2155 19.4986L94.276 19.2877V18.8959L94.3969 18.2329L94.4272 17.9918L94.4877 17.6603L94.5179 17.5397L94.5482 17.2986L94.3365 17.2082L93.4895 17.2384L92.8241 17.2082L92.4007 17.1781H90.6161L90.1927 17.1178L90.0717 16.9973V16.7562L90.1927 15.9726L90.2834 15.4301L90.3439 15.2192L90.3741 14.9178L90.4346 14.6466L90.5254 14.3452L90.6464 13.5014L90.7371 13.1096L90.8581 12.7781H91.1303L91.5235 12.7479H91.8562L92.3704 12.7781L93.1266 12.7479H93.3988L93.8525 12.7178H94.155L94.2155 12.6575L94.276 12.2356L94.3667 11.7534L94.4272 11.3315L94.5179 11.0904V10.8795L94.6087 10.4274L94.6692 10.2164L94.7599 9.79452L94.8204 9.46301V9.22192L94.8809 8.86027L94.6994 8.61918L94.4574 8.55891H93.671L93.0963 8.61918L92.0377 8.58904H91.4933L91.5538 8.04658L91.6445 7.74521L91.6143 7.50411L91.6747 7.29315L91.7655 6.87123L91.826 6.44932L91.9167 5.87671V5.63562L92.0075 5.45479V5.03288L92.0377 4.82192L92.1284 4.46027L92.8544 4.43014H94.8204L95.1834 4.4H96.4537L96.7562 4.36986L96.8469 3.97808L96.8772 3.79726L96.9982 3.37534V3.13425L97.0889 2.68219L97.1191 2.50137L97.1494 2.29041L97.2401 2.07945V1.89863L97.3006 1.14521V0.964384L97.3914 0.632878L97.2401 0.421918L96.9679 0.391781L96.6654 0.361645L96.3932 0.391781H95.7278L94.8506 0.421918L94.6087 0.391781L93.913 0.361645L91.6445 0.391781L90.9791 0.421918H90.6766L90.4346 0.391781H90.2229L89.8599 0.421918L89.6482 0.391781L89.4667 0.421918H88.9526L88.7106 0.602741L88.6803 0.783562L88.5896 0.964384L88.4988 1.32603L88.5593 1.53699L88.5291 1.71781L88.4988 2.10959L88.4686 2.29041L88.4081 2.47123L88.3779 2.86301L88.3174 3.07397L88.3476 3.2548L88.2569 3.46575V3.67671L88.1661 3.85753L88.1056 4.27945L87.9847 4.67123L87.9544 4.88219L87.9847 5.06301L87.9544 5.27397L87.8939 5.51507L87.7729 5.69589L87.7427 6.32877L87.6519 6.53973L87.6217 7.38356L87.5007 7.83562L87.41 8.25753L87.4402 8.43836L87.3797 8.64932L87.289 8.89041L87.1075 9.79452L86.9865 9.97534V10.1863L86.9563 10.3973L86.926 10.6384L86.8353 10.8493L86.7748 11.3014L86.6538 11.7233V12.1753L86.5328 12.8082L86.4723 13.0192L86.3816 13.4712L86.3513 13.6822L86.2606 13.8932L86.1699 14.2849L86.2001 14.4658L86.0791 14.8274V14.9781L86.0186 15.3699L85.9581 15.611V15.8219L85.8976 16.3041L85.7767 16.5452L85.7162 16.937L85.6859 17.3589L85.6557 17.5699L85.5952 17.811V18.0219L85.5347 18.2329V18.5041L85.4439 18.7452L85.4137 19.2274L85.2927 19.6795L85.2322 20.1616L85.1717 20.6137L85.1112 20.8849L85.0205 21.1562L85.1112 21.4274L85.3834 21.4877H86.9865L87.1982 21.5178H87.9847L88.5593 21.5479Z" fill="#F2BA4C"/>
<path d="M102.458 21.8795L102.76 21.8192L103.153 21.789H103.607L104 21.6986L104.363 21.6384L104.726 21.5479L105.513 21.3671L105.724 21.2767L106.208 20.9753L106.662 20.5836L107.116 20.0411L107.176 19.8603L107.267 19.6795L107.418 19.4986L107.539 19.3178L107.63 19.1069L107.781 18.7452L107.963 18.263L108.053 18.0822L108.114 17.8712L108.144 17.6603L108.235 17.2986L108.416 16.5452L108.477 16.3644L108.567 15.7315L108.598 15.611L108.628 15.4L108.688 15.2493L108.719 14.9178L108.779 14.526V14.3151L108.84 14.1342V13.8027L108.719 13.5918L108.507 13.3808L108.144 13.3507L106.662 13.2603H106.027L105.24 13.2301L104.998 13.2603L104.787 13.5014L104.726 13.8027L104.575 14.1945L104.545 14.4055L104.484 14.6767L104.393 15.1288L104.303 15.4904L104.272 15.6411L104.242 15.8219L104.121 16.2137L103.97 16.6356L103.728 17.1781L103.607 17.3288L103.184 17.6H102.73L102.246 17.6603L101.792 17.5096L101.55 17.2986L101.429 16.8466V16.6356L101.399 16.4548V16.1534L101.429 15.7315L101.52 15.3096V15.0685L101.611 14.4356L101.581 14.2247L101.641 14.0137L101.671 13.8027V13.5616L101.702 13.3507L101.792 13.1397V12.5068L101.883 12.0548L101.943 11.8137L102.004 11.4219L102.034 11.211L102.155 10.7288L102.185 10.4877L102.427 9.28219L102.579 8.83014L102.639 8.40822L102.7 8.19726L102.73 8.01644L102.76 7.80548L102.851 7.53425L102.942 7.1726L103.032 6.72055L103.153 6.35891V6.17808L103.335 5.66575L103.486 5.27397L103.607 4.76164L103.698 4.55069L103.789 4.36986L104.061 4.03836L104.393 3.91781L104.756 3.85753H105.089L105.513 3.97808L105.845 4.1589L106.027 4.70137V5.15342L105.966 5.57534L105.936 5.96712L105.755 6.63014L105.694 7.05206L105.573 7.59452L105.513 7.80548V8.2274L105.724 8.55891L106.601 8.67945L108.507 8.70959L108.93 8.67945L109.293 8.64932L109.414 8.52877L109.566 7.74521L109.626 7.50411L109.808 6.32877L109.868 5.84658L109.929 5.39452L109.989 5.15342L110.019 4.85206V4.18904L109.989 3.73699L109.959 3.46575L109.929 3.07397L109.898 2.71233L109.838 2.38082L109.687 2.07945L109.626 1.86849L109.535 1.71781L109.384 1.44658L109.324 1.29589L108.991 0.99452L108.598 0.693151L108.174 0.542466L107.842 0.482193L107.721 0.391781L107.509 0.361645L107.297 0.30137L107.116 0.271233L106.692 0.21096H106.39L106.118 0.120548L105.361 0.0301366H104.877L104.303 0.060275H103.849L103.637 0.0904116L103.244 0.180823L102.73 0.271233L102.095 0.542466L101.913 0.632878L101.52 0.813699L101.339 0.964384L100.915 1.3863L100.673 1.68767L100.461 1.98904L100.25 2.16986L100.129 2.50137L99.9472 2.92329L99.796 3.28493L99.6145 3.79726L99.4935 4.21918L99.312 4.82192L99.1003 5.42466L99.0096 5.81644L98.9188 6.0274L98.8886 6.23836L98.8583 6.41918L98.7978 6.63014L98.7676 6.8411L98.6768 7.02192L98.6466 7.32329L98.5861 7.6548L98.5256 7.86575L98.3744 8.46849V8.89041L98.2836 9.07123V9.25206L98.2534 9.6137L98.1627 9.91507L98.1022 10.2466L98.0114 10.5781V10.6986L97.9812 10.789V11.211L97.8602 11.3918L97.7694 11.9342L97.7997 12.0849L97.709 12.4164L97.6485 12.6575L97.6787 12.9288L97.5577 13.3507L97.4972 13.9836L97.467 14.1644V14.3753L97.4065 14.7973L97.3762 15.2192L97.346 15.4603L97.3158 16.0932V16.8767L97.2855 17.0877V17.3589L97.3158 17.6V18.1726L97.3762 18.3836L97.4367 18.7753L97.4972 18.9562L97.588 19.3479L97.8602 19.7397L98.0719 20.1616L98.2231 20.3123L98.3441 20.463L98.7373 20.7644L98.9188 20.8849L99.0701 21.0055L99.3725 21.1863L99.554 21.337L99.917 21.4575L100.31 21.6082L100.492 21.6384L100.703 21.6986L101.006 21.7288L101.187 21.7589L101.429 21.789L101.762 21.8192L101.974 21.8493H102.185L102.458 21.8795Z" fill="#F2BA4C"/>
<path d="M112.872 21.5781L113.083 21.5479H113.265L113.688 21.5781L114.233 21.5178L114.354 21.5479L114.656 21.5781L115.382 21.5178L115.957 20.3425L116.169 20.011L116.29 19.8301L116.411 19.4685L116.653 19.0767L116.743 18.8959L117.106 18.1123L117.137 17.9616L117.167 17.7507L117.348 17.4795L117.409 17.2986L117.59 16.937L117.772 16.5452L117.983 16.1836L118.135 15.8219L118.437 14.9178L118.649 14.5863L118.83 14.2849L118.891 14.074L119.163 13.5315L119.254 13.411L119.314 13.2603L119.405 13.0192L119.526 12.8685L119.617 12.5068L119.828 12.1452L119.98 11.9644L120.01 11.8137L120.131 11.6329L120.252 11.211L120.464 10.8493L120.675 10.3671L120.736 10.2164L120.827 10.0658L120.917 9.67397L121.038 9.46301L121.159 9.28219L121.401 8.89041L121.432 8.70959L121.583 8.52877L121.643 8.37808L121.825 7.83562L122.036 7.56438L122.127 7.20274L122.52 6.38904L122.551 6.20822L122.793 5.84658L122.944 5.42466L123.065 5.24384L123.277 4.67123L123.337 4.49041L123.458 4.30959L123.519 4.12877L123.7 3.79726L123.821 3.43562L123.942 3.28493L124.063 2.92329L124.093 2.71233L124.305 2.35069L124.426 1.98904L124.638 1.65753L124.698 1.50685L124.91 1.0548L124.88 0.542466L124.486 0.421918L123.821 0.452054L123.458 0.421918H122.672L122.188 0.482193L121.734 0.421918H121.28L121.069 0.391781L120.796 0.452054L120.675 0.753426L120.433 1.26575L120.343 1.44658L120.222 1.80822L120.101 2.01918L120.01 2.23014L119.738 2.83288L119.707 3.04384L119.647 3.22466L119.375 3.85753L119.284 4.03836L119.072 4.43014L118.83 5.12329L118.619 5.42466L118.467 5.7863L118.225 6.20822L118.195 6.38904L118.074 6.6L117.953 6.93151L117.832 7.08219L117.772 7.26301L116.925 9.40274L116.713 9.73425L116.683 8.73973L116.653 7.95617V7.11233L116.592 6.29863V6.11781L116.532 5.72603L116.471 5.48493L116.411 4.24932L116.38 4.06849L116.29 3.64658V3.22466L116.169 2.86301L116.199 2.50137L116.078 1.80822L115.987 1.3863V0.99452L115.927 0.572603L115.685 0.452054H115.473L115.322 0.421918L114.868 0.452054L114.414 0.421918L114.021 0.452054L113.84 0.421918L113.567 0.452054L113.204 0.421918H112.116L111.934 0.542466L111.874 0.99452V1.17534L111.964 1.56712L112.085 2.01918L112.116 2.32055L112.085 2.62192L112.146 2.7726L112.176 3.19452L112.237 3.46575V3.70685L112.267 3.91781V4.61096L112.448 5.06301L112.418 5.39452L112.509 5.63562L112.569 5.99726L112.66 6.20822L112.751 6.81096L112.72 7.20274L112.841 7.56438L112.872 7.95617V8.10685L112.993 8.52877L113.083 8.83014L113.144 9.34247L113.174 9.58356L113.265 10.1863L113.386 10.8795L113.477 11.4219L113.628 11.9945L113.688 12.8986L113.9 13.7425L113.93 14.3452L114.112 15.0685L114.172 15.4301L114.082 15.6712L113.93 15.8219L113.749 16.274L113.598 16.5753L113.325 17.1479L113.174 17.389L113.083 17.6L112.993 17.8411L112.902 18.0219L112.781 18.2329L112.6 18.7151L112.206 19.3479L111.722 20.4329L111.42 21.0959L111.541 21.5178L112.267 21.4877L112.479 21.5479L112.872 21.5781Z" fill="#F2BA4C"/>
<path d="M124.883 21.5479H127.303L127.515 21.5178L127.605 21.1562L127.636 20.9151L127.666 20.6438L127.757 20.4027L127.787 20.1918L127.847 20.011L127.878 19.8V19.5589L127.999 19.3781V18.9562L128.089 18.5041V18.2027L128.18 17.9918L128.21 17.7808L128.301 17.4192L128.362 17.2082L128.422 16.8466L128.513 16.5753L128.604 16.1534V15.9726L128.634 15.7616L128.694 15.5808L128.725 15.3699L128.755 15.189L128.785 14.7973L128.846 14.6466L128.876 14.2548L128.967 14.0137L128.997 13.8027V13.7425L129.45 13.7726H130.116L130.691 13.8027L131.537 13.7425L131.961 13.6822L132.354 13.6521L132.717 13.5918L133.201 13.4411L133.594 13.2603L133.897 13.1699L134.32 12.9589L134.471 12.7781L134.865 12.4767L135.016 12.2658L135.228 11.9644L135.5 11.7233L135.712 11.3616L135.893 11.1808L136.165 10.7288L136.377 10.3671L136.528 10.0356L136.77 9.46301L136.921 9.0411L137.012 8.8L137.103 8.37808L137.163 8.19726L137.194 8.01644L137.284 7.80548L137.315 7.56438L137.405 7.35343L137.466 6.93151L137.526 6.26849L137.557 6.05754L137.617 5.72603L137.647 5.39452L137.617 5.06301V4.85206L137.587 4.4L137.617 4.09863L137.526 3.76712L137.496 3.55617L137.466 3.22466L137.345 2.89315L137.284 2.68219L137.103 2.29041L137.012 2.04932L136.831 1.83836L136.649 1.59726L136.528 1.44658L136.256 1.20548L135.863 0.99452L135.651 0.904111L135.439 0.753426L135.228 0.693151L134.744 0.602741L134.108 0.512329L133.715 0.452054H133.473L133.02 0.391781H132.596L132.142 0.421918L131.931 0.391781H129.904L129.723 0.421918L129.329 0.391781L128.936 0.421918H127.363L127.121 0.542466L127 0.934247L126.97 1.17534L126.879 1.59726L126.849 1.83836L126.819 2.04932L126.698 2.53151L126.638 2.74247V2.92329L126.607 3.13425L126.547 3.34521V3.5863L126.486 3.79726L126.456 4.1589L126.365 4.43014L126.275 4.85206L126.214 5.09315L126.184 5.63562L126.154 5.81644L126.063 6.20822L126.093 6.32877L126.063 6.66027L125.942 7.14247L125.912 7.32329L125.881 7.71507L125.791 7.92603L125.73 8.13699L125.7 8.52877V8.89041L125.609 9.28219L125.518 9.76438L125.458 10.2164L125.428 10.4575L125.337 10.8795L125.307 11.0603L125.246 11.2712L125.216 11.4521L125.155 11.663L125.125 12.0849L125.095 12.326L125.004 12.537L124.913 13.1699L124.883 13.6219L124.792 13.8027V14.0137L124.732 14.1945V14.526L124.581 14.8274V14.9781L124.55 15.3397L124.52 15.5205L124.399 15.9123L124.339 16.0932L124.309 16.3041L124.278 16.6959L124.188 16.8767L124.067 17.5699L124.036 17.7507L124.006 17.9616L123.915 18.3233L123.885 18.5342L123.794 18.926L123.704 19.3781L123.613 19.8V19.9808L123.522 20.4027L123.552 20.6137L123.462 20.7945V21.3671L123.643 21.5178L124.188 21.4877L124.399 21.5178L124.883 21.5479ZM129.632 9.94521L129.662 9.67397L129.753 9.25206V8.98082L129.904 8.2274L129.965 7.95617V7.71507L129.995 7.35343L130.086 6.87123L130.146 6.56986L130.237 5.96712L130.328 5.60548L130.388 5.39452L130.449 4.88219L130.479 4.58082L130.539 4.43014L130.691 4.06849L130.902 4.00822L131.598 3.97808L132.415 4.00822L132.687 4.06849L133.02 4.30959L133.201 4.58082L133.322 4.94247V5.45479L133.262 6.23836L133.141 7.08219L133.02 7.59452L132.899 7.86575L132.838 8.13699L132.687 8.55891L132.566 8.73973L132.354 9.07123L132.021 9.3726L131.537 9.73425L131.326 9.82466L130.751 9.88493L130.418 9.94521H129.632Z" fill="#F2BA4C"/>
<path d="M143.438 21.8795L143.741 21.8192L144.134 21.789H144.588L144.981 21.6986L145.344 21.6384L145.707 21.5479L146.493 21.3671L146.705 21.2767L147.189 20.9753L147.643 20.5836L148.096 20.0411L148.157 19.8603L148.248 19.6795L148.399 19.4986L148.52 19.3178L148.611 19.1069L148.762 18.7452L148.943 18.263L149.034 18.0822L149.094 17.8712L149.125 17.6603L149.215 17.2986L149.397 16.5452L149.457 16.3644L149.548 15.7315L149.578 15.611L149.609 15.4L149.669 15.2493L149.699 14.9178L149.76 14.526V14.3151L149.82 14.1342V13.8027L149.699 13.5918L149.488 13.3808L149.125 13.3507L147.643 13.2603H147.007L146.221 13.2301L145.979 13.2603L145.767 13.5014L145.707 13.8027L145.556 14.1945L145.525 14.4055L145.465 14.6767L145.374 15.1288L145.283 15.4904L145.253 15.6411L145.223 15.8219L145.102 16.2137L144.951 16.6356L144.709 17.1781L144.588 17.3288L144.164 17.6H143.711L143.227 17.6603L142.773 17.5096L142.531 17.2986L142.41 16.8466V16.6356L142.38 16.4548V16.1534L142.41 15.7315L142.501 15.3096V15.0685L142.591 14.4356L142.561 14.2247L142.622 14.0137L142.652 13.8027V13.5616L142.682 13.3507L142.773 13.1397V12.5068L142.864 12.0548L142.924 11.8137L142.985 11.4219L143.015 11.211L143.136 10.7288L143.166 10.4877L143.408 9.28219L143.559 8.83014L143.62 8.40822L143.68 8.19726L143.711 8.01644L143.741 7.80548L143.832 7.53425L143.922 7.1726L144.013 6.72055L144.134 6.35891V6.17808L144.315 5.66575L144.467 5.27397L144.588 4.76164L144.678 4.55069L144.769 4.36986L145.041 4.03836L145.374 3.91781L145.737 3.85753H146.07L146.493 3.97808L146.826 4.1589L147.007 4.70137V5.15342L146.947 5.57534L146.917 5.96712L146.735 6.63014L146.675 7.05206L146.554 7.59452L146.493 7.80548V8.2274L146.705 8.55891L147.582 8.67945L149.488 8.70959L149.911 8.67945L150.274 8.64932L150.395 8.52877L150.546 7.74521L150.607 7.50411L150.788 6.32877L150.849 5.84658L150.909 5.39452L150.97 5.15342L151 4.85206V4.18904L150.97 3.73699L150.94 3.46575L150.909 3.07397L150.879 2.71233L150.819 2.38082L150.667 2.07945L150.607 1.86849L150.516 1.71781L150.365 1.44658L150.304 1.29589L149.972 0.99452L149.578 0.693151L149.155 0.542466L148.822 0.482193L148.701 0.391781L148.49 0.361645L148.278 0.30137L148.096 0.271233L147.673 0.21096H147.37L147.098 0.120548L146.342 0.0301366H145.858L145.283 0.060275H144.83L144.618 0.0904116L144.225 0.180823L143.711 0.271233L143.075 0.542466L142.894 0.632878L142.501 0.813699L142.319 0.964384L141.896 1.3863L141.654 1.68767L141.442 1.98904L141.23 2.16986L141.109 2.50137L140.928 2.92329L140.777 3.28493L140.595 3.79726L140.474 4.21918L140.293 4.82192L140.081 5.42466L139.99 5.81644L139.899 6.0274L139.869 6.23836L139.839 6.41918L139.779 6.63014L139.748 6.8411L139.658 7.02192L139.627 7.32329L139.567 7.6548L139.506 7.86575L139.355 8.46849V8.89041L139.264 9.07123V9.25206L139.234 9.6137L139.143 9.91507L139.083 10.2466L138.992 10.5781V10.6986L138.962 10.789V11.211L138.841 11.3918L138.75 11.9342L138.78 12.0849L138.69 12.4164L138.629 12.6575L138.659 12.9288L138.538 13.3507L138.478 13.9836L138.448 14.1644V14.3753L138.387 14.7973L138.357 15.2192L138.327 15.4603L138.296 16.0932V16.8767L138.266 17.0877V17.3589L138.296 17.6V18.1726L138.357 18.3836L138.417 18.7753L138.478 18.9562L138.569 19.3479L138.841 19.7397L139.053 20.1616L139.204 20.3123L139.325 20.463L139.718 20.7644L139.899 20.8849L140.051 21.0055L140.353 21.1863L140.535 21.337L140.898 21.4575L141.291 21.6082L141.472 21.6384L141.684 21.6986L141.986 21.7288L142.168 21.7589L142.41 21.789L142.743 21.8192L142.954 21.8493H143.166L143.438 21.8795Z" fill="#F2BA4C"/>
</svg>
