<svg width="105" height="15" viewBox="0 0 105 15" fill="none" xmlns="http://www.w3.org/2000/svg">
<path d="M3.59655 14.9178L3.80687 14.8767L4.08029 14.8562H4.39578L4.6692 14.7945L4.92159 14.7534L5.17398 14.6918L5.72082 14.5685L5.86805 14.5069L6.20457 14.3014L6.52006 14.0342L6.83554 13.6644L6.87761 13.5411L6.9407 13.4178L7.04587 13.2945L7.13 13.1712L7.19309 13.0274L7.29826 12.7808L7.42445 12.4521L7.48755 12.3288L7.52961 12.1849L7.55064 12.0411L7.61374 11.7945L7.73994 11.2808L7.782 11.1575L7.8451 10.726L7.86613 10.6438L7.88716 10.5L7.92923 10.3973L7.95026 10.1712L7.99233 9.90411V9.76027L8.03439 9.63699V9.41096L7.95026 9.26712L7.80303 9.12329L7.55064 9.10274L6.52006 9.0411H6.07837L5.53153 9.02055L5.36327 9.0411L5.21604 9.20548L5.17398 9.41096L5.06882 9.67808L5.04778 9.82192L5.00572 10.0069L4.94262 10.3151L4.87953 10.5616L4.85849 10.6644L4.83746 10.7877L4.75333 11.0548L4.64817 11.3425L4.47991 11.7123L4.39578 11.8151L4.10133 12H3.78584L3.44932 12.0411L3.13383 11.9384L2.96557 11.7945L2.88144 11.4863V11.3425L2.86041 11.2192V11.0137L2.88144 10.726L2.94454 10.4384V10.274L3.00764 9.84247L2.98661 9.69863L3.02867 9.5548L3.0497 9.41096V9.24658L3.07074 9.10274L3.13383 8.95891V8.5274L3.19693 8.21918L3.239 8.0548L3.28106 7.78767L3.30209 7.64384L3.38622 7.31507L3.40725 7.15068L3.57551 6.32877L3.68068 6.02055L3.72274 5.73288L3.76481 5.58904L3.78584 5.46575L3.80687 5.32192L3.86997 5.13699L3.93307 4.89041L3.99616 4.58219L4.08029 4.33562V4.21233L4.20649 3.86301L4.31165 3.59589L4.39578 3.24658L4.45888 3.10274L4.52197 2.97945L4.71127 2.75342L4.94262 2.67123L5.19501 2.63014H5.42637L5.72082 2.71233L5.95218 2.83562L6.07837 3.20548V3.5137L6.03631 3.80137L6.01528 4.06849L5.88908 4.52055L5.84702 4.80822L5.76289 5.17808L5.72082 5.32192V5.60959L5.86805 5.83562L6.47799 5.91781L7.80303 5.93836L8.09749 5.91781L8.34988 5.89726L8.43401 5.81507L8.53917 5.28082L8.58123 5.11644L8.70743 4.31507L8.74949 3.9863L8.79156 3.67808L8.83362 3.5137L8.85466 3.30822V2.85616L8.83362 2.54795L8.81259 2.36301L8.79156 2.09589L8.77053 1.84932L8.72846 1.62329L8.6233 1.41781L8.58123 1.27397L8.51814 1.17123L8.41297 0.986302L8.37091 0.883563L8.13955 0.678082L7.86613 0.472603L7.57168 0.369863L7.34032 0.328768L7.25619 0.267124L7.10896 0.246576L6.96174 0.205479L6.83554 0.184932L6.54109 0.143836H6.33076L6.14147 0.0821919L5.61566 0.0205477H5.27914L4.87953 0.0410966H4.56404L4.41681 0.0616443L4.14339 0.123289L3.78584 0.184932L3.34416 0.369863L3.21796 0.431507L2.94454 0.554795L2.81835 0.657534L2.52389 0.945206L2.35563 1.15068L2.20841 1.35617L2.06118 1.47945L1.97705 1.70548L1.85085 1.99315L1.74569 2.23973L1.6195 2.58904L1.53537 2.87671L1.40917 3.28767L1.26195 3.69863L1.19885 3.96575L1.13575 4.10959L1.11472 4.25343L1.09369 4.37671L1.05162 4.52055L1.03059 4.66438L0.967492 4.78767L0.94646 4.99315L0.904395 5.21918L0.86233 5.36301L0.757168 5.77397V6.06164L0.69407 6.18493V6.30822L0.673038 6.5548L0.609941 6.76027L0.567876 6.9863L0.504779 7.21233V7.29452L0.483746 7.35616V7.64384L0.399616 7.76712L0.336519 8.13699L0.357552 8.23973L0.294454 8.46575L0.252389 8.63014L0.273422 8.81507L0.189292 9.10274L0.147227 9.53425L0.126195 9.65753V9.80137L0.0841298 10.089L0.0630974 10.3767L0.0420649 10.5411L0.0210325 10.9726V11.5068L0 11.6507V11.8356L0.0210325 12V12.3904L0.0630974 12.5342L0.105162 12.8014L0.147227 12.9247L0.210324 13.1918L0.399616 13.4589L0.546843 13.7466L0.652006 13.8493L0.736135 13.9521L1.00956 14.1575L1.13575 14.2397L1.24091 14.3219L1.45124 14.4452L1.57743 14.5479L1.82982 14.6301L2.10324 14.7329L2.22944 14.7534L2.37667 14.7945L2.58699 14.8151L2.71318 14.8356L2.88144 14.8562L3.1128 14.8767L3.26003 14.8973H3.40725L3.59655 14.9178Z" fill="#F2BA4C"/>
<path d="M10.9799 14.7534H11.1271L11.4426 14.6918L11.6109 14.6712L11.8212 14.6918L12.0526 14.6507L12.1157 14.4452V14.2192L12.1367 14.0959L12.2839 13.3767L12.3891 12.7192L12.4522 12.2466L12.5363 11.8356L12.5994 11.589V11.4247L12.7256 10.8904L12.7887 10.5205L12.8308 10.3767L12.8518 10.1712L12.8728 9.9863L12.9359 9.78082L12.978 9.49315L13.0201 9.18493L13.0411 8.91781L13.1252 8.69178L13.2094 8.13699V8.0137L13.3356 7.5L13.3986 7.04795L13.5038 6.53425L13.5879 5.89726L13.651 5.5274L13.6721 5.28082L13.7352 5.07534L13.7983 4.68493L13.8403 4.39726L13.9455 4.00685V3.84247L14.0086 3.71918V3.43151L14.0296 3.28767L14.0927 3.0411L14.3872 3.02055H15.6702L15.8594 3.0411H16.5114V3.12329L16.4904 3.28767L16.5114 3.43151L16.4273 3.69863L16.4063 3.84247L16.3432 4.13014L16.3222 4.25343L16.238 4.5L16.2591 4.64384L16.238 4.76712L16.196 5.05479L16.1329 5.19863V5.46575L16.0698 5.89726L16.0067 6.18493L15.9436 6.45206L15.9015 6.69863V6.96575L15.8174 7.13014L15.7963 7.41781L15.7543 7.56164L15.7122 7.84932V8.13699L15.6702 8.42466L15.6491 8.54795L15.586 8.83562V8.95891L15.544 9.26712L15.3967 9.73973L15.4178 9.88356L15.3967 10.0274L15.3757 10.1507L15.3336 10.2945V10.4384L15.2916 10.6849L15.2495 10.8699L15.1864 11.0548L15.1443 11.2192L15.0812 11.4452L15.0602 11.589L14.9971 11.8356L15.0181 11.9589L14.934 12.226L14.913 12.3699L14.8709 12.5342L14.8499 12.6781L14.7868 12.9863L14.7658 13.1507V13.274L14.7027 13.5616L14.6185 13.8904L14.5554 14.3219V14.5069L14.7447 14.6096L14.913 14.6507L15.0812 14.6301L15.2285 14.6507L15.4598 14.6712L15.6071 14.6507H15.7753L16.0698 14.6918H16.6797L16.8269 14.7123H17.3738L17.6051 14.6507L17.6682 14.4658L17.6893 14.3014L17.7524 14.0342L17.7944 13.7466L17.8575 13.4795L17.9417 12.9863L18.0048 12.7603V12.6164L18.0468 12.3493L18.0889 12.0616L18.152 11.774V11.6096L18.2361 11.3425L18.2571 11.1781L18.3202 10.8699L18.2992 10.6438L18.4044 10.4384V10.1507L18.4254 10.0479L18.4675 9.78082V9.61644L18.5516 9.30822V9.14384L18.6357 8.85617L18.6778 8.60959L18.783 8.07534V7.91096L18.846 7.62329L18.8881 7.47945L18.9091 7.23288L18.9722 6.86301L19.0353 6.65753L19.0774 6.39041V6.24658L19.0984 6.08219L19.1195 5.93836V5.75343L19.1826 5.56849L19.2457 5.28082L19.2667 5.17808L19.3298 4.91096L19.3929 4.66438L19.435 4.39726L19.456 4.25343L19.477 4.00685L19.4981 3.86301L19.5401 3.61644L19.5822 3.49315L19.6243 3.26712L19.7294 2.73288L19.7504 2.60959V2.46575L19.7715 2.34247V2.17808L19.8556 1.99315L19.8977 1.70548L19.9608 1.60274V1.41781L20.0239 1.33562L20.0028 1.21233L20.0239 0.986302L20.0659 0.924658V0.657534L20.087 0.534247L20.0028 0.328768L19.7715 0.267124L19.6243 0.287671H18.5095L18.3623 0.308219H18.0679L17.8786 0.287671L17.6682 0.308219L17.0373 0.267124L16.89 0.287671L16.5745 0.308219L13.7562 0.246576L13.2935 0.267124H13.0832L12.9149 0.246576H12.7677L12.5574 0.205479H12.4101L12.2839 0.226028L11.8002 0.267124L11.6109 0.41096L11.5899 0.534247L11.5268 0.657534L11.4637 0.90411L11.5057 1.04795L11.4847 1.17123L11.4637 1.43836L11.4426 1.56164L11.4006 1.68493L11.3795 1.95206L11.3375 2.09589L11.3585 2.21918L11.2954 2.36301V2.50685L11.2323 2.63014L11.1902 2.91781L11.1061 3.18493L11.0851 3.32877L11.1061 3.45206L11.0851 3.59589L11.043 3.76027L10.9589 3.88356L10.8958 4.31507L10.8327 4.4589L10.7696 5.03425L10.7065 5.34247L10.6434 5.63014L10.6644 5.75343L10.6224 5.89726L10.5593 6.06164L10.4751 6.67808L10.391 6.80137L10.37 7.08904L10.3489 7.25342L10.2858 7.39726L10.2438 7.70548L10.1597 7.99315V8.30137L10.0335 8.87671L10.0124 9.18493L9.99139 9.32877L9.9283 9.4726L9.8652 9.73973L9.88623 9.86301L9.8021 10.1096V10.2123L9.76004 10.4795L9.71797 10.6438V10.7877L9.67591 11.1164L9.59178 11.2808L9.54971 11.5479L9.52868 11.8356L9.50765 11.9795L9.46558 12.1438V12.2877L9.42352 12.4315V12.6164L9.36042 12.7808L9.33939 13.1096L9.25526 13.4178L9.21319 13.7466L9.17113 14.0548L9.12906 14.2397L9.0239 14.4452L9.087 14.6712L9.27629 14.7123H9.44455L10.2227 14.6918H10.4331L10.5803 14.7123H10.7486L10.9799 14.7534Z" fill="#F2BA4C"/>
<path d="M24.7964 15L25.2591 14.9384L25.4905 14.8767L25.6377 14.8562L25.9322 14.7945L26.1004 14.7534L26.2477 14.7329L26.7314 14.5479L26.8155 14.4863L27.0679 14.3219L27.3203 14.137L27.4255 14.0137L27.5517 13.911L27.8041 13.6644L27.8461 13.5411L27.9513 13.4178L28.0354 13.2945L28.2247 13.0274L28.3299 12.8836L28.4981 12.5137L28.6454 12.226L28.6664 12.0205L28.7716 11.8767L28.8346 11.6507V11.5068L28.8977 11.2603L29.0029 11.0342L29.0239 10.8082L29.087 10.6849L29.1922 10.4384L29.1712 10.3151L29.3815 9.59589L29.4446 9.4726L29.4867 9.18493L29.5287 9.0411V8.85617L29.5918 8.4863L29.6549 8.36301L29.718 8.09589L29.739 7.84932L29.8021 7.58219L29.8442 7.31507L29.9283 7.04795L29.9073 6.80137L30.0125 6.57534L29.9914 6.36986L30.0335 6.0411L30.0756 5.89726L30.0966 5.56849L30.1176 5.26027L30.1597 4.9726L30.1807 4.84932V4.64384L30.1597 4.5L30.1807 4.37671L30.2228 4.23288L30.2438 3.96575V3.82192L30.2228 3.5548L30.2438 3.43151L30.2649 3.16438V3.02055L30.2438 2.85616L30.2018 2.46575L30.1387 2.15753L30.0966 2.0137L30.0545 1.89041L29.9914 1.76712L29.8652 1.5L29.8021 1.35617L29.697 1.23288L29.4656 1.0274L29.2343 0.842466L29.1291 0.719179L28.9608 0.616439L28.5823 0.369863L28.2668 0.226028L28.1406 0.184932L27.9723 0.164384L27.8041 0.10274L27.4675 0.0616443L27.2362 0.0410966L27.11 0.0205477L26.7314 0L26.479 0.0205477L26.1846 0.0410966L25.806 0.10274L25.5957 0.123289L25.2802 0.205479L25.154 0.226028L24.8385 0.308219L24.5861 0.431507L24.3337 0.575342L24.1865 0.678082L24.0182 0.739726L23.7448 0.924658L23.4503 1.23288L23.3452 1.35617L23.198 1.4589L23.0297 1.70548L22.8614 1.9726L22.7773 2.09589L22.7563 2.23973L22.567 2.50685L22.4829 2.65069L22.3567 2.89726L22.2515 3.18493L22.1674 3.43151L22.1043 3.57534L21.9781 3.84247L21.936 4.10959L21.8308 4.25343L21.7467 4.76712L21.7047 5.05479L21.6836 5.17808L21.6205 5.32192L21.5785 5.56849V5.85616L21.5364 6L21.4102 6.20548L21.4312 6.32877L21.3892 6.4726V6.59589L21.3471 6.73973L21.284 6.86301V7.00685L21.2209 7.25342V7.52055L21.1578 7.76712L21.0947 8.13699L21.0526 8.28082L21.0106 8.54795L21.0526 8.65069L20.9685 8.93836V9.08219L20.9265 9.36986V9.53425L20.8423 9.82192L20.8003 10.274V10.4178L20.8213 10.5822L20.7582 10.7877V11.1781L20.7161 11.3219L20.7792 11.7329L20.8003 11.8562L20.8213 12.1438L20.8634 12.2671L20.8844 12.411L20.9265 12.5342L20.9685 12.637L20.9895 12.7603L21.0526 12.9041V13.0274L21.2209 13.2945L21.3261 13.4384L21.3892 13.5616L21.4943 13.6644L21.5574 13.7671L21.8519 14.0959L22.2305 14.4041L22.5249 14.589L22.6721 14.6712L22.9876 14.7534L23.1559 14.774L23.6396 14.9178L23.8289 14.9384L23.9762 14.9589L24.2496 14.9384L24.7964 15ZM24.6282 12.2055L24.502 12.1849L24.3337 12.1438L24.1654 12.0822L24.0603 11.9795L23.9341 11.7945L23.892 11.7123L23.8289 11.5685V10.9932L23.7658 10.8493L23.85 10.6438L23.871 10.3973L23.8079 10.2534L23.871 10.1096V9.96575L23.9341 9.65753V9.49315L23.9762 9.34932V9.18493L24.0182 9L23.9972 8.91781L24.0393 8.77397L24.0182 8.60959L24.1234 8.32192L24.1865 8.17808L24.1654 8.0137L24.1865 7.86986V7.72603L24.2285 7.43836L24.2706 7.29452L24.3547 6.96575L24.4178 6.80137L24.4599 6.49315L24.502 6.34932L24.523 6.20548L24.5861 5.87671L24.6492 5.58904L24.7333 5.30137L24.7544 5.17808L24.8175 4.89041L24.8385 4.72603V4.68493L24.9647 4.25343L25.0067 4.08904L25.0488 3.94521L25.175 3.67808L25.2591 3.53425L25.3433 3.28767L25.4905 3.06164L25.7008 2.87671L26.0373 2.75342L26.2056 2.71233L26.6052 2.69178L26.9417 2.83562L27.089 3.02055L27.1731 3.14384L27.2572 3.5548L27.2152 3.84247L27.1941 4.10959L27.1521 4.47945V4.74658L27.11 4.93151L27.0469 5.21918L27.0048 5.38356L26.9838 5.65069L27.0048 5.79452L26.9628 5.93836L26.9207 6.10274L26.8786 6.34932L26.7945 6.65753L26.8155 7.00685L26.7524 7.13014L26.7104 7.52055L26.6473 7.68493L26.5842 7.86986L26.5421 8.34247L26.479 8.65069L26.4159 8.83562L26.437 8.89726V9.06164L26.3739 9.18493L26.3528 9.34932L26.2897 9.61644L26.2266 9.76027L26.2056 10.0479L26.1425 10.2123L26.1004 10.5L26.0584 10.6438L25.9953 10.9521V11.1164L25.9532 11.2603L25.827 11.5479L25.6798 11.8356L25.3853 12.0411L25.196 12.1233L24.9016 12.2055H24.6282Z" fill="#F2BA4C"/>
<path d="M31.8181 14.6918H33.5007L33.648 14.6712L33.7111 14.4247L33.7321 14.2603L33.7531 14.0753L33.8162 13.911L33.8372 13.7671L33.8793 13.6438L33.9003 13.5V13.3356L33.9845 13.2123V12.9247L34.0476 12.6164V12.411L34.1107 12.2671L34.1317 12.1233L34.1948 11.8767L34.2369 11.7329L34.2789 11.4863L34.342 11.3014L34.4051 11.0137V10.8904L34.4262 10.7466L34.4682 10.6233L34.4893 10.4795L34.5103 10.3562L34.5313 10.089L34.5734 9.9863L34.5944 9.71918L34.6575 9.5548L34.6785 9.41096V9.36986L34.994 9.39041H35.4567L35.8564 9.41096L36.4453 9.36986L36.7397 9.32877L37.0131 9.30822L37.2655 9.26712L37.6021 9.16438L37.8755 9.0411L38.0858 8.97945L38.3803 8.83562L38.4854 8.71233L38.7588 8.50685L38.864 8.36301L39.0112 8.15753L39.2005 7.99315L39.3477 7.74658L39.4739 7.62329L39.6632 7.31507L39.8105 7.06849L39.9156 6.84247L40.0839 6.45206L40.189 6.16438L40.2521 6L40.3152 5.71233L40.3573 5.58904L40.3783 5.46575L40.4414 5.32192L40.4625 5.15753L40.5256 5.0137L40.5676 4.72603L40.6097 4.27397L40.6307 4.13014L40.6728 3.90411L40.6938 3.67808L40.6728 3.45206V3.30822L40.6518 3L40.6728 2.79452L40.6097 2.56849L40.5887 2.42466L40.5676 2.19863L40.4835 1.9726L40.4414 1.82877L40.3152 1.56164L40.2521 1.39726L40.1259 1.25342L39.9998 1.08904L39.9156 0.986302L39.7263 0.821918L39.4529 0.678082L39.3057 0.616439L39.1585 0.513699L39.0112 0.472603L38.6747 0.41096L38.233 0.349315L37.9596 0.308219H37.7913L37.4759 0.267124H37.1814L36.8659 0.287671L36.7187 0.267124H35.3095L35.1833 0.287671L34.9099 0.267124L34.6365 0.287671H33.5428L33.3745 0.369863L33.2904 0.636987L33.2694 0.801371L33.2063 1.08904L33.1852 1.25342L33.1642 1.39726L33.0801 1.72603L33.038 1.86986V1.99315L33.017 2.13699L32.9749 2.28082V2.44521L32.9329 2.58904L32.9118 2.83562L32.8487 3.02055L32.7856 3.30822L32.7436 3.4726L32.7225 3.84247L32.7015 3.96575L32.6384 4.23288L32.6594 4.31507L32.6384 4.5411L32.5543 4.86986L32.5332 4.99315L32.5122 5.26027L32.4491 5.40411L32.407 5.54795L32.386 5.81507V6.06164L32.3229 6.32877L32.2598 6.65753L32.2178 6.96575L32.1967 7.13014L32.1336 7.41781L32.1126 7.5411L32.0705 7.68493L32.0495 7.80822L32.0074 7.95206L31.9864 8.23973L31.9654 8.40411L31.9023 8.54795L31.8392 8.97945L31.8181 9.28767L31.755 9.41096V9.5548L31.713 9.67808V9.90411L31.6078 10.1096V10.2123L31.5868 10.4589L31.5657 10.5822L31.4816 10.8493L31.4396 10.9726L31.4185 11.1164L31.3975 11.3836L31.3344 11.5068L31.2503 11.9795L31.2292 12.1027L31.2082 12.2466L31.1451 12.4932L31.1241 12.637L31.061 12.9041L30.9979 13.2123L30.9348 13.5V13.6233L30.8717 13.911L30.8927 14.0548L30.8296 14.1781V14.5685L30.9558 14.6712L31.3344 14.6507L31.4816 14.6712L31.8181 14.6918ZM35.1202 6.78082L35.1413 6.59589L35.2044 6.30822V6.12329L35.3095 5.60959L35.3516 5.42466V5.26027L35.3726 5.0137L35.4357 4.68493L35.4778 4.47945L35.5409 4.06849L35.604 3.82192L35.646 3.67808L35.6881 3.32877L35.7091 3.12329L35.7512 3.02055L35.8564 2.77397L36.0036 2.73288L36.4873 2.71233L37.0552 2.73288L37.2445 2.77397L37.4759 2.93836L37.6021 3.12329L37.6862 3.36986V3.71918L37.6441 4.25343L37.56 4.82877L37.4759 5.17808L37.3917 5.36301L37.3497 5.54795L37.2445 5.83562L37.1604 5.9589L37.0131 6.18493L36.7818 6.39041L36.4453 6.63699L36.298 6.69863L35.8984 6.73973L35.6671 6.78082H35.1202Z" fill="#F2BA4C"/>
<path d="M42.7432 14.7329L42.9956 14.6712H44.8254L45.0778 14.5685L45.1198 14.4452L45.1829 14.1575L45.225 13.8699L45.3512 13.2945L45.4564 12.8425L45.4353 12.6781L45.4984 12.3904L45.5405 12.226L45.6456 11.7945L45.7087 11.5274L45.7298 11.3836L45.8139 11.1164L45.877 10.7877L45.9401 10.5L45.9191 10.3562L45.9401 10.2329L45.9611 10.089L46.0453 9.84247L46.0663 9.69863L46.1084 9.57534L46.1294 9.45206V9.24658L46.1715 9.06164L46.2346 8.75343L46.2976 8.46575V8.34247L46.3397 8.21918L46.3607 7.93151L46.4449 7.78767L46.508 7.5411L46.529 7.27397V7.13014L46.5921 7.00685L46.6552 6.71918L46.6973 6.57534L46.7393 6.26712L46.8445 6.02055V5.87671L46.8655 5.75343L46.8866 5.50685V5.38356L46.9707 5.11644L47.0758 4.82877L47.0338 4.72603L47.1179 4.56164L47.202 4.19178L47.2231 4.04795L47.2651 3.78082L47.3072 3.65753V3.53425L47.3703 3.39041L47.3493 3.26712L47.3913 3.12329L47.5806 3.10274L48.464 3.12329H48.6743L48.8636 3.10274H49.116L49.3053 3.12329L49.5156 3.10274L49.5997 2.91781L49.6208 2.63014L49.6628 2.4863L49.747 2.21918L49.768 1.9726L49.789 1.84932L49.8311 1.70548L49.8732 1.4589V1.33562L49.9152 1.19178L49.9363 1.06849V0.924658L49.9783 0.760274L49.9994 0.616439V0.49315L49.9573 0.328768L49.768 0.287671L49.4735 0.267124H48.1695L47.9802 0.246576L47.5386 0.267124L47.2231 0.246576L45.877 0.267124H45.4143L45.2671 0.246576H43.7107L43.5634 0.267124H43.4162L43.311 0.246576H42.7642L42.617 0.267124L42.4277 0.41096L42.3225 0.636987L42.3015 0.760274V1.04795L42.2384 1.17123L42.1543 1.43836L42.1332 1.72603L42.0912 1.84932L42.007 2.13699L42.0281 2.28082V2.44521L41.965 2.60959L41.9229 2.85616L41.986 3.0411L42.1753 3.10274H42.3436L42.5539 3.12329H42.7432L42.8904 3.10274L43.1848 3.12329H44.3206L44.2996 3.45206L44.2575 3.76027L44.2154 3.90411L44.1523 4.17123V4.29452L44.1313 4.43836V4.56164L44.1103 4.68493L44.0051 5.0137L43.963 5.15753L43.942 5.30137V5.46575L43.8999 5.56849V5.77397L43.7948 6L43.8158 6.14384L43.7527 6.45206L43.7107 6.57534V6.71918L43.6265 6.84247L43.5845 6.9863V7.17123L43.5214 7.37671V7.66438L43.4793 7.78767L43.3741 8.03425L43.4162 8.17808L43.3741 8.32192L43.29 8.63014L43.1848 8.91781L43.1428 9.06164L43.1217 9.20548L43.1638 9.41096L43.0587 9.61644L43.0376 9.90411L42.9956 10.0274L42.9535 10.2945L42.9325 10.4384L42.8904 10.5822L42.8273 10.8904L42.7642 11.137V11.3014L42.659 11.7329L42.6801 11.8973L42.659 12.0411L42.5539 12.3288V12.4726L42.5328 12.7603L42.4908 12.8836L42.4697 13.1918L42.4277 13.3356L42.2805 13.7671L42.2594 14.1986L42.2174 14.5069L42.4066 14.6712H42.5539L42.7432 14.7329Z" fill="#F2BA4C"/>
<path d="M50.2338 14.6918H51.9164L52.0637 14.6712L52.1268 14.4247L52.1478 14.2603L52.1688 14.0753L52.2319 13.911L52.2529 13.7671L52.295 13.6438L52.316 13.5V13.3356L52.4002 13.2123V12.9247L52.4633 12.6164V12.411L52.5264 12.2671L52.5474 12.1233L52.6105 11.8767L52.6526 11.7329L52.6946 11.4863L52.7577 11.3014L52.8208 11.0137V10.8904L52.8419 10.7466L52.8839 10.6233L52.905 10.4795L52.926 10.3562L52.947 10.089L52.9891 9.9863L53.0101 9.71918L53.0732 9.5548L53.0942 9.41096V9.36986L53.4097 9.39041H53.8724L54.2721 9.41096L54.861 9.36986L55.1554 9.32877L55.4288 9.30822L55.6812 9.26712L56.0178 9.16438L56.2912 9.0411L56.5015 8.97945L56.796 8.83562L56.9011 8.71233L57.1745 8.50685L57.2797 8.36301L57.4269 8.15753L57.6162 7.99315L57.7635 7.74658L57.8896 7.62329L58.0789 7.31507L58.2262 7.06849L58.3313 6.84247L58.4996 6.45206L58.6047 6.16438L58.6678 6L58.7309 5.71233L58.773 5.58904L58.794 5.46575L58.8571 5.32192L58.8782 5.15753L58.9413 5.0137L58.9833 4.72603L59.0254 4.27397L59.0464 4.13014L59.0885 3.90411L59.1095 3.67808L59.0885 3.45206V3.30822L59.0675 3L59.0885 2.79452L59.0254 2.56849L59.0044 2.42466L58.9833 2.19863L58.8992 1.9726L58.8571 1.82877L58.7309 1.56164L58.6678 1.39726L58.5416 1.25342L58.4155 1.08904L58.3313 0.986302L58.142 0.821918L57.8686 0.678082L57.7214 0.616439L57.5742 0.513699L57.4269 0.472603L57.0904 0.41096L56.6487 0.349315L56.3753 0.308219H56.207L55.8916 0.267124H55.5971L55.2816 0.287671L55.1344 0.267124H53.7252L53.599 0.287671L53.3256 0.267124L53.0522 0.287671H51.9585L51.7902 0.369863L51.7061 0.636987L51.6851 0.801371L51.622 1.08904L51.6009 1.25342L51.5799 1.39726L51.4958 1.72603L51.4537 1.86986V1.99315L51.4327 2.13699L51.3906 2.28082V2.44521L51.3486 2.58904L51.3275 2.83562L51.2644 3.02055L51.2013 3.30822L51.1593 3.4726L51.1382 3.84247L51.1172 3.96575L51.0541 4.23288L51.0751 4.31507L51.0541 4.5411L50.97 4.86986L50.9489 4.99315L50.9279 5.26027L50.8648 5.40411L50.8227 5.54795L50.8017 5.81507V6.06164L50.7386 6.32877L50.6755 6.65753L50.6335 6.96575L50.6124 7.13014L50.5493 7.41781L50.5283 7.5411L50.4862 7.68493L50.4652 7.80822L50.4231 7.95206L50.4021 8.23973L50.3811 8.40411L50.318 8.54795L50.2549 8.97945L50.2338 9.28767L50.1707 9.41096V9.5548L50.1287 9.67808V9.90411L50.0235 10.1096V10.2123L50.0025 10.4589L49.9814 10.5822L49.8973 10.8493L49.8553 10.9726L49.8342 11.1164L49.8132 11.3836L49.7501 11.5068L49.666 11.9795L49.6449 12.1027L49.6239 12.2466L49.5608 12.4932L49.5398 12.637L49.4767 12.9041L49.4136 13.2123L49.3505 13.5V13.6233L49.2874 13.911L49.3084 14.0548L49.2453 14.1781V14.5685L49.3715 14.6712L49.7501 14.6507L49.8973 14.6712L50.2338 14.6918ZM53.5359 6.78082L53.557 6.59589L53.6201 6.30822V6.12329L53.7252 5.60959L53.7673 5.42466V5.26027L53.7883 5.0137L53.8514 4.68493L53.8935 4.47945L53.9566 4.06849L54.0197 3.82192L54.0617 3.67808L54.1038 3.32877L54.1248 3.12329L54.1669 3.02055L54.2721 2.77397L54.4193 2.73288L54.903 2.71233L55.4709 2.73288L55.6602 2.77397L55.8916 2.93836L56.0178 3.12329L56.1019 3.36986V3.71918L56.0598 4.25343L55.9757 4.82877L55.8916 5.17808L55.8074 5.36301L55.7654 5.54795L55.6602 5.83562L55.5761 5.9589L55.4288 6.18493L55.1975 6.39041L54.861 6.63699L54.7137 6.69863L54.3141 6.73973L54.0828 6.78082H53.5359Z" fill="#F2BA4C"/>
<path d="M61.581 14.6918L61.7493 14.6712L62.0858 14.6507H62.5275L62.6537 14.6301L62.9271 14.6507L63.2636 14.6301H65.2617L65.3248 14.4041L65.3668 14.2192L65.3879 13.8699L65.451 13.5616L65.472 13.4178L65.5141 13.2945L65.5561 13.1507V12.8836L65.6403 12.4315L65.6613 12.2671L65.7034 12.0411L65.7244 11.9589L65.7454 11.7945L65.5982 11.7329L65.0093 11.7534L64.5466 11.7329L64.2521 11.7123H63.0112L62.7168 11.6712L62.6326 11.589V11.4247L62.7168 10.8904L62.7799 10.5205L62.8219 10.3767L62.8429 10.1712L62.885 9.9863L62.9481 9.78082L63.0322 9.20548L63.0953 8.93836L63.1795 8.71233H63.3688L63.6422 8.69178H63.8735L64.2311 8.71233L64.7569 8.69178H64.9462L65.2617 8.67123H65.472L65.5141 8.63014L65.5561 8.34247L65.6192 8.0137L65.6613 7.72603L65.7244 7.56164V7.41781L65.7875 7.10959L65.8296 6.96575L65.8926 6.67808L65.9347 6.45206V6.28767L65.9768 6.0411L65.8506 5.87671L65.6823 5.83562H65.1355L64.7359 5.87671L63.9997 5.85616H63.6211L63.6632 5.4863L63.7263 5.28082L63.7053 5.11644L63.7473 4.9726L63.8104 4.68493L63.8525 4.39726L63.9156 4.00685V3.84247L63.9787 3.71918V3.43151L63.9997 3.28767L64.0628 3.0411L64.5676 3.02055H65.9347L66.1871 3H67.0705L67.2808 2.97945L67.3439 2.71233L67.3649 2.58904L67.4491 2.30137V2.13699L67.5122 1.82877L67.5332 1.70548L67.5542 1.56164L67.6173 1.41781V1.29452L67.6594 0.780822V0.657534L67.7225 0.431507L67.6173 0.287671L67.428 0.267124L67.2177 0.246576L67.0284 0.267124H66.5657L65.9557 0.287671L65.7875 0.267124L65.3037 0.246576L63.7263 0.267124L63.2636 0.287671H63.0533L62.885 0.267124H62.7378L62.4854 0.287671L62.3382 0.267124L62.212 0.287671H61.8544L61.6862 0.41096L61.6651 0.534247L61.602 0.657534L61.5389 0.90411L61.581 1.04795L61.56 1.17123L61.5389 1.43836L61.5179 1.56164L61.4758 1.68493L61.4548 1.95206L61.4127 2.09589L61.4338 2.21918L61.3707 2.36301V2.50685L61.3076 2.63014L61.2655 2.91781L61.1814 3.18493L61.1604 3.32877L61.1814 3.45206L61.1604 3.59589L61.1183 3.76027L61.0342 3.88356L61.0131 4.31507L60.95 4.4589L60.929 5.03425L60.8449 5.34247L60.7818 5.63014L60.8028 5.75343L60.7607 5.89726L60.6976 6.06164L60.5714 6.67808L60.4873 6.80137V6.94521L60.4663 7.08904L60.4452 7.25342L60.3821 7.39726L60.3401 7.70548L60.256 7.99315V8.30137L60.1718 8.73288L60.1298 8.87671L60.0667 9.18493L60.0456 9.32877L59.9825 9.4726L59.9194 9.73973L59.9405 9.86301L59.8563 10.1096V10.2123L59.8143 10.4795L59.7722 10.6438V10.7877L59.7301 11.1164L59.646 11.2808L59.604 11.5479L59.5829 11.8356L59.5619 11.9795L59.5198 12.1438V12.2877L59.4778 12.4315V12.6164L59.4147 12.7808L59.3936 13.1096L59.3095 13.4178L59.2674 13.7466L59.2254 14.0548L59.1833 14.2397L59.1202 14.4247L59.1833 14.6096L59.3726 14.6507H60.4873L60.6345 14.6712H61.1814L61.581 14.6918Z" fill="#F2BA4C"/>
<path d="M71.2454 14.9178L71.4557 14.8767L71.7292 14.8562H72.0446L72.3181 14.7945L72.5704 14.7534L72.8228 14.6918L73.3697 14.5685L73.5169 14.5069L73.8534 14.3014L74.1689 14.0342L74.4844 13.6644L74.5265 13.5411L74.5896 13.4178L74.6947 13.2945L74.7789 13.1712L74.842 13.0274L74.9471 12.7808L75.0733 12.4521L75.1364 12.3288L75.1785 12.1849L75.1995 12.0411L75.2626 11.7945L75.3888 11.2808L75.4309 11.1575L75.494 10.726L75.515 10.6438L75.536 10.5L75.5781 10.3973L75.5991 10.1712L75.6412 9.90411V9.76027L75.6833 9.63699V9.41096L75.5991 9.26712L75.4519 9.12329L75.1995 9.10274L74.1689 9.0411H73.7272L73.1804 9.02055L73.0121 9.0411L72.8649 9.20548L72.8228 9.41096L72.7177 9.67808L72.6966 9.82192L72.6546 10.0069L72.5915 10.3151L72.5284 10.5616L72.5074 10.6644L72.4863 10.7877L72.4022 11.0548L72.297 11.3425L72.1288 11.7123L72.0446 11.8151L71.7502 12H71.4347L71.0982 12.0411L70.7827 11.9384L70.6144 11.7945L70.5303 11.4863V11.3425L70.5093 11.2192V11.0137L70.5303 10.726L70.5934 10.4384V10.274L70.6565 9.84247L70.6355 9.69863L70.6775 9.5548L70.6986 9.41096V9.24658L70.7196 9.10274L70.7827 8.95891V8.5274L70.8458 8.21918L70.8879 8.0548L70.9299 7.78767L70.951 7.64384L71.0351 7.31507L71.0561 7.15068L71.2244 6.32877L71.3295 6.02055L71.3716 5.73288L71.4137 5.58904L71.4347 5.46575L71.4557 5.32192L71.5188 5.13699L71.5819 4.89041L71.645 4.58219L71.7292 4.33562V4.21233L71.8553 3.86301L71.9605 3.59589L72.0446 3.24658L72.1077 3.10274L72.1708 2.97945L72.3601 2.75342L72.5915 2.67123L72.8439 2.63014H73.0752L73.3697 2.71233L73.601 2.83562L73.7272 3.20548V3.5137L73.6852 3.80137L73.6641 4.06849L73.5379 4.52055L73.4959 4.80822L73.4118 5.17808L73.3697 5.32192V5.60959L73.5169 5.83562L74.1268 5.91781L75.4519 5.93836L75.7464 5.91781L75.9987 5.89726L76.0829 5.81507L76.188 5.28082L76.2301 5.11644L76.3563 4.31507L76.3984 3.9863L76.4404 3.67808L76.4825 3.5137L76.5035 3.30822V2.85616L76.4825 2.54795L76.4614 2.36301L76.4404 2.09589L76.4194 1.84932L76.3773 1.62329L76.2722 1.41781L76.2301 1.27397L76.167 1.17123L76.0618 0.986302L76.0198 0.883563L75.7884 0.678082L75.515 0.472603L75.2205 0.369863L74.9892 0.328768L74.9051 0.267124L74.7578 0.246576L74.6106 0.205479L74.4844 0.184932L74.1899 0.143836H73.9796L73.7903 0.0821919L73.2645 0.0205477H72.928L72.5284 0.0410966H72.2129L72.0657 0.0616443L71.7922 0.123289L71.4347 0.184932L70.993 0.369863L70.8668 0.431507L70.5934 0.554795L70.4672 0.657534L70.1728 0.945206L70.0045 1.15068L69.8573 1.35617L69.71 1.47945L69.6259 1.70548L69.4997 1.99315L69.3946 2.23973L69.2684 2.58904L69.1842 2.87671L69.058 3.28767L68.9108 3.69863L68.8477 3.96575L68.7846 4.10959L68.7636 4.25343L68.7425 4.37671L68.7005 4.52055L68.6795 4.66438L68.6164 4.78767L68.5953 4.99315L68.5533 5.21918L68.5112 5.36301L68.406 5.77397V6.06164L68.3429 6.18493V6.30822L68.3219 6.5548L68.2588 6.76027L68.2167 6.9863L68.1536 7.21233V7.29452L68.1326 7.35616V7.64384L68.0485 7.76712L67.9854 8.13699L68.0064 8.23973L67.9433 8.46575L67.9012 8.63014L67.9223 8.81507L67.8382 9.10274L67.7961 9.53425L67.7751 9.65753V9.80137L67.733 10.089L67.712 10.3767L67.6909 10.5411L67.6699 10.9726V11.5068L67.6489 11.6507V11.8356L67.6699 12V12.3904L67.712 12.5342L67.754 12.8014L67.7961 12.9247L67.8592 13.1918L68.0485 13.4589L68.1957 13.7466L68.3009 13.8493L68.385 13.9521L68.6584 14.1575L68.7846 14.2397L68.8898 14.3219L69.1001 14.4452L69.2263 14.5479L69.4787 14.6301L69.7521 14.7329L69.8783 14.7534L70.0255 14.7945L70.2358 14.8151L70.362 14.8356L70.5303 14.8562L70.7617 14.8767L70.9089 14.8973H71.0561L71.2454 14.9178Z" fill="#F2BA4C"/>
<path d="M78.487 14.7123L78.6342 14.6918H78.7604L79.0548 14.7123L79.4334 14.6712L79.5176 14.6918L79.7279 14.7123L80.2327 14.6712L80.6323 13.8699L80.7795 13.6438L80.8636 13.5205L80.9478 13.274L81.116 13.0069L81.1791 12.8836L81.4315 12.3493L81.4525 12.2466L81.4736 12.1027L81.5998 11.9178L81.6418 11.7945L81.768 11.5479L81.8942 11.2808L82.0415 11.0342L82.1466 10.7877L82.3569 10.1712L82.5042 9.94521L82.6304 9.73973L82.6724 9.59589L82.8617 9.22603L82.9248 9.14384L82.9669 9.0411L83.03 8.87671L83.1141 8.77397L83.1772 8.5274L83.3244 8.28082L83.4296 8.15753L83.4506 8.0548L83.5348 7.93151L83.6189 7.64384L83.7661 7.39726L83.9133 7.06849L83.9554 6.96575L84.0185 6.86301L84.0816 6.59589L84.1657 6.45206L84.2499 6.32877L84.4181 6.06164L84.4391 5.93836L84.5443 5.81507L84.5864 5.71233L84.7126 5.34247L84.8598 5.15753L84.9229 4.91096L85.1963 4.35616L85.2174 4.23288L85.3856 3.9863L85.4908 3.69863L85.5749 3.57534L85.7221 3.18493L85.7642 3.06164L85.8483 2.93836L85.8904 2.81507L86.0166 2.58904L86.1007 2.34247L86.1848 2.23973L86.269 1.99315L86.29 1.84932L86.4372 1.60274L86.5214 1.35617L86.6686 1.13014L86.7107 1.0274L86.8579 0.719179L86.8369 0.369863L86.5634 0.287671L86.1007 0.308219L85.8483 0.287671H85.3015L84.965 0.328768L84.6495 0.287671H84.334L84.1868 0.267124L83.9975 0.308219L83.9133 0.513699L83.7451 0.863014L83.682 0.986302L83.5978 1.23288L83.5137 1.37671L83.4506 1.52055L83.2613 1.93151L83.2403 2.07534L83.1982 2.19863L83.0089 2.63014L82.9458 2.75342L82.7986 3.02055L82.6304 3.49315L82.4831 3.69863L82.378 3.94521L82.2097 4.23288L82.1887 4.35616L82.1046 4.5L82.0204 4.72603L81.9363 4.82877L81.8942 4.95206L81.3053 6.41096L81.1581 6.63699L81.1371 5.9589L81.116 5.42466V4.84932L81.074 4.29452V4.17123L81.0319 3.90411L80.9898 3.73973L80.9478 2.89726L80.9267 2.77397L80.8636 2.4863V2.19863L80.7795 1.95206L80.8005 1.70548L80.7164 1.23288L80.6533 0.945206V0.678082L80.6112 0.390411L80.443 0.308219H80.2958L80.1906 0.287671L79.8751 0.308219L79.5596 0.287671L79.2862 0.308219L79.16 0.287671L78.9707 0.308219L78.7183 0.287671H77.9612L77.835 0.369863L77.7929 0.678082V0.801371L77.856 1.06849L77.9401 1.37671L77.9612 1.58219L77.9401 1.78767L77.9822 1.89041L78.0032 2.17808L78.0453 2.36301V2.5274L78.0663 2.67123V3.14384L78.1925 3.45206L78.1715 3.67808L78.2346 3.84247L78.2766 4.08904L78.3397 4.23288L78.4028 4.64384L78.3818 4.91096L78.4659 5.15753L78.487 5.42466V5.5274L78.5711 5.81507L78.6342 6.02055L78.6763 6.36986L78.6973 6.53425L78.7604 6.94521L78.8445 7.41781L78.9076 7.78767L79.0128 8.17808L79.0548 8.79452L79.2021 9.36986L79.2231 9.78082L79.3493 10.274L79.3914 10.5205L79.3283 10.6849L79.2231 10.7877L79.0969 11.0959L78.9918 11.3014L78.8025 11.6918L78.6973 11.8562L78.6342 12L78.5711 12.1644L78.508 12.2877L78.4239 12.4315L78.2977 12.7603L78.0243 13.1918L77.6877 13.9315L77.4774 14.3836L77.5615 14.6712L78.0663 14.6507L78.2135 14.6918L78.487 14.7123Z" fill="#F2BA4C"/>
<path d="M86.8393 14.6918H88.5219L88.6691 14.6712L88.7322 14.4247L88.7533 14.2603L88.7743 14.0753L88.8374 13.911L88.8584 13.7671L88.9005 13.6438L88.9215 13.5V13.3356L89.0057 13.2123V12.9247L89.0688 12.6164V12.411L89.1319 12.2671L89.1529 12.1233L89.216 11.8767L89.258 11.7329L89.3001 11.4863L89.3632 11.3014L89.4263 11.0137V10.8904L89.4473 10.7466L89.4894 10.6233L89.5104 10.4795L89.5315 10.3562L89.5525 10.089L89.5946 9.9863L89.6156 9.71918L89.6787 9.5548L89.6997 9.41096V9.36986L90.0152 9.39041H90.4779L90.8775 9.41096L91.4665 9.36986L91.7609 9.32877L92.0343 9.30822L92.2867 9.26712L92.6232 9.16438L92.8967 9.0411L93.107 8.97945L93.4014 8.83562L93.5066 8.71233L93.78 8.50685L93.8852 8.36301L94.0324 8.15753L94.2217 7.99315L94.3689 7.74658L94.4951 7.62329L94.6844 7.31507L94.8316 7.06849L94.9368 6.84247L95.1051 6.45206L95.2102 6.16438L95.2733 6L95.3364 5.71233L95.3785 5.58904L95.3995 5.46575L95.4626 5.32192L95.4837 5.15753L95.5468 5.0137L95.5888 4.72603L95.6309 4.27397L95.6519 4.13014L95.694 3.90411L95.715 3.67808L95.694 3.45206V3.30822L95.673 3L95.694 2.79452L95.6309 2.56849L95.6098 2.42466L95.5888 2.19863L95.5047 1.9726L95.4626 1.82877L95.3364 1.56164L95.2733 1.39726L95.1471 1.25342L95.0209 1.08904L94.9368 0.986302L94.7475 0.821918L94.4741 0.678082L94.3269 0.616439L94.1796 0.513699L94.0324 0.472603L93.6959 0.41096L93.2542 0.349315L92.9808 0.308219H92.8125L92.497 0.267124H92.2026L91.8871 0.287671L91.7399 0.267124H90.3307L90.2045 0.287671L89.9311 0.267124L89.6577 0.287671H88.564L88.3957 0.369863L88.3116 0.636987L88.2906 0.801371L88.2275 1.08904L88.2064 1.25342L88.1854 1.39726L88.1013 1.72603L88.0592 1.86986V1.99315L88.0382 2.13699L87.9961 2.28082V2.44521L87.954 2.58904L87.933 2.83562L87.8699 3.02055L87.8068 3.30822L87.7648 3.4726L87.7437 3.84247L87.7227 3.96575L87.6596 4.23288L87.6806 4.31507L87.6596 4.5411L87.5755 4.86986L87.5544 4.99315L87.5334 5.26027L87.4703 5.40411L87.4282 5.54795L87.4072 5.81507V6.06164L87.3441 6.32877L87.281 6.65753L87.2389 6.96575L87.2179 7.13014L87.1548 7.41781L87.1338 7.5411L87.0917 7.68493L87.0707 7.80822L87.0286 7.95206L87.0076 8.23973L86.9865 8.40411L86.9234 8.54795L86.8604 8.97945L86.8393 9.28767L86.7762 9.41096V9.5548L86.7342 9.67808V9.90411L86.629 10.1096V10.2123L86.608 10.4589L86.5869 10.5822L86.5028 10.8493L86.4607 10.9726L86.4397 11.1164L86.4187 11.3836L86.3556 11.5068L86.2714 11.9795L86.2504 12.1027L86.2294 12.2466L86.1663 12.4932L86.1453 12.637L86.0822 12.9041L86.0191 13.2123L85.956 13.5V13.6233L85.8929 13.911L85.9139 14.0548L85.8508 14.1781V14.5685L85.977 14.6712L86.3556 14.6507L86.5028 14.6712L86.8393 14.6918ZM90.1414 6.78082L90.1624 6.59589L90.2255 6.30822V6.12329L90.3307 5.60959L90.3728 5.42466V5.26027L90.3938 5.0137L90.4569 4.68493L90.499 4.47945L90.5621 4.06849L90.6252 3.82192L90.6672 3.67808L90.7093 3.32877L90.7303 3.12329L90.7724 3.02055L90.8775 2.77397L91.0248 2.73288L91.5085 2.71233L92.0764 2.73288L92.2657 2.77397L92.497 2.93836L92.6232 3.12329L92.7074 3.36986V3.71918L92.6653 4.25343L92.5812 4.82877L92.497 5.17808L92.4129 5.36301L92.3709 5.54795L92.2657 5.83562L92.1816 5.9589L92.0343 6.18493L91.803 6.39041L91.4665 6.63699L91.3192 6.69863L90.9196 6.73973L90.6883 6.78082H90.1414Z" fill="#F2BA4C"/>
<path d="M99.7419 14.9178L99.9522 14.8767L100.226 14.8562H100.541L100.815 14.7945L101.067 14.7534L101.319 14.6918L101.866 14.5685L102.013 14.5069L102.35 14.3014L102.665 14.0342L102.981 13.6644L103.023 13.5411L103.086 13.4178L103.191 13.2945L103.275 13.1712L103.338 13.0274L103.444 12.7808L103.57 12.4521L103.633 12.3288L103.675 12.1849L103.696 12.0411L103.759 11.7945L103.885 11.2808L103.927 11.1575L103.99 10.726L104.011 10.6438L104.033 10.5L104.075 10.3973L104.096 10.1712L104.138 9.90411V9.76027L104.18 9.63699V9.41096L104.096 9.26712L103.948 9.12329L103.696 9.10274L102.665 9.0411H102.224L101.677 9.02055L101.509 9.0411L101.361 9.20548L101.319 9.41096L101.214 9.67808L101.193 9.82192L101.151 10.0069L101.088 10.3151L101.025 10.5616L101.004 10.6644L100.983 10.7877L100.899 11.0548L100.794 11.3425L100.625 11.7123L100.541 11.8151L100.247 12H99.9312L99.5947 12.0411L99.2792 11.9384L99.1109 11.7945L99.0268 11.4863V11.3425L99.0058 11.2192V11.0137L99.0268 10.726L99.0899 10.4384V10.274L99.153 9.84247L99.132 9.69863L99.174 9.5548L99.195 9.41096V9.24658L99.2161 9.10274L99.2792 8.95891V8.5274L99.3423 8.21918L99.3843 8.0548L99.4264 7.78767L99.4474 7.64384L99.5316 7.31507L99.5526 7.15068L99.7209 6.32877L99.826 6.02055L99.8681 5.73288L99.9102 5.58904L99.9312 5.46575L99.9522 5.32192L100.015 5.13699L100.078 4.89041L100.142 4.58219L100.226 4.33562V4.21233L100.352 3.86301L100.457 3.59589L100.541 3.24658L100.604 3.10274L100.667 2.97945L100.857 2.75342L101.088 2.67123L101.34 2.63014H101.572L101.866 2.71233L102.098 2.83562L102.224 3.20548V3.5137L102.182 3.80137L102.161 4.06849L102.034 4.52055L101.992 4.80822L101.908 5.17808L101.866 5.32192V5.60959L102.013 5.83562L102.623 5.91781L103.948 5.93836L104.243 5.91781L104.495 5.89726L104.579 5.81507L104.685 5.28082L104.727 5.11644L104.853 4.31507L104.895 3.9863L104.937 3.67808L104.979 3.5137L105 3.30822V2.85616L104.979 2.54795L104.958 2.36301L104.937 2.09589L104.916 1.84932L104.874 1.62329L104.769 1.41781L104.727 1.27397L104.663 1.17123L104.558 0.986302L104.516 0.883563L104.285 0.678082L104.011 0.472603L103.717 0.369863L103.486 0.328768L103.402 0.267124L103.254 0.246576L103.107 0.205479L102.981 0.184932L102.686 0.143836H102.476L102.287 0.0821919L101.761 0.0205477H101.424L101.025 0.0410966H100.709L100.562 0.0616443L100.289 0.123289L99.9312 0.184932L99.4895 0.369863L99.3633 0.431507L99.0899 0.554795L98.9637 0.657534L98.6692 0.945206L98.501 1.15068L98.3538 1.35617L98.2065 1.47945L98.1224 1.70548L97.9962 1.99315L97.891 2.23973L97.7648 2.58904L97.6807 2.87671L97.5545 3.28767L97.4073 3.69863L97.3442 3.96575L97.2811 4.10959L97.2601 4.25343L97.239 4.37671L97.197 4.52055L97.1759 4.66438L97.1128 4.78767L97.0918 4.99315L97.0497 5.21918L97.0077 5.36301L96.9025 5.77397V6.06164L96.8394 6.18493V6.30822L96.8184 6.5548L96.7553 6.76027L96.7132 6.9863L96.6501 7.21233V7.29452L96.6291 7.35616V7.64384L96.545 7.76712L96.4819 8.13699L96.5029 8.23973L96.4398 8.46575L96.3977 8.63014L96.4188 8.81507L96.3346 9.10274L96.2926 9.53425L96.2715 9.65753V9.80137L96.2295 10.089L96.2085 10.3767L96.1874 10.5411L96.1664 10.9726V11.5068L96.1453 11.6507V11.8356L96.1664 12V12.3904L96.2085 12.5342L96.2505 12.8014L96.2926 12.9247L96.3557 13.1918L96.545 13.4589L96.6922 13.7466L96.7974 13.8493L96.8815 13.9521L97.1549 14.1575L97.2811 14.2397L97.3863 14.3219L97.5966 14.4452L97.7228 14.5479L97.9752 14.6301L98.2486 14.7329L98.3748 14.7534L98.522 14.7945L98.7323 14.8151L98.8585 14.8356L99.0268 14.8562L99.2581 14.8767L99.4054 14.8973H99.5526L99.7419 14.9178Z" fill="#F2BA4C"/>
</svg>
