<svg width="1738" height="1033" viewBox="0 0 1738 1033" fill="none" xmlns="http://www.w3.org/2000/svg">
<g opacity="0.5">
<path fill-rule="evenodd" clip-rule="evenodd" d="M1337.9 402.066C1339.34 425.594 1345.41 448.608 1355.75 469.795C1366.09 490.981 1380.51 509.924 1398.17 525.542C1415.84 541.16 1436.42 553.147 1458.72 560.82C1481.03 568.492 1504.63 571.7 1528.18 570.259C1551.73 568.817 1574.76 562.756 1595.96 552.42C1617.17 542.085 1636.13 527.678 1651.76 510.021C1667.39 492.365 1679.39 471.805 1687.07 449.516C1694.75 427.227 1697.96 403.645 1696.52 380.116L1698.42 380C1699.88 403.778 1696.63 427.61 1688.87 450.136C1681.11 472.661 1668.98 493.439 1653.19 511.283C1637.39 529.126 1618.23 543.686 1596.8 554.131C1575.37 564.576 1552.09 570.702 1528.29 572.158C1504.5 573.615 1480.65 570.374 1458.1 562.62C1435.56 554.866 1414.77 542.751 1396.91 526.968C1379.06 511.184 1364.49 492.04 1354.03 470.629C1343.58 449.218 1337.46 425.96 1336 402.182L1337.9 402.066Z" fill="#008CCC"/>
<path fill-rule="evenodd" clip-rule="evenodd" d="M1504.56 494.225C1504.71 496.689 1505.35 499.099 1506.44 501.317C1507.53 503.535 1509.04 505.519 1510.91 507.154C1512.77 508.789 1514.94 510.043 1517.29 510.846C1519.64 511.648 1522.12 511.983 1524.61 511.831C1527.09 511.68 1529.51 511.044 1531.75 509.961C1533.98 508.877 1535.98 507.368 1537.63 505.518C1539.28 503.668 1540.54 501.515 1541.36 499.18C1542.17 496.845 1542.5 494.375 1542.35 491.911L1543.88 491.818C1544.04 494.481 1543.68 497.151 1542.8 499.674C1541.93 502.197 1540.56 504.525 1538.78 506.524C1537 508.523 1534.84 510.155 1532.42 511.326C1530 512.496 1527.38 513.183 1524.7 513.348C1522.02 513.512 1519.33 513.15 1516.79 512.282C1514.25 511.415 1511.9 510.059 1509.89 508.292C1507.88 506.525 1506.24 504.381 1505.06 501.984C1503.88 499.586 1503.2 496.981 1503.03 494.318L1504.56 494.225Z" fill="#008CCC"/>
<path fill-rule="evenodd" clip-rule="evenodd" d="M1552.72 390.446L1481.88 394.782L1487.95 494.007L1558.8 489.671L1552.72 390.446ZM1480.27 393.354L1486.53 495.621L1560.41 491.099L1554.15 388.832L1480.27 393.354Z" fill="#008CCC"/>
<path fill-rule="evenodd" clip-rule="evenodd" d="M1376.47 1032.18C1375.02 1008.62 1378.23 984.996 1385.91 962.672C1393.59 940.349 1405.59 919.757 1421.22 902.074C1436.85 884.391 1455.81 869.963 1477.01 859.613C1498.21 849.263 1521.25 843.194 1544.79 841.753C1568.34 840.312 1591.94 843.527 1614.25 851.213C1636.56 858.9 1657.13 870.909 1674.8 886.554C1692.47 902.199 1706.89 921.173 1717.24 942.394C1727.58 963.615 1733.65 986.667 1735.09 1010.23L1736.99 1010.12C1735.53 986.3 1729.4 963.004 1718.95 941.558C1708.5 920.112 1693.92 900.937 1676.07 885.126C1658.21 869.315 1637.41 857.179 1614.87 849.411C1592.33 841.642 1568.48 838.394 1544.68 839.85C1520.88 841.307 1497.6 847.44 1476.18 857.899C1454.75 868.359 1435.59 882.94 1419.79 900.811C1404 918.681 1391.87 939.491 1384.11 962.052C1376.35 984.612 1373.11 1008.48 1374.57 1032.3L1376.47 1032.18Z" fill="#008CCC"/>
<path fill-rule="evenodd" clip-rule="evenodd" d="M1530.63 920.098C1530.47 917.634 1530.81 915.164 1531.62 912.83C1532.44 910.495 1533.7 908.341 1535.35 906.492C1537 904.642 1539 903.132 1541.23 902.049C1543.47 900.966 1545.89 900.33 1548.37 900.178C1550.86 900.026 1553.34 900.361 1555.69 901.164C1558.04 901.967 1560.21 903.221 1562.07 904.856C1563.93 906.491 1565.45 908.474 1566.54 910.693C1567.63 912.911 1568.27 915.321 1568.42 917.785L1569.95 917.692C1569.78 915.028 1569.09 912.424 1567.92 910.026C1566.74 907.628 1565.1 905.485 1563.09 903.718C1561.08 901.951 1558.73 900.595 1556.19 899.727C1553.65 898.86 1550.96 898.498 1548.28 898.662C1545.6 898.826 1542.98 899.513 1540.56 900.684C1538.14 901.855 1535.98 903.486 1534.2 905.486C1532.42 907.485 1531.05 909.813 1530.18 912.336C1529.3 914.859 1528.94 917.529 1529.1 920.192L1530.63 920.098Z" fill="#008CCC"/>
<path fill-rule="evenodd" clip-rule="evenodd" d="M1591.09 1017.23L1520.24 1021.56L1514.17 922.339L1585.01 918.003L1591.09 1017.23ZM1518.82 1023.18L1512.56 920.911L1586.44 916.39L1592.69 1018.66L1518.82 1023.18Z" fill="#008CCC"/>
<path fill-rule="evenodd" clip-rule="evenodd" d="M1696.64 382.017L1338.02 403.967L1376.37 1030.57L1734.99 1008.62L1696.64 382.017ZM1336 402.182L1374.58 1032.59L1737.01 1010.4L1698.42 380L1336 402.182Z" fill="#008CCC"/>
<path fill-rule="evenodd" clip-rule="evenodd" d="M1717.72 695.203L1355.29 717.385L1355.2 715.936L1717.63 693.754L1717.72 695.203Z" fill="#008CCC"/>
<path fill-rule="evenodd" clip-rule="evenodd" d="M1538.68 741.945C1558.45 740.735 1573.5 723.663 1572.28 703.813C1571.07 683.963 1554.05 668.852 1534.28 670.062C1514.51 671.272 1499.46 688.345 1500.68 708.195C1501.89 728.045 1518.91 743.156 1538.68 741.945ZM1538.75 743.086C1559.15 741.838 1574.67 724.223 1573.42 703.743C1572.17 683.263 1554.61 667.673 1534.21 668.921C1513.81 670.17 1498.29 687.784 1499.54 708.265C1500.8 728.745 1518.35 744.335 1538.75 743.086Z" fill="#008CCC"/>
</g>
<g opacity="0.6">
<rect x="338.947" y="591.938" width="333.03" height="521.966" transform="rotate(-168.211 338.947 591.938)" stroke="#B57FCA"/>
<rect x="278.661" y="579.355" width="211.944" height="90.8582" transform="rotate(-168.211 278.661 579.355)" stroke="#B57FCA"/>
<rect x="193.761" y="572.3" width="41.7976" height="10.4823" transform="rotate(-168.211 193.761 572.3)" stroke="#B57FCA"/>
<rect x="224.504" y="568.053" width="99.209" height="27.1838" transform="rotate(-168.211 224.504 568.053)" stroke="#B57FCA"/>
<mask id="path-14-inside-1" fill="white">
<path d="M158.633 462.044C159.193 459.361 160.66 456.894 162.949 454.784C165.238 452.674 168.305 450.963 171.975 449.749C175.644 448.534 179.845 447.84 184.336 447.705C188.828 447.571 193.522 447.999 198.152 448.965C202.781 449.932 207.255 451.417 211.318 453.337C215.38 455.256 218.952 457.573 221.83 460.154C224.707 462.735 226.834 465.53 228.088 468.379C229.342 471.228 229.699 474.076 229.139 476.76L193.886 469.402L158.633 462.044Z"/>
</mask>
<path d="M158.633 462.044C159.193 459.361 160.66 456.894 162.949 454.784C165.238 452.674 168.305 450.963 171.975 449.749C175.644 448.534 179.845 447.84 184.336 447.705C188.828 447.571 193.522 447.999 198.152 448.965C202.781 449.932 207.255 451.417 211.318 453.337C215.38 455.256 218.952 457.573 221.83 460.154C224.707 462.735 226.834 465.53 228.088 468.379C229.342 471.228 229.699 474.076 229.139 476.76L193.886 469.402L158.633 462.044Z" stroke="#B57FCA" stroke-width="2" mask="url(#path-14-inside-1)"/>
<circle cx="188.212" cy="499.142" r="3.13153" transform="rotate(-168.211 188.212 499.142)" fill="#B57FCA"/>
<rect x="178.848" y="25.3121" width="211.944" height="90.8582" transform="rotate(11.7888 178.848 25.3121)" stroke="#B57FCA"/>
<rect x="263.749" y="32.3675" width="41.7976" height="10.4823" transform="rotate(11.7888 263.749 32.3675)" stroke="#B57FCA"/>
<rect x="233.004" y="36.6148" width="99.209" height="27.1838" transform="rotate(11.7888 233.004 36.6148)" stroke="#B57FCA"/>
<mask id="path-19-inside-2" fill="white">
<path d="M298.876 142.623C298.315 145.307 296.849 147.774 294.56 149.883C292.271 151.993 289.204 153.704 285.534 154.919C281.865 156.133 277.664 156.827 273.173 156.962C268.681 157.096 263.987 156.668 259.357 155.702C254.728 154.736 250.254 153.25 246.191 151.331C242.128 149.411 238.556 147.094 235.679 144.513C232.801 141.933 230.675 139.138 229.421 136.288C228.167 133.439 227.809 130.591 228.37 127.908L263.623 135.265L298.876 142.623Z"/>
</mask>
<path d="M298.876 142.623C298.315 145.307 296.849 147.774 294.56 149.883C292.271 151.993 289.204 153.704 285.534 154.919C281.865 156.133 277.664 156.827 273.173 156.962C268.681 157.096 263.987 156.668 259.357 155.702C254.728 154.736 250.254 153.25 246.191 151.331C242.128 149.411 238.556 147.094 235.679 144.513C232.801 141.933 230.675 139.138 229.421 136.288C228.167 133.439 227.809 130.591 228.37 127.908L263.623 135.265L298.876 142.623Z" stroke="#B57FCA" stroke-width="2" mask="url(#path-19-inside-2)"/>
<circle cx="269.297" cy="105.526" r="3.13153" transform="rotate(11.7888 269.297 105.526)" fill="#B57FCA"/>
<mask id="path-21-inside-3" fill="white">
<path d="M329.117 590.396C329.397 589.054 329.939 587.78 330.711 586.648C331.483 585.515 332.471 584.546 333.618 583.795C334.765 583.044 336.048 582.526 337.395 582.272C338.742 582.017 340.126 582.03 341.468 582.31L339.335 592.528L329.117 590.396Z"/>
</mask>
<path d="M329.117 590.396C329.397 589.054 329.939 587.78 330.711 586.648C331.483 585.515 332.471 584.546 333.618 583.795C334.765 583.044 336.048 582.526 337.395 582.272C338.742 582.017 340.126 582.03 341.468 582.31L339.335 592.528L329.117 590.396Z" stroke="#B57FCA" stroke-width="2" mask="url(#path-21-inside-3)"/>
<mask id="path-22-inside-4" fill="white">
<path d="M22.5691 526.419C22.8492 525.077 22.8622 523.693 22.6074 522.346C22.3527 520.999 21.8351 519.715 21.0843 518.569C20.3335 517.422 19.3641 516.434 18.2315 515.662C17.099 514.889 15.8254 514.348 14.4835 514.068L12.3509 524.286L22.5691 526.419Z"/>
</mask>
<path d="M22.5691 526.419C22.8492 525.077 22.8622 523.693 22.6074 522.346C22.3527 520.999 21.8351 519.715 21.0843 518.569C20.3335 517.422 19.3641 516.434 18.2315 515.662C17.099 514.889 15.8254 514.348 14.4835 514.068L12.3509 524.286L22.5691 526.419Z" stroke="#B57FCA" stroke-width="2" mask="url(#path-22-inside-4)"/>
<mask id="path-23-inside-5" fill="white">
<path d="M435.96 78.4618C435.68 79.8037 435.667 81.1876 435.922 82.5345C436.177 83.8814 436.694 85.165 437.445 86.3118C438.196 87.4587 439.165 88.4465 440.298 89.2188C441.43 89.991 442.704 90.5326 444.046 90.8127L446.178 80.5944L435.96 78.4618Z"/>
</mask>
<path d="M435.96 78.4618C435.68 79.8037 435.667 81.1876 435.922 82.5345C436.177 83.8814 436.694 85.165 437.445 86.3118C438.196 87.4587 439.165 88.4465 440.298 89.2188C441.43 89.991 442.704 90.5326 444.046 90.8127L446.178 80.5944L435.96 78.4618Z" stroke="#B57FCA" stroke-width="2" mask="url(#path-23-inside-5)"/>
<mask id="path-24-inside-6" fill="white">
<path d="M129.414 14.4837C129.134 15.8256 128.593 17.0992 127.82 18.2318C127.048 19.3643 126.06 20.3337 124.913 21.0845C123.767 21.8353 122.483 22.3529 121.136 22.6077C119.789 22.8625 118.405 22.8494 117.063 22.5694L119.196 12.3511L129.414 14.4837Z"/>
</mask>
<path d="M129.414 14.4837C129.134 15.8256 128.593 17.0992 127.82 18.2318C127.048 19.3643 126.06 20.3337 124.913 21.0845C123.767 21.8353 122.483 22.3529 121.136 22.6077C119.789 22.8625 118.405 22.8494 117.063 22.5694L119.196 12.3511L129.414 14.4837Z" stroke="#B57FCA" stroke-width="2" mask="url(#path-24-inside-6)"/>
<line x1="392.763" y1="336.54" x2="65.7787" y2="268.297" stroke="#B57FCA"/>
<circle cx="231.82" cy="302.973" r="50.1264" transform="rotate(-168.211 231.82 302.973)" stroke="#B57FCA"/>
<circle cx="228.137" cy="302.738" r="3.13153" transform="rotate(-168.211 228.137 302.738)" fill="#B57FCA"/>
</g>
</svg>
