<svg width="22" height="22" viewBox="0 0 23 23" fill="none" xmlns="http://www.w3.org/2000/svg">
<path fill-rule="evenodd" clip-rule="evenodd" d="M16.8794 15.3529L22.1804 20.5736C22.5404 20.9237 22.5404 21.4999 22.1804 21.85C21.8204 22.2045 21.2399 22.2045 20.8799 21.85L15.5789 16.6337C13.9769 17.9278 11.9294 18.7034 9.69289 18.7034C4.55839 18.7034 0.400391 14.604 0.400391 9.5517C0.400391 4.49944 4.55839 0.400009 9.69289 0.400009C14.8229 0.400009 18.9854 4.49944 18.9854 9.5517C18.9854 11.7543 18.1934 13.7752 16.8794 15.3529ZM2.24444 9.55182C2.24444 13.5936 5.58344 16.882 9.69194 16.882C13.7959 16.882 17.1394 13.5936 17.1394 9.55182C17.1394 5.51001 13.7959 2.21717 9.69194 2.21717C5.58344 2.21717 2.24444 5.51001 2.24444 9.55182Z" fill="white"/>
</svg>
