<svg width="22" height="22" viewBox="0 0 22 22" fill="none" xmlns="http://www.w3.org/2000/svg">
<path d="M16.1331 11.7331H5.86644C5.08871 11.7324 4.34305 11.4231 3.79312 10.8731C3.24318 10.3232 2.93388 9.57753 2.93311 8.7998H4.39977C4.40016 9.18867 4.55481 9.5615 4.82978 9.83647C5.10475 10.1114 5.47757 10.2661 5.86644 10.2665H16.1331C16.522 10.2661 16.8948 10.1114 17.1698 9.83647C17.4447 9.5615 17.5994 9.18867 17.5998 8.7998H19.0664C19.0657 9.57753 18.7564 10.3232 18.2064 10.8731C17.6565 11.4231 16.9108 11.7324 16.1331 11.7331ZM16.1331 13.1998C15.843 13.1998 15.5595 13.2858 15.3183 13.447C15.0771 13.6081 14.8891 13.8372 14.7781 14.1052C14.6671 14.3732 14.638 14.6681 14.6946 14.9526C14.7512 15.2371 14.8909 15.4984 15.096 15.7036C15.3011 15.9087 15.5625 16.0484 15.847 16.105C16.1315 16.1615 16.4264 16.1325 16.6944 16.0215C16.9624 15.9105 17.1914 15.7225 17.3526 15.4813C17.5138 15.2401 17.5998 14.9566 17.5998 14.6665C17.5998 14.2775 17.4452 13.9044 17.1702 13.6294C16.8951 13.3543 16.5221 13.1998 16.1331 13.1998ZM5.86644 13.1998C5.57636 13.1998 5.29279 13.2858 5.0516 13.447C4.81041 13.6081 4.62242 13.8372 4.51142 14.1052C4.40041 14.3732 4.37136 14.6681 4.42795 14.9526C4.48454 15.2371 4.62423 15.4984 4.82935 15.7036C5.03447 15.9087 5.2958 16.0484 5.58031 16.105C5.86481 16.1615 6.15971 16.1325 6.42771 16.0215C6.69571 15.9105 6.92477 15.7225 7.08593 15.4813C7.24709 15.2401 7.33311 14.9566 7.33311 14.6665C7.33311 14.2775 7.17858 13.9044 6.90353 13.6294C6.62847 13.3543 6.25542 13.1998 5.86644 13.1998Z" fill="white"/>
</svg>
