<svg width="24" height="15" viewBox="0 0 24 15" fill="none" xmlns="http://www.w3.org/2000/svg">
<path d="M7.40001 3H4.6C4.44087 3 4.28826 3.06181 4.17574 3.17183C4.06321 3.28185 4 3.43107 4 3.58667V12.1911C4 12.2682 4.01552 12.3445 4.04567 12.4156C4.07583 12.4868 4.12002 12.5515 4.17574 12.606C4.23145 12.6604 4.2976 12.7037 4.37039 12.7331C4.44319 12.7626 4.52121 12.7778 4.6 12.7778H7.40001C7.4788 12.7778 7.55682 12.7626 7.62962 12.7331C7.70242 12.7037 7.76856 12.6604 7.82427 12.606C7.87999 12.5515 7.92419 12.4868 7.95434 12.4156C7.98449 12.3445 8.00001 12.2682 8.00001 12.1911V3.58667C8.00001 3.43107 7.9368 3.28185 7.82427 3.17183C7.71175 3.06181 7.55914 3 7.40001 3V3Z" stroke="white" stroke-width="1.5" stroke-linecap="round" stroke-linejoin="round"/>
<path d="M19.4 3H16.6C16.4409 3 16.2883 3.06181 16.1757 3.17183C16.0632 3.28185 16 3.43107 16 3.58667V12.1911C16 12.2682 16.0155 12.3445 16.0457 12.4156C16.0758 12.4868 16.12 12.5515 16.1757 12.606C16.2315 12.6604 16.2976 12.7037 16.3704 12.7331C16.4432 12.7626 16.5212 12.7778 16.6 12.7778H19.4C19.4788 12.7778 19.5568 12.7626 19.6296 12.7331C19.7024 12.7037 19.7686 12.6604 19.8243 12.606C19.88 12.5515 19.9242 12.4868 19.9543 12.4156C19.9845 12.3445 20 12.2682 20 12.1911V3.58667C20 3.43107 19.9368 3.28185 19.8243 3.17183C19.7117 3.06181 19.5591 3 19.4 3V3Z" stroke="white" stroke-width="1.5" stroke-linecap="round" stroke-linejoin="round"/>
<path d="M1 10.2356V5.54223C1 5.38664 1.06321 5.23742 1.17574 5.1274C1.28826 5.01738 1.44087 4.95557 1.6 4.95557H3.40001C3.55914 4.95557 3.71175 5.01738 3.82427 5.1274C3.93679 5.23742 4.00001 5.38664 4.00001 5.54223V10.2356C4.00001 10.3912 3.93679 10.5404 3.82427 10.6504C3.71175 10.7604 3.55914 10.8222 3.40001 10.8222H1.6C1.44087 10.8222 1.28826 10.7604 1.17574 10.6504C1.06321 10.5404 1 10.3912 1 10.2356V10.2356Z" stroke="white" stroke-width="1.5" stroke-linecap="round" stroke-linejoin="round"/>
<path d="M23 10.2356V5.54223C23 5.38664 22.9368 5.23742 22.8243 5.1274C22.7117 5.01738 22.5591 4.95557 22.4 4.95557H20.6C20.4409 4.95557 20.2883 5.01738 20.1757 5.1274C20.0632 5.23742 20 5.38664 20 5.54223V10.2356C20 10.3912 20.0632 10.5404 20.1757 10.6504C20.2883 10.7604 20.4409 10.8222 20.6 10.8222H22.4C22.5591 10.8222 22.7117 10.7604 22.8243 10.6504C22.9368 10.5404 23 10.3912 23 10.2356V10.2356Z" stroke="white" stroke-width="1.5" stroke-linecap="round" stroke-linejoin="round"/>
<path d="M8 7.88867H16" stroke="white" stroke-width="1.5" stroke-linecap="round" stroke-linejoin="round"/>
</svg>
