<svg width="16" height="16" viewBox="0 0 16 16" fill="none" xmlns="http://www.w3.org/2000/svg">
<path d="M9.79603 5.57252L9.91763 5.84171L10.2121 5.86511L14.0125 6.16708C14.045 6.16969 14.0761 6.18178 14.1019 6.20186C14.1276 6.22187 14.1469 6.24892 14.1574 6.27972C14.1788 6.34348 14.1605 6.41309 14.1109 6.45798C14.1108 6.45803 14.1108 6.45808 14.1107 6.45813L11.0872 9.17901L10.8551 9.38787L10.9409 9.68807L12.1598 13.9532C12.1599 13.9534 12.1599 13.9536 12.16 13.9537C12.1691 13.9865 12.1681 14.0213 12.157 14.0534C12.1458 14.0857 12.125 14.1138 12.0974 14.1339L12.392 14.538L12.0974 14.1339C12.0698 14.1541 12.0367 14.1653 12.0025 14.166C11.9684 14.1668 11.9349 14.1571 11.9065 14.1383C11.9064 14.1382 11.9063 14.1382 11.9063 14.1381L8.27704 11.7187L7.99969 11.5338L7.72234 11.7187L4.09234 14.1387L4.09179 14.139C4.06402 14.1576 4.0313 14.1674 3.99789 14.1671C3.96448 14.1669 3.93192 14.1566 3.90443 14.1376C3.87694 14.1186 3.85579 14.0918 3.84373 14.0606C3.83167 14.0295 3.82925 13.9954 3.83679 13.9629L3.83687 13.9625L4.8302 9.66118L4.89351 9.38704L4.69205 9.19065L1.88338 6.45265L1.88335 6.45261C1.86041 6.43026 1.8444 6.40178 1.83724 6.37056C1.83007 6.33935 1.83204 6.30674 1.84293 6.27662C1.85381 6.2465 1.87314 6.22016 1.8986 6.20074C1.92407 6.18132 1.95459 6.16964 1.98651 6.16711L1.98663 6.16711L5.7873 5.86511L6.08177 5.84171L6.20337 5.57249L7.84804 1.93116L7.84866 1.92977C7.86171 1.90064 7.88291 1.87592 7.90969 1.85858C7.93648 1.84123 7.96772 1.83201 7.99963 1.83203C8.03155 1.83205 8.06277 1.8413 8.08954 1.85867C8.11631 1.87605 8.13748 1.9008 8.1505 1.92993L8.1505 1.92993L8.15136 1.93185L9.79603 5.57252Z" fill="#150223" stroke="#150223"/>
</svg>
