<svg width="17" height="21" viewBox="0 0 17 21" fill="none" xmlns="http://www.w3.org/2000/svg">
<g clip-path="url(#clip0)">
<path d="M1.6998 20.8356C0.996855 20.8356 0.424805 20.2396 0.424805 19.5093V17.1882C0.424805 16.945 0.615205 16.7461 0.849805 16.7461C1.0844 16.7461 1.2748 16.945 1.2748 17.1882V19.5093C1.2748 19.7524 1.4652 19.9514 1.6998 19.9514C1.9344 19.9514 2.1248 19.7524 2.1248 19.5093V17.1882C2.1248 16.945 2.3152 16.7461 2.5498 16.7461C2.7844 16.7461 2.9748 16.945 2.9748 17.1882V19.5093C2.9748 20.2405 2.40275 20.8356 1.6998 20.8356Z" fill="white"/>
<path d="M2.975 17.1879H0.425C0.1904 17.1879 0 16.989 0 16.7458C0 16.5027 0.1904 16.3037 0.425 16.3037H2.975C3.2096 16.3037 3.4 16.5027 3.4 16.7458C3.4 16.989 3.2096 17.1879 2.975 17.1879Z" fill="white"/>
<path d="M15.2999 20.8356C14.597 20.8356 14.0249 20.2396 14.0249 19.5093V17.1882C14.0249 16.945 14.2162 16.7461 14.4499 16.7461C14.6837 16.7461 14.8749 16.945 14.8749 17.1882V19.5093C14.8749 19.7524 15.0662 19.9514 15.2999 19.9514C15.5337 19.9514 15.7249 19.7524 15.7249 19.5093V17.1882C15.7249 16.945 15.9162 16.7461 16.1499 16.7461C16.3837 16.7461 16.5749 16.945 16.5749 17.1882V19.5093C16.5749 20.2405 16.0029 20.8356 15.2999 20.8356Z" fill="white"/>
<path d="M16.5751 17.1879H14.0251C13.7913 17.1879 13.6001 16.989 13.6001 16.7458C13.6001 16.5027 13.7913 16.3037 14.0251 16.3037H16.5751C16.8088 16.3037 17.0001 16.5027 17.0001 16.7458C17.0001 16.989 16.8088 17.1879 16.5751 17.1879Z" fill="white"/>
<path d="M1.69999 17.6304C1.46539 17.6304 1.27499 17.4315 1.27499 17.1883V9.41258C0.990235 9.08807 0.412235 8.27902 0.731835 7.31788C0.964735 6.61847 1.63369 5.97653 2.39699 5.72453C3.17644 5.46546 3.99838 5.61401 4.70984 6.14453C5.13143 6.45754 5.51648 6.80062 5.85564 7.10302C6.78044 7.92799 7.33208 8.37805 7.91008 8.12428C8.27304 7.96247 8.72439 7.54866 8.80344 6.90319C8.90204 6.09767 8.37589 5.19047 7.32103 4.34959C6.18629 3.44416 6.20414 2.5175 6.31549 2.04533C6.50674 1.23805 7.23944 0.587271 8.13959 0.424576C9.13154 0.244197 10.0716 0.691608 10.6607 1.61826C11.2489 2.54403 11.6297 3.38138 11.9348 4.05515C12.5077 5.32045 12.6871 5.60075 13.1452 5.48491C13.9247 5.28773 14.5095 5.36289 14.9387 5.71481C15.4207 6.1074 15.6544 6.82538 15.6544 7.90677C15.6544 9.71056 15.725 16.7445 15.725 16.7445L14.875 16.7533C14.875 16.7533 14.8044 9.71321 14.8044 7.90765C14.8044 7.12778 14.6727 6.62466 14.4134 6.41422C14.2069 6.2471 13.8473 6.22411 13.3458 6.34879C12.1669 6.65119 11.7257 5.6706 11.1664 4.43712C10.8723 3.78988 10.5077 2.98171 9.95179 2.11077C9.37973 1.20976 8.59604 1.24512 8.28493 1.30083C7.72053 1.39986 7.25048 1.79599 7.13998 2.2602C7.03288 2.71291 7.28109 3.20542 7.83783 3.65195C9.50893 4.98533 9.74354 6.21616 9.64494 7.01813C9.54209 7.86786 9.00319 8.60441 8.24073 8.94129C7.14933 9.42673 6.25174 8.62475 5.30144 7.77856C4.96059 7.47262 4.60784 7.15784 4.21599 6.8687C3.59038 6.40538 3.02174 6.44782 2.65539 6.57249C2.08419 6.76171 1.66004 7.2383 1.53593 7.61144C1.31664 8.27106 1.97453 8.89708 1.98133 8.90416C2.07313 8.98904 2.12584 9.10752 2.12584 9.23573V17.1936C2.12498 17.4324 1.93459 17.6304 1.69999 17.6304Z" fill="white"/>
</g>
<defs>
<clipPath id="clip0">
<rect width="17" height="21" fill="white"/>
</clipPath>
</defs>
</svg>
