<svg width="24" height="24" viewBox="0 0 20 20" fill="none" xmlns="http://www.w3.org/2000/svg">
<path d="M2.92564 17.0648C4.82154 18.958 7.33273 20 10 20C12.6673 20 15.1795 18.958 17.0744 17.0648C20.9752 13.1695 20.9752 6.83151 17.0744 2.93521C15.1795 1.04301 12.6663 0 10 0C7.33373 0 4.82054 1.04301 2.92564 2.93521C-0.975213 6.83051 -0.975213 13.1695 2.92564 17.0648ZM15.6597 15.6521C14.6112 16.702 13.29 17.4387 11.8449 17.7791C11.8359 16.1786 12.4312 14.6361 13.5367 13.5321C14.7002 12.3702 16.27 11.7059 17.8157 11.6829C17.497 13.1865 16.748 14.5654 15.6597 15.6521ZM17.9858 9.69279C15.8608 9.67181 13.6998 10.545 12.122 12.1195C10.5893 13.65 9.7939 15.796 9.85793 17.9949C7.78266 17.9633 5.80206 17.1225 4.33931 15.6521C2.87474 14.1889 2.03797 12.2139 2.0062 10.1454C2.08324 10.1474 2.16028 10.1593 2.23731 10.1593C4.35332 10.1593 6.39929 9.35611 7.87699 7.88151C9.45774 6.30301 10.3352 4.14606 10.3081 2.01409C12.324 2.08638 14.237 2.92098 15.6597 4.34887C17.0842 5.77215 17.9154 7.68176 17.9858 9.69279ZM4.34031 4.34887C5.42763 3.25803 6.80832 2.50534 8.3152 2.18193C8.29719 3.73545 7.62988 5.30296 6.46332 6.46886C5.3588 7.57081 3.82007 8.16325 2.22331 8.15825C2.55855 6.71583 3.29196 5.39612 4.34031 4.34887Z" fill="white"/>
</svg>
