<svg width="89" height="80" viewBox="0 0 89 80" fill="none" xmlns="http://www.w3.org/2000/svg">
<path d="M86.1829 42.0593C87.9079 40.6701 89.0135 38.54 89.0135 36.1567C89.0135 31.9803 85.6186 28.5826 81.4459 28.5826H54.5829C55.4179 26.7606 56.3817 23.985 56.9326 20.1267C58.2123 11.1611 56.2786 6.40223 54.4311 3.98874C52.8675 1.94604 50.7667 0.710713 48.3563 0.416673C46.3224 0.166673 44.4652 1.78345 44.411 3.82838C44.0983 7.04324 42.9544 15.8629 41.3161 19.1427C37.1072 27.5675 27.0723 32.5904 23.973 33.9801C22.8885 33.0473 21.48 32.4817 19.9412 32.4817H6.36395C2.94774 32.4817 0.168457 35.263 0.168457 38.6823V72.6528C0.168457 76.0721 2.94774 78.8534 6.36395 78.8534H19.9408C21.7687 78.8534 23.4139 78.0565 24.5486 76.7922C26.3112 77.9059 29.1558 79.1466 33.0843 79.1466H76.7276C80.9006 79.1466 84.2952 75.7489 84.2952 71.5727C84.2952 69.6583 83.5818 67.9074 82.4071 66.5725C84.9201 65.3392 86.654 62.7517 86.654 59.7671C86.654 57.8527 85.9406 56.102 84.7659 54.7669C87.2789 53.5338 89.0128 50.9463 89.0128 47.9617C89.0135 45.5787 87.9077 43.4486 86.1829 42.0593ZM19.9408 75.5104H6.36395C4.78941 75.5104 3.50844 74.2284 3.50844 72.6526V38.6821C3.50844 37.1062 4.78941 35.8242 6.36395 35.8242H19.9408C20.7382 35.8242 21.4593 36.1538 21.9778 36.6832V73.9564C21.9778 74.1563 22.014 74.3525 22.0825 74.5367C21.5587 75.1321 20.794 75.5104 19.9408 75.5104ZM74.4293 43.7306H81.4466C83.7778 43.7306 85.6742 45.6289 85.6742 47.9617C85.6742 50.2944 83.7776 52.1928 81.4466 52.1928H74.4293C73.507 52.1928 72.7592 52.941 72.7592 53.8643C72.7592 54.7875 73.507 55.5358 74.4293 55.5358H79.0873C81.4186 55.5358 83.3149 57.4341 83.3149 59.7669C83.3149 62.0996 81.4184 63.998 79.0873 63.998H73.149C72.2267 63.998 71.4789 64.7462 71.4789 65.6694C71.4789 66.5927 72.2267 67.3409 73.149 67.3409H76.7281C79.0591 67.3409 80.9557 69.2393 80.9557 71.5723C80.9557 73.9052 79.0591 75.8034 76.7281 75.8034H33.0847C29.6378 75.8034 27.301 74.6477 26.0323 73.78C26.0998 73.4139 26.137 73.0373 26.137 72.6521V38.6821C26.137 38.0286 26.0347 37.3989 25.8467 36.8073C29.7598 35.0099 39.778 29.6956 44.3034 20.6376C46.5669 16.1071 47.6954 4.57015 47.7423 4.08127C47.7472 4.02833 47.7498 3.97473 47.7498 3.92157C47.7498 3.86463 47.7716 3.81614 47.8145 3.77833C47.8745 3.72562 47.9323 3.73229 47.9516 3.73474C48.997 3.86241 50.5098 4.36285 51.7799 6.02166C53.238 7.92647 54.7418 11.8377 53.6262 19.654C52.6806 26.2793 50.4385 29.1776 50.4245 29.1956C49.5491 30.2664 50.3373 31.9256 51.7168 31.9256H81.4464C83.7776 31.9256 85.674 33.824 85.674 36.1569C85.674 38.4901 83.7774 40.388 81.4464 40.388H74.429C73.5068 40.388 72.7589 41.1363 72.7589 42.0595C72.7589 42.9828 73.5068 43.7306 74.4293 43.7306Z" fill="#E87D0D"/>
</svg>
