<svg width="18" height="20" viewBox="0 0 18 20" fill="none" xmlns="http://www.w3.org/2000/svg">
<path d="M12.0625 6.90625C12.6744 6.90625 13.2725 6.72481 13.7813 6.38486C14.2901 6.04491 14.6866 5.56174 14.9207 4.99643C15.1549 4.43112 15.2162 3.80907 15.0968 3.20894C14.9774 2.60881 14.6828 2.05756 14.2501 1.62489C13.8174 1.19222 13.2662 0.89757 12.6661 0.778197C12.0659 0.658824 11.4439 0.72009 10.8786 0.954249C10.3133 1.18841 9.83008 1.58494 9.49013 2.09371C9.15018 2.60247 8.96874 3.20062 8.96874 3.8125C8.96965 4.63274 9.29589 5.41911 9.87588 5.99911C10.4559 6.5791 11.2423 6.90534 12.0625 6.90625ZM12.0625 2.78125C12.2665 2.78125 12.4658 2.84173 12.6354 2.95505C12.805 3.06836 12.9372 3.22942 13.0152 3.41786C13.0933 3.6063 13.1137 3.81365 13.0739 4.01369C13.0341 4.21373 12.9359 4.39748 12.7917 4.54171C12.6475 4.68593 12.4637 4.78415 12.2637 4.82394C12.0636 4.86373 11.8563 4.84331 11.6678 4.76525C11.4794 4.6872 11.3184 4.55502 11.205 4.38543C11.0917 4.21584 11.0312 4.01646 11.0312 3.8125C11.0315 3.53909 11.1403 3.27696 11.3336 3.08362C11.5269 2.89029 11.7891 2.78155 12.0625 2.78125ZM17.3537 12.0775L17.3538 12.0779C17.2223 12.1468 16.5752 12.453 15.4711 12.453C15.3175 12.453 15.1551 12.4472 14.9839 12.4338C13.6529 12.3303 12.252 11.8236 10.8036 10.9244C10.6006 11.377 10.375 11.819 10.1277 12.249C12.1617 12.9947 15.1562 14.7968 15.1562 18.9375C15.1562 19.211 15.0476 19.4733 14.8542 19.6667C14.6608 19.8601 14.3985 19.9688 14.125 19.9688C13.8515 19.9688 13.5892 19.8601 13.3958 19.6667C13.2024 19.4733 13.0937 19.211 13.0937 18.9375C13.0937 17.3316 12.4961 16.0964 11.2668 15.1614C10.48 14.5628 9.58672 14.2131 8.91004 14.0149C8.74313 14.2176 8.56909 14.4143 8.38823 14.6046C6.72723 16.3491 4.69911 17.2557 2.48175 17.2557C2.2064 17.2557 1.92825 17.2417 1.64729 17.2136C1.37672 17.1844 1.12864 17.0495 0.957134 16.8382C0.785625 16.6269 0.70459 16.3564 0.731692 16.0856C0.758794 15.8148 0.891834 15.5657 1.10182 15.3926C1.3118 15.2195 1.5817 15.1364 1.85269 15.1614C3.76565 15.3533 5.46206 14.6868 6.89464 13.1824C7.17007 12.8916 7.42653 12.5834 7.6624 12.2597L7.66498 12.2561C8.23592 11.4633 8.71194 10.6062 9.08329 9.70249C7.75848 8.74059 6.49022 8.35017 5.30918 8.54319C4.76516 8.62489 4.25103 8.84424 3.81558 9.18042L3.82461 9.17216L3.82375 9.17131C3.72463 9.26455 3.60802 9.33723 3.48065 9.38515C3.35328 9.43307 3.21768 9.45528 3.08168 9.45049C2.94567 9.44571 2.81197 9.41402 2.68828 9.35727C2.5646 9.30051 2.45338 9.21981 2.36107 9.11983C2.26875 9.01985 2.19715 8.90256 2.15042 8.77475C2.10369 8.64694 2.08274 8.51114 2.08879 8.37519C2.09484 8.23924 2.12777 8.10584 2.18568 7.98268C2.24358 7.85953 2.32531 7.74907 2.42615 7.65769L2.42529 7.65683C2.51784 7.57149 3.37069 6.81447 4.82071 6.53552C7.19044 6.07927 9.29066 7.2378 10.6354 8.28984C10.7353 8.36796 10.8338 8.44281 10.9313 8.51543L10.934 8.51741C14.4154 11.1084 16.3992 10.2487 16.4194 10.2396C16.4038 10.2466 16.3961 10.2512 16.3961 10.2512L16.3963 10.2515C16.5162 10.1887 16.6473 10.1501 16.7821 10.1379C16.917 10.1257 17.0529 10.1401 17.1821 10.1805C17.3113 10.2208 17.4314 10.2862 17.5353 10.3729C17.6393 10.4596 17.7251 10.566 17.788 10.6859C17.8508 10.8058 17.8895 10.9369 17.9017 11.0717C17.9139 11.2065 17.8994 11.3424 17.8591 11.4717C17.8187 11.6009 17.7533 11.7209 17.6666 11.8249C17.5799 11.9288 17.4736 12.0147 17.3537 12.0775Z" fill="white"/>
</svg>
