<svg width="24" height="24" viewBox="0 0 24 24" fill="none" xmlns="http://www.w3.org/2000/svg">
<path d="M15.905 21.2025C20.989 19.043 23.3585 13.1745 21.204 8.09602C19.049 3.01752 13.1755 0.638023 8.09652 2.79752C3.01752 4.95702 0.63752 10.825 2.79752 15.904C4.95702 20.9825 10.826 23.362 15.905 21.2025Z" stroke="white" stroke-width="2" stroke-miterlimit="2" stroke-linejoin="round"/>
<path d="M7.99938 3.00007C7.25238 6.50507 8.96788 10.0986 11.9994 12.0001" stroke="white" stroke-width="2" stroke-miterlimit="2" stroke-linecap="round" stroke-linejoin="round"/>
<path d="M6 20.0001C9.485 18.8701 11.87 15.6601 12 12.0001" stroke="white" stroke-width="2" stroke-miterlimit="2" stroke-linecap="round" stroke-linejoin="round"/>
<path d="M22 12.5C19.275 10.164 14.75 10.2015 12 12" stroke="white" stroke-width="2" stroke-miterlimit="2" stroke-linecap="round" stroke-linejoin="round"/>
<path d="M8.5 8.00007C8.5 8.00007 14.28 3.75507 20.5 7.00007" stroke="white" stroke-width="2" stroke-miterlimit="2" stroke-linejoin="round"/>
<path d="M10 16.5C10 16.5 3.795 14.01 3.5 7.00003" stroke="white" stroke-width="2" stroke-miterlimit="2" stroke-linejoin="round"/>
<path d="M17.0004 11.0001C17.0004 11.0001 17.7804 18.2501 11.8604 22.0151" stroke="white" stroke-width="2" stroke-miterlimit="2" stroke-linejoin="round"/>
</svg>
