<svg width="87" height="79" viewBox="0 0 87 79" fill="none" xmlns="http://www.w3.org/2000/svg">
<path d="M87 72.68C87 74.734 86.2835 76.3008 84.8504 77.3805C83.4173 78.4602 81.6586 79 79.5741 79H7.42588C5.34142 79 3.58266 78.447 2.1496 77.341C0.716532 76.235 0 74.6813 0 72.68C0 71.1 0.469003 69.4937 1.40701 67.861L37.4421 4.345C39.1617 1.44833 41.1941 0 43.5391 0C45.8841 0 47.8643 1.44833 49.4798 4.345L85.593 67.94C86.531 69.6253 87 71.2053 87 72.68ZM48.9326 32.311V20.777H38.0674V32.311C38.0674 33.0483 38.1195 33.7462 38.2237 34.4045C38.3279 35.0628 38.4712 35.8002 38.6536 36.6165C38.836 37.4328 38.9793 38.1307 39.0836 38.71L41.1159 51.508H45.7278L47.8383 38.71C47.9425 38.1833 48.0988 37.4987 48.3073 36.656C48.5157 35.8133 48.6721 35.0628 48.7763 34.4045C48.8805 33.7462 48.9326 33.0483 48.9326 32.311ZM48.9326 62.884C48.9326 61.3567 48.3985 60.0663 47.3302 59.013C46.2619 57.9597 44.9721 57.433 43.4609 57.433C42.0018 57.433 40.7381 57.9597 39.6698 59.013C38.6015 60.0663 38.0674 61.3567 38.0674 62.884C38.0674 64.4113 38.6015 65.7148 39.6698 66.7945C40.7381 67.8742 42.0018 68.414 43.4609 68.414C44.9721 68.414 46.2619 67.8742 47.3302 66.7945C48.3985 65.7148 48.9326 64.4113 48.9326 62.884Z" fill="#D12421"/>
</svg>
