<svg width="239" height="313" viewBox="0 0 239 313" fill="none" xmlns="http://www.w3.org/2000/svg">
<g opacity="0.5">
<path fill-rule="evenodd" clip-rule="evenodd" d="M1.16036 49.4139C4.38523 63.7719 10.4088 77.3537 18.8872 89.3837C27.3655 101.414 38.1326 111.656 50.5737 119.527C63.0148 127.397 76.8863 132.741 91.3961 135.254C105.906 137.767 120.77 137.399 135.139 134.172C149.509 130.944 163.102 124.92 175.144 116.444C187.186 107.968 197.439 97.205 205.32 84.7702C213.2 72.3354 218.553 58.4721 221.073 43.972C223.592 29.4718 223.229 14.6187 220.004 0.260671L221.165 4.88119e-05C224.424 14.5103 224.791 29.5209 222.244 44.1749C219.698 58.8288 214.288 72.8391 206.324 85.4057C198.36 97.9724 187.998 108.849 175.829 117.416C163.659 125.982 149.922 132.07 135.4 135.331C120.878 138.593 105.856 138.965 91.1926 136.425C76.5289 133.886 62.5104 128.485 49.9374 120.531C37.3643 112.577 26.4831 102.226 17.9148 90.0681C9.34652 77.9106 3.25907 64.1848 0 49.6746L1.16036 49.4139Z" fill="#008CCC"/>
<path fill-rule="evenodd" clip-rule="evenodd" d="M113.03 89.6574C113.367 91.161 114 92.5829 114.891 93.842C115.783 95.101 116.916 96.1724 118.226 96.9952C119.535 97.8179 120.996 98.3758 122.524 98.6369C124.053 98.8981 125.619 98.8575 127.133 98.5173C128.647 98.1772 130.081 97.5442 131.35 96.6546C132.62 95.7649 133.702 94.636 134.534 93.3322C135.366 92.0285 135.932 90.5754 136.2 89.0561C136.467 87.5367 136.431 85.9808 136.093 84.4772L137.025 84.2679C137.39 85.893 137.429 87.5747 137.14 89.2168C136.851 90.8589 136.239 92.4294 135.34 93.8385C134.441 95.2476 133.271 96.4677 131.899 97.4293C130.527 98.3908 128.978 99.075 127.341 99.4426C125.704 99.8102 124.012 99.8541 122.36 99.5719C120.708 99.2896 119.129 98.6866 117.714 97.7974C116.298 96.9082 115.074 95.7502 114.11 94.3894C113.146 93.0286 112.463 91.4918 112.098 89.8667L113.03 89.6574Z" fill="#008CCC"/>
<path fill-rule="evenodd" clip-rule="evenodd" d="M132.404 20.9119L89.1722 30.622L102.772 91.173L146.004 81.4629L132.404 20.9119ZM88.0391 29.9017L102.056 92.3087L147.137 82.1832L133.121 19.7762L88.0391 29.9017Z" fill="#008CCC"/>
<path fill-rule="evenodd" clip-rule="evenodd" d="M87.5256 433.934C84.2956 419.553 83.9274 404.677 86.4423 390.155C88.9571 375.634 94.3056 361.751 102.182 349.3C110.059 336.849 120.31 326.074 132.35 317.588C144.389 309.103 157.982 303.075 172.351 299.847C186.721 296.62 201.586 296.257 216.098 298.778C230.609 301.3 244.484 306.657 256.928 314.544C269.373 322.43 280.145 332.692 288.628 344.744C297.111 356.795 303.14 370.399 306.37 384.78L307.53 384.52C304.266 369.986 298.173 356.237 289.6 344.058C281.027 331.879 270.141 321.509 257.564 313.538C244.988 305.568 230.966 300.154 216.301 297.606C201.635 295.057 186.612 295.424 172.09 298.686C157.569 301.948 143.832 308.04 131.665 316.615C119.497 325.19 109.138 336.08 101.177 348.663C93.2171 361.247 87.8119 375.276 85.2704 389.952C82.7289 404.627 83.101 419.661 86.3652 434.194L87.5256 433.934Z" fill="#008CCC"/>
<path fill-rule="evenodd" clip-rule="evenodd" d="M220.265 1.42078L1.42093 50.5741L87.3041 432.95L306.148 383.796L220.265 1.42078ZM0 49.6746L86.4043 434.37L307.569 384.696L221.165 4.17352e-05L0 49.6746Z" fill="#008CCC"/>
<path fill-rule="evenodd" clip-rule="evenodd" d="M264.367 192.348L43.2024 242.023L43.0039 241.139L264.169 191.464L264.367 192.348Z" fill="#008CCC"/>
<path fill-rule="evenodd" clip-rule="evenodd" d="M158.667 238.942C170.733 236.232 178.308 224.215 175.588 212.102C172.867 199.989 160.88 192.366 148.814 195.076C136.748 197.786 129.173 209.803 131.893 221.916C134.614 234.029 146.601 241.652 158.667 238.942ZM158.823 239.638C171.272 236.842 179.088 224.444 176.281 211.946C173.474 199.449 161.107 191.584 148.658 194.38C136.209 197.176 128.393 209.574 131.2 222.072C134.007 234.57 146.374 242.434 158.823 239.638Z" fill="#008CCC"/>
</g>
</svg>
